# Blender 4.1.1
# www.blender.org
mtllib group1094615483.mtl
o group1094615483
v -0.022238 -0.225959 0.620029
v -0.005637 -0.274447 0.515290
v -0.041692 -0.274979 0.431055
v 0.029907 -0.215238 0.478074
v 0.035851 -0.252994 0.378734
v 0.036911 -0.259822 0.468783
v 0.012682 -0.203335 0.436036
v -0.026224 -0.222501 0.478997
vn -0.5934 -0.7622 0.2588
vn 0.9879 0.1552 0.0001
vn 0.7412 -0.0233 0.6708
vn -0.5794 0.4853 -0.6548
vn 0.2546 0.9528 0.1655
vn 0.2171 -0.9723 -0.0868
vn -0.9666 0.2542 0.0336
vn -0.7183 0.5726 -0.3951
vn -0.4112 0.9109 0.0340
vn 0.8045 0.5696 -0.1684
vn 0.8892 -0.3449 0.3006
vn 0.2487 -0.9656 -0.0761
vt -0.039932 -0.024894
vt -0.030787 -0.025471
vt -0.022268 -0.033433
vt 0.050325 -0.007833
vt 0.057227 -0.002008
vt 0.052829 -0.011701
vt 0.038675 -0.003056
vt 0.042058 0.002460
vt 0.045922 -0.000051
vt -0.025150 0.008958
vt -0.020414 0.015317
vt -0.016469 0.006555
vt 0.041532 -0.005347
vt 0.046228 -0.005386
vt 0.030380 -0.015617
vt -0.037797 0.008467
vt -0.038897 0.018014
vt -0.028656 0.007845
vt -0.040037 0.008584
vt -0.042981 0.022387
vt -0.038537 0.028146
vt -0.011199 0.022119
vt -0.017847 0.019166
vt -0.019744 0.024968
vt 0.026136 0.024647
vt 0.024771 0.018697
vt 0.012666 0.011441
vt 0.049084 -0.020720
vt 0.045988 -0.028019
vt 0.041292 -0.027971
vt 0.036540 0.021529
vt 0.034192 0.006551
vt 0.029879 0.017385
vt -0.037689 0.019508
vt -0.029692 0.015310
vt -0.027601 0.009186
s 0
usemtl mat20.001
f 3/1/1 2/2/1 1/3/1
f 6/4/2 5/5/2 4/6/2
f 2/7/3 6/8/3 4/9/3
f 7/10/4 5/11/4 3/12/4
f 4/13/5 7/14/5 1/15/5
f 3/16/6 5/17/6 2/18/6
f 1/19/7 8/20/7 3/21/7
f 3/22/8 8/23/8 7/24/8
f 7/25/9 8/26/9 1/27/9
f 5/28/10 7/29/10 4/30/10
f 4/31/11 1/32/11 2/33/11
f 5/34/12 6/35/12 2/36/12
