# Blender 4.1.1
# www.blender.org
mtllib group1061609037.mtl
o group1061609037.003
v 0.019650 0.170955 0.210117
v 0.072209 0.149319 0.134644
v 0.034415 0.151738 0.033033
v 0.069112 0.227600 0.089614
v 0.101174 0.186006 0.030805
v 0.114387 0.185176 0.086806
v 0.048157 0.261254 0.018971
v -0.012086 0.202243 0.047235
vn -0.2782 -0.9571 0.0807
vn 0.6714 0.7263 -0.1476
vn 0.4719 0.4536 0.7560
vn 0.0345 -0.1315 -0.9907
vn 0.0081 0.9037 0.4281
vn 0.4438 -0.8766 -0.1859
vn -0.7339 -0.6792 0.0125
vn -0.3636 -0.0736 -0.9286
vn -0.6096 0.7480 0.2625
vn 0.8144 0.5792 0.0344
vn 0.8196 0.3097 0.4820
vn 0.5439 -0.8273 -0.1406
vt -0.075135 -0.000465
vt -0.064341 -0.001500
vt -0.059926 -0.009854
vt 0.077798 -0.030092
vt 0.083391 -0.028736
vt 0.080053 -0.035879
vt 0.101933 -0.003966
vt 0.107665 0.000582
vt 0.110940 -0.004695
vt -0.093730 -0.039291
vt -0.087920 -0.032054
vt -0.082749 -0.037497
vt 0.097589 0.021296
vt 0.105687 0.021520
vt 0.086238 0.012757
vt -0.066819 0.061944
vt -0.063797 0.068816
vt -0.056079 0.060443
vt -0.081292 -0.035204
vt -0.097786 -0.031580
vt -0.095854 -0.024840
vt -0.087271 -0.009321
vt -0.090655 -0.015460
vt -0.098286 -0.010892
vt 0.064231 0.084300
vt 0.064962 0.075436
vt 0.049338 0.069028
vt 0.101383 -0.022056
vt 0.107123 -0.029348
vt 0.099026 -0.029580
vt 0.111451 0.000717
vt 0.099933 -0.007596
vt 0.102449 0.001511
vt -0.050232 0.079585
vt -0.044820 0.077632
vt -0.043438 0.070447
s 0
usemtl mat20.001
f 3/1/1 2/2/1 1/3/1
f 6/4/2 5/5/2 4/6/2
f 2/7/3 6/8/3 4/9/3
f 7/10/4 5/11/4 3/12/4
f 4/13/5 7/14/5 1/15/5
f 3/16/6 5/17/6 2/18/6
f 1/19/7 8/20/7 3/21/7
f 3/22/8 8/23/8 7/24/8
f 7/25/9 8/26/9 1/27/9
f 5/28/10 7/29/10 4/30/10
f 4/31/11 1/32/11 2/33/11
f 5/34/12 6/35/12 2/36/12
