# Blender 4.1.1
# www.blender.org
mtllib group1087224881.mtl
o group1087224881.001
v 0.092497 0.542859 0.582697
v -0.269163 0.542859 0.582697
v -0.270000 0.454536 0.355614
v 0.093334 0.454537 0.355613
v 0.092497 -0.542120 0.582697
v 0.093334 -0.453797 0.355613
v -0.270000 -0.453797 0.355613
v -0.269163 -0.542120 0.582697
v 0.093333 0.182037 -0.325636
v -0.270000 0.182037 -0.325636
v -0.235483 0.147520 -0.325636
v 0.058817 0.147520 -0.325636
v 0.365833 0.182037 0.355613
v 0.454156 0.181200 0.582697
v -0.630823 -0.180460 0.582697
v -0.630823 0.181199 0.582697
v 0.093333 -0.181297 -0.325636
v 0.093334 -0.226714 -0.212095
v 0.184167 -0.181297 -0.098553
v 0.454156 -0.180460 0.582697
v 0.365833 -0.181297 0.355613
v -0.542500 -0.181297 0.355613
v -0.270000 0.227453 -0.212095
v -0.360833 0.182037 -0.098553
v -0.542500 0.182037 0.355613
v -0.270000 -0.181297 -0.325636
v -0.235483 -0.146780 -0.325636
v 0.058817 -0.146780 -0.325636
v -0.088333 0.147520 -0.270285
v -0.235483 0.000370 -0.270285
v -0.088333 -0.146780 -0.270285
v 0.058817 0.000370 -0.270285
v -0.270000 0.363703 0.128530
v -0.270000 0.272870 -0.098553
v -0.088333 0.227453 -0.212095
v 0.093334 0.272870 -0.098553
v 0.093334 0.363703 0.128530
v -0.451667 0.182037 0.128530
v -0.451667 -0.181297 0.128530
v -0.360833 -0.181297 -0.098553
v -0.315417 0.000370 -0.212095
v -0.270000 -0.362963 0.128530
v -0.270000 -0.272130 -0.098553
v -0.315417 -0.181297 -0.212095
v 0.093334 -0.362963 0.128530
v 0.093334 -0.272130 -0.098553
v -0.088333 -0.226714 -0.212095
v 0.275000 -0.181297 0.128530
v 0.275000 0.182037 0.128530
v 0.184167 0.182037 -0.098553
v 0.138750 0.000370 -0.212095
v 0.138750 0.182037 -0.212095
v 0.138342 -0.075190 0.636305
v -0.315015 0.075929 0.636305
v -0.315015 -0.075190 0.636305
v 0.138342 0.075929 0.636305
v -0.163896 -0.226309 0.636305
v -0.012777 -0.226309 0.636305
v -0.163896 0.227048 0.636305
v -0.012777 0.227048 0.636305
v 0.138342 -0.075189 0.035555
v -0.315015 0.075929 0.035555
v -0.315015 -0.075190 0.035555
v 0.138342 0.075929 0.035555
v -0.163896 -0.226309 0.035555
v -0.012777 -0.226309 0.035555
v -0.163896 0.227048 0.035555
v -0.012777 0.227048 0.035555
v 0.086774 -0.058001 -0.241731
v -0.263449 0.058740 -0.241731
v -0.263449 -0.058001 -0.241731
v 0.086774 0.058740 -0.241731
v -0.146708 -0.174742 -0.241731
v -0.029967 -0.174742 -0.241731
v -0.146708 0.175481 -0.241731
v -0.029967 0.175481 -0.241731
v 0.086774 -0.058001 -0.318361
v -0.263449 0.058740 -0.318361
v -0.263449 -0.058001 -0.318361
v 0.086774 0.058740 -0.318361
v -0.146708 -0.174742 -0.318361
v -0.029967 -0.174742 -0.318361
v -0.146708 0.175481 -0.318361
v -0.029967 0.175481 -0.318361
vn -0.0000 0.9320 -0.3625
vn -0.0000 -0.9320 -0.3625
vn 0.6822 0.6822 -0.2628
vn 0.9320 -0.0000 -0.3625
vn -0.6822 -0.6822 -0.2628
vn -0.9320 -0.0000 -0.3625
vn -0.0000 0.9285 -0.3714
vn -0.6804 0.6804 -0.2722
vn -0.9285 -0.0000 -0.3714
vn -0.6804 -0.6804 -0.2722
vn -0.0000 -0.9285 -0.3714
vn 0.6804 -0.6804 -0.2722
vn 0.9285 -0.0000 -0.3714
vn 0.6804 0.6804 -0.2722
vn 0.6822 -0.6822 -0.2628
vn -0.6822 0.6822 -0.2628
vn 0.1674 -0.0000 0.9859
vn -0.1253 0.1253 0.9842
vn -0.0000 0.1674 0.9859
vn -0.0000 -0.0000 -1.0000
vn -0.1674 -0.0000 0.9859
vn 0.1253 -0.1253 0.9842
vn 0.1253 0.1253 0.9842
vn -0.1253 -0.1253 0.9842
vn -0.0000 -0.1674 0.9859
vn -0.0000 1.0000 -0.0000
vn -0.7071 0.7071 -0.0000
vn 0.7071 -0.7071 -0.0000
vn 1.0000 -0.0000 -0.0000
vn 0.7071 0.7071 -0.0000
vn -1.0000 -0.0000 -0.0000
vn -0.0000 -1.0000 -0.0000
vn -0.7071 -0.7071 -0.0000
vn 0.6965 0.6965 0.1727
vn -0.0000 -0.9831 0.1828
vn 0.9831 -0.0000 0.1828
vn -0.9831 -0.0000 0.1828
vn -0.6965 0.6965 0.1727
vn -0.0000 0.9831 0.1828
vn 0.6965 -0.6965 0.1727
vn -0.6965 -0.6965 0.1727
vn -0.6067 -0.7348 -0.3033
vn -0.6519 0.7062 -0.2763
vn -0.5096 -0.0849 -0.8562
vt -0.106788 -0.034236
vt -0.146411 -0.015573
vt -0.125410 -0.003038
vt 0.079586 0.000299
vt 0.114236 0.027088
vt 0.102800 -0.007399
vt -0.131410 -0.023036
vt -0.093603 -0.056932
vt -0.113477 -0.071188
vt -0.121803 -0.059908
vt -0.088990 -0.088918
vt -0.112661 -0.095072
vt 0.051009 -0.056598
vt 0.094947 -0.031146
vt 0.067549 -0.074615
vt 0.004809 -0.080801
vt -0.018989 -0.117570
vt -0.028601 -0.095080
vt -0.083407 0.022032
vt -0.064786 -0.009166
vt -0.085787 -0.021701
vt -0.084679 -0.054670
vt -0.099742 -0.017773
vt -0.077832 -0.031190
vt -0.047825 -0.050101
vt -0.014415 -0.035822
vt -0.004803 -0.058311
vt 0.017930 -0.020564
vt 0.024779 -0.009697
vt 0.048168 -0.016847
vt 0.033156 0.015695
vt 0.044592 0.050182
vt 0.067807 0.042484
vt 0.116885 0.034763
vt 0.081654 0.016133
vt 0.092844 0.039260
vt -0.050791 -0.041446
vt -0.041649 -0.076611
vt -0.065320 -0.082764
vt -0.058340 -0.016383
vt -0.053856 -0.028421
vt -0.073730 -0.042677
vt -0.082697 -0.018601
vt -0.093604 -0.056932
vt -0.107054 -0.020818
vt -0.074462 -0.047600
vt -0.088991 -0.088918
vt -0.098132 -0.053754
vt 0.116885 0.034763
vt 0.118546 -0.015987
vt 0.100100 0.000073
vt 0.056371 0.007997
vt 0.091021 0.034786
vt 0.079586 0.000299
vt 0.051009 -0.056598
vt 0.048168 -0.016847
vt 0.071558 -0.023996
vt -0.038213 -0.072590
vt 0.004809 -0.080801
vt -0.028601 -0.095080
vt -0.091525 -0.078149
vt -0.117543 -0.034544
vt -0.084679 -0.054670
vt -0.125410 -0.003038
vt -0.085787 -0.021701
vt -0.106788 -0.034237
vt -0.077832 -0.031190
vt -0.081940 -0.001002
vt -0.073039 0.007384
vt 0.092844 0.039260
vt 0.063208 0.032193
vt 0.053986 0.040223
vt -0.135345 -0.051315
vt -0.127789 -0.046772
vt -0.066388 0.006856
vt -0.080698 0.036661
vt -0.076287 0.034571
vt 0.068803 0.043757
vt 0.053985 0.040223
vt 0.044763 0.048254
vt -0.070985 -0.007710
vt -0.073039 0.007384
vt -0.064138 0.015769
vt -0.066388 0.006856
vt -0.034261 0.014664
vt -0.068478 0.002444
vt -0.038673 0.016754
vt -0.046482 0.048881
vt -0.034261 0.014664
vt -0.076287 0.034571
vt -0.046482 0.048881
vt -0.048571 0.044469
vt -0.034385 -0.055951
vt -0.017978 -0.070457
vt -0.029814 -0.073534
vt -0.050791 -0.041446
vt -0.027120 -0.035292
vt -0.034384 -0.055951
vt 0.027267 0.036788
vt 0.021377 0.057880
vt 0.044592 0.050182
vt 0.033156 0.015695
vt 0.009942 0.023393
vt 0.027267 0.036788
vt -0.035926 -0.031716
vt -0.024027 -0.013332
vt -0.014415 -0.035822
vt -0.047825 -0.050101
vt -0.057437 -0.027611
vt -0.035926 -0.031716
vt -0.062406 0.034567
vt -0.054285 -0.002899
vt -0.064786 -0.009166
vt -0.083407 0.022032
vt -0.062406 0.034567
vt -0.063596 0.012700
vt -0.046162 -0.015274
vt -0.033983 -0.014166
vt -0.053857 -0.028421
vt 0.009660 -0.011556
vt 0.001390 -0.002547
vt 0.024779 -0.009697
vt 0.014421 -0.103291
vt 0.140925 0.030266
vt 0.091021 0.034786
vt -0.107054 -0.020818
vt -0.098132 -0.053754
vt 0.071558 -0.023996
vt -0.104409 0.009497
vt -0.063596 0.012700
vt -0.117543 -0.034544
vt -0.038213 -0.072590
vt -0.035926 -0.031716
vt 0.034469 -0.038581
vt 0.009660 -0.011556
vt 0.056371 0.007997
vt 0.027267 0.036788
vt 0.100100 0.000073
vt -0.074461 -0.047600
vt -0.034384 -0.055952
vt -0.082697 -0.018601
vt -0.046161 -0.015274
vt -0.073730 -0.042677
vt -0.065320 -0.082764
vt 0.067807 0.042484
vt 0.034469 -0.038581
vt -0.004803 -0.058311
vt -0.104409 0.009497
vt -0.070985 -0.007710
vt -0.099742 -0.017773
vt 0.068803 0.043757
vt 0.081654 0.016133
vt -0.068478 0.002444
vt -0.038673 0.016754
vt -0.048571 0.044469
vt -0.080698 0.036661
vt -0.027120 -0.035292
vt -0.041649 -0.076610
vt 0.009942 0.023393
vt 0.032985 0.054031
vt -0.057437 -0.027611
vt -0.019221 -0.024577
vt -0.063596 0.012700
vt -0.043785 0.003369
s 0
usemtl mat3
f 3/1/1 1/2/1 4/3/1
f 7/4/2 5/5/2 8/6/2
f 14/7/3 4/8/3 1/9/3
f 20/10/4 13/11/4 14/12/4
f 22/13/5 8/14/5 15/15/5
f 22/16/6 16/17/6 25/18/6
f 36/19/7 34/20/7 33/21/7
f 25/22/8 33/23/8 38/24/8
f 24/25/9 40/26/9 39/27/9
f 40/28/10 43/29/10 42/30/10
f 43/31/11 46/32/11 45/33/11
f 21/34/12 45/35/12 48/36/12
f 19/37/13 50/38/13 49/39/13
f 50/40/14 36/41/14 37/42/14
f 49/43/14 4/44/14 13/45/14
f 48/46/13 13/47/13 21/48/13
f 21/49/15 5/50/15 6/51/15
f 42/52/11 6/53/11 7/54/11
f 22/55/10 42/56/10 7/57/10
f 38/58/9 22/59/9 25/60/9
f 16/61/16 3/62/16 25/63/16
f 4/64/7 33/65/7 3/66/7
f 38/67/8 34/68/8 23/69/8
f 48/70/12 46/71/12 18/72/12
f 20/10/17 56/12/17 53/10/17
f 16/61/18 59/73/18 2/73/18
f 2/74/19 60/2/19 1/2/19
f 16/17/21 55/123/21 54/17/21
f 5/50/22 53/124/22 58/50/22
f 1/9/23 56/7/23 14/7/23
f 15/15/24 57/14/24 55/15/24
f 8/6/25 58/5/25 57/6/25
f 58/5/26 65/6/26 57/6/26
f 58/50/27 61/124/27 66/50/27
f 54/61/28 67/73/28 59/73/28
f 55/123/29 62/17/29 54/17/29
f 57/14/30 63/15/30 55/15/30
f 56/12/31 61/10/31 53/10/31
f 59/74/32 68/2/32 60/2/32
f 60/9/33 64/7/33 56/7/33
f 63/15/34 73/14/34 71/15/34
f 67/74/35 76/2/35 68/2/35
f 62/17/36 71/123/36 70/17/36
f 64/12/37 69/10/37 61/10/37
f 66/50/38 69/124/38 74/50/38
f 65/6/39 74/5/39 73/6/39
f 62/61/40 75/73/40 67/73/40
f 68/9/41 72/7/41 64/7/41
f 75/74/32 84/2/32 76/2/32
f 70/17/29 79/123/29 78/17/29
f 72/12/31 77/10/31 69/10/31
f 69/124/27 82/50/27 74/50/27
f 74/5/26 81/6/26 73/6/26
f 75/73/28 78/61/28 83/73/28
f 76/9/33 80/7/33 72/7/33
f 73/14/30 79/15/30 71/15/30
f 3/1/1 2/74/1 1/2/1
f 7/4/2 6/125/2 5/5/2
f 14/7/3 13/126/3 4/8/3
f 20/10/4 21/127/4 13/11/4
f 22/13/5 7/128/5 8/14/5
f 22/16/6 15/123/6 16/17/6
f 33/21/7 37/129/7 36/19/7
f 36/19/7 35/130/7 34/20/7
f 25/22/8 3/131/8 33/23/8
f 39/27/9 38/132/9 24/25/9
f 24/25/9 41/133/9 40/26/9
f 42/30/10 39/134/10 40/28/10
f 40/28/10 44/135/10 43/29/10
f 45/33/11 42/136/11 43/31/11
f 43/31/11 47/137/11 46/32/11
f 21/34/12 6/138/12 45/35/12
f 49/39/13 48/139/13 19/37/13
f 19/37/13 51/140/13 50/38/13
f 37/42/14 49/141/14 50/40/14
f 50/40/14 52/142/14 36/41/14
f 49/43/14 37/143/14 4/44/14
f 48/46/13 49/144/13 13/47/13
f 21/49/15 20/124/15 5/50/15
f 42/52/11 45/145/11 6/53/11
f 22/55/10 39/146/10 42/56/10
f 38/58/9 39/147/9 22/59/9
f 16/61/16 2/73/16 3/62/16
f 4/64/7 37/148/7 33/65/7
f 23/69/8 24/149/8 38/67/8
f 38/67/8 33/150/8 34/68/8
f 18/72/12 19/151/12 48/70/12
f 48/70/12 45/152/12 46/71/12
f 20/10/17 14/12/17 56/12/17
f 16/61/18 54/61/18 59/73/18
f 2/74/19 59/74/19 60/2/19
f 16/17/21 15/123/21 55/123/21
f 5/50/22 20/124/22 53/124/22
f 1/9/23 60/9/23 56/7/23
f 15/15/24 8/14/24 57/14/24
f 8/6/25 5/5/25 58/5/25
f 58/5/26 66/5/26 65/6/26
f 58/50/27 53/124/27 61/124/27
f 54/61/28 62/61/28 67/73/28
f 55/123/29 63/123/29 62/17/29
f 57/14/30 65/14/30 63/15/30
f 56/12/31 64/12/31 61/10/31
f 59/74/32 67/74/32 68/2/32
f 60/9/33 68/9/33 64/7/33
f 63/15/34 65/14/34 73/14/34
f 67/74/35 75/74/35 76/2/35
f 62/17/36 63/123/36 71/123/36
f 64/12/37 72/12/37 69/10/37
f 66/50/38 61/124/38 69/124/38
f 65/6/39 66/5/39 74/5/39
f 62/61/40 70/61/40 75/73/40
f 68/9/41 76/9/41 72/7/41
f 75/74/32 83/74/32 84/2/32
f 70/17/29 71/123/29 79/123/29
f 72/12/31 80/12/31 77/10/31
f 69/124/27 77/124/27 82/50/27
f 74/5/26 82/5/26 81/6/26
f 75/73/28 70/61/28 78/61/28
f 76/9/33 84/9/33 80/7/33
f 73/14/30 81/14/30 79/15/30
usemtl mat21
f 11/75/20 9/76/20 12/77/20
f 19/78/12 18/79/12 17/80/12
f 24/81/8 23/82/8 10/83/8
f 11/84/20 26/85/20 10/86/20
f 27/87/20 17/88/20 26/89/20
f 12/90/20 17/91/20 28/92/20
f 51/93/13 9/94/13 52/95/13
f 19/96/13 17/97/13 51/98/13
f 47/99/11 17/100/11 46/101/11
f 43/102/11 26/103/11 47/104/11
f 41/105/9 26/106/9 40/107/9
f 24/108/9 10/109/9 41/110/9
f 9/111/7 23/112/7 34/113/7
f 36/114/7 9/115/7 35/116/7
f 52/117/14 9/118/14 36/119/14
f 44/120/10 26/121/10 43/122/10
f 11/75/20 10/153/20 9/76/20
f 11/84/20 27/154/20 26/85/20
f 27/87/20 28/155/20 17/88/20
f 12/90/20 9/156/20 17/91/20
f 51/93/13 17/157/13 9/94/13
f 52/95/13 50/158/13 51/93/13
f 47/99/11 26/159/11 17/100/11
f 17/100/42 18/160/42 46/101/42
f 41/105/9 10/161/9 26/106/9
f 26/106/43 44/162/43 40/107/43
f 34/113/44 35/163/44 9/111/44
f 9/111/7 10/164/7 23/112/7
