# Blender 4.1.1
# www.blender.org
mtllib Cone.012_Cone.015.mtl
o Cone.012_Cone.016
v -5.406244 -1.148031 -4.087720
v -5.360565 -1.161444 -4.087720
v -5.329389 -1.197423 -4.087720
v -5.322614 -1.244545 -4.087720
v -5.342391 -1.287850 -4.087720
v -5.406244 -1.232521 -2.760044
v -5.382440 -1.313588 -4.087720
v -5.430047 -1.313588 -4.087720
v -5.470097 -1.287850 -4.087720
v -5.489873 -1.244545 -4.087720
v -5.483098 -1.197423 -4.087720
v -5.451922 -1.161444 -4.087720
v -6.001163 0.311116 -3.962830
v -5.955485 0.297704 -3.962830
v -5.924309 0.261725 -3.962830
v -5.917534 0.214603 -3.962830
v -5.937311 0.171298 -3.962830
v -6.001163 0.226627 -2.635153
v -5.977360 0.145560 -3.962830
v -6.024967 0.145560 -3.962830
v -6.065016 0.171298 -3.962830
v -6.084793 0.214603 -3.962830
v -6.078018 0.261725 -3.962830
v -6.046842 0.297704 -3.962830
v -6.111189 1.602208 -3.962830
v -6.065510 1.588796 -3.962830
v -6.034335 1.552817 -3.962830
v -6.027559 1.505695 -3.962830
v -6.047336 1.462390 -3.962830
v -6.111189 1.517718 -2.635153
v -6.087386 1.436651 -3.962830
v -6.134993 1.436652 -3.962830
v -6.175042 1.462390 -3.962830
v -6.194818 1.505695 -3.962830
v -6.188043 1.552817 -3.962830
v -6.156868 1.588796 -3.962830
v -5.635232 -0.337391 -3.874680
v -5.589554 -0.350804 -3.874680
v -5.558378 -0.386782 -3.874680
v -5.551602 -0.433905 -3.874680
v -5.571379 -0.477210 -3.874680
v -5.635232 -0.421881 -2.547004
v -5.611429 -0.502948 -3.874680
v -5.659036 -0.502948 -3.874680
v -5.699085 -0.477210 -3.874680
v -5.718862 -0.433905 -3.874680
v -5.712087 -0.386782 -3.874680
v -5.680911 -0.350804 -3.874680
v -6.011671 0.556289 -3.874680
v -5.965992 0.542877 -3.874680
v -5.934816 0.506898 -3.874680
v -5.928041 0.459776 -3.874680
v -5.947818 0.416471 -3.874680
v -6.011671 0.471799 -2.547003
v -5.987867 0.390733 -3.874680
v -6.035474 0.390733 -3.874680
v -6.075523 0.416471 -3.874680
v -6.095300 0.459776 -3.874680
v -6.088525 0.506898 -3.874680
v -6.057349 0.542877 -3.874680
v -6.011671 1.212327 -3.874680
v -5.965992 1.198914 -3.874680
v -5.934816 1.162935 -3.874680
v -5.928041 1.115813 -3.874680
v -5.947818 1.072508 -3.874680
v -6.011671 1.127837 -2.547004
v -5.987867 1.046770 -3.874680
v -6.035474 1.046770 -3.874680
v -6.075523 1.072508 -3.874680
v -6.095300 1.115813 -3.874680
v -6.088525 1.162935 -3.874680
v -6.057349 1.198914 -3.874680
v -5.147942 3.697859 -3.760358
v -5.102263 3.684446 -3.760358
v -5.071087 3.648468 -3.760358
v -5.064312 3.601345 -3.760359
v -5.084088 3.558040 -3.760359
v -5.147942 3.613369 -2.432682
v -5.124138 3.532302 -3.760359
v -5.171745 3.532302 -3.760359
v -5.211794 3.558040 -3.760359
v -5.231571 3.601345 -3.760359
v -5.224796 3.648468 -3.760358
v -5.193620 3.684446 -3.760358
v -4.832814 4.336383 -3.569511
v -4.787136 4.322970 -3.569511
v -4.755960 4.286991 -3.569511
v -4.749185 4.239869 -3.569511
v -4.768961 4.196564 -3.569511
v -4.832814 4.251893 -2.241834
v -4.809011 4.170826 -3.569511
v -4.856617 4.170826 -3.569511
v -4.896667 4.196564 -3.569511
v -4.916443 4.239869 -3.569511
v -4.909668 4.286991 -3.569511
v -4.878492 4.322970 -3.569511
v -5.767645 1.973159 -3.780739
v -5.721967 1.959747 -3.780739
v -5.690791 1.923768 -3.780739
v -5.684016 1.876646 -3.780739
v -5.703793 1.833341 -3.780739
v -5.767645 1.888669 -2.453062
v -5.743842 1.807603 -3.780739
v -5.791449 1.807603 -3.780739
v -5.831498 1.833341 -3.780739
v -5.851275 1.876646 -3.780739
v -5.844500 1.923768 -3.780739
v -5.813324 1.959747 -3.780739
v -5.554395 3.037127 -3.780739
v -5.508717 3.023714 -3.780739
v -5.477540 2.987735 -3.780739
v -5.470766 2.940613 -3.780739
v -5.490542 2.897308 -3.780739
v -5.554395 2.952637 -2.453063
v -5.530591 2.871570 -3.780739
v -5.578198 2.871570 -3.780739
v -5.618248 2.897308 -3.780739
v -5.638024 2.940613 -3.780739
v -5.631249 2.987735 -3.780739
v -5.600073 3.023714 -3.780739
v -4.980011 4.140337 -3.780739
v -4.934333 4.126925 -3.780739
v -4.903157 4.090946 -3.780739
v -4.896382 4.043823 -3.780739
v -4.916158 4.000519 -3.780739
v -4.980011 4.055847 -2.453063
v -4.956208 3.974781 -3.780739
v -5.003815 3.974781 -3.780739
v -5.043864 4.000519 -3.780739
v -5.063641 4.043823 -3.780739
v -5.056866 4.090946 -3.780739
v -5.025690 4.126925 -3.780739
v -4.189330 5.282734 -3.908905
v -4.143651 5.269321 -3.908905
v -4.112475 5.233342 -3.908905
v -4.105700 5.186220 -3.908905
v -4.125477 5.142915 -3.908905
v -4.189330 5.198244 -2.581229
v -4.165526 5.117177 -3.908905
v -4.213133 5.117177 -3.908905
v -4.253183 5.142915 -3.908905
v -4.272959 5.186220 -3.908905
v -4.266184 5.233342 -3.908905
v -4.235008 5.269321 -3.908905
v -1.733183 6.774810 -4.011220
v -1.687504 6.761397 -4.011220
v -1.656328 6.725419 -4.011220
v -1.649553 6.678296 -4.011220
v -1.669330 6.634992 -4.011220
v -1.733183 6.690320 -2.683544
v -1.709380 6.609254 -4.011220
v -1.756987 6.609254 -4.011220
v -1.797036 6.634992 -4.011220
v -1.816813 6.678296 -4.011220
v -1.810037 6.725419 -4.011220
v -1.778862 6.761397 -4.011220
v -3.001449 6.364156 -4.011220
v -2.955770 6.350743 -4.011220
v -2.924594 6.314764 -4.011220
v -2.917819 6.267642 -4.011220
v -2.937596 6.224337 -4.011220
v -3.001449 6.279666 -2.683544
v -2.977645 6.198599 -4.011220
v -3.025252 6.198599 -4.011220
v -3.065301 6.224337 -4.011220
v -3.085078 6.267642 -4.011220
v -3.078303 6.314764 -4.011220
v -3.047127 6.350743 -4.011220
v 0.000000 6.838936 -3.829039
v 0.045678 6.825523 -3.829039
v 0.076854 6.789545 -3.829039
v 0.083629 6.742422 -3.829039
v 0.063853 6.699118 -3.829039
v 0.000000 6.754447 -2.501362
v 0.023803 6.673380 -3.829039
v -0.023804 6.673380 -3.829039
v -0.063853 6.699118 -3.829039
v -0.083630 6.742422 -3.829039
v -0.076854 6.789545 -3.829039
v -0.045679 6.825523 -3.829039
vn 0.2812 0.9577 0.0609
vn 0.7543 0.6536 0.0609
vn 0.9880 0.1420 0.0609
vn 0.9079 -0.4146 0.0609
vn 0.5396 -0.8397 0.0609
vn -0.0000 -0.9981 0.0609
vn -0.5396 -0.8397 0.0609
vn -0.9079 -0.4146 0.0609
vn -0.9880 0.1420 0.0609
vn -0.7543 0.6536 0.0609
vn -0.2812 0.9577 0.0609
vn -0.0000 -0.0000 -1.0000
vn 0.9079 -0.4147 0.0609
vn -0.9079 -0.4147 0.0609
vn 0.7544 0.6536 0.0609
vn 0.9880 0.1421 0.0609
vn -0.7544 0.6536 0.0609
vn -0.7543 0.6537 0.0609
vn -0.9880 0.1421 0.0609
vn 0.7543 0.6537 0.0609
vn 0.5397 -0.8397 0.0609
vn -0.5397 -0.8397 0.0609
vn -0.0000 -0.0001 -1.0000
s 0
usemtl Material.009
f 1//1 6//1 2//1
f 2//2 6//2 3//2
f 3//3 6//3 4//3
f 4//4 6//4 5//4
f 5//5 6//5 7//5
f 7//6 6//6 8//6
f 8//7 6//7 9//7
f 9//8 6//8 10//8
f 10//9 6//9 11//9
f 11//10 6//10 12//10
f 12//11 6//11 1//11
f 2//12 7//12 11//12
f 13//1 18//1 14//1
f 14//2 18//2 15//2
f 15//3 18//3 16//3
f 16//13 18//13 17//13
f 17//5 18//5 19//5
f 19//6 18//6 20//6
f 20//7 18//7 21//7
f 21//14 18//14 22//14
f 22//9 18//9 23//9
f 23//10 18//10 24//10
f 24//11 18//11 13//11
f 14//12 19//12 23//12
f 25//1 30//1 26//1
f 26//15 30//15 27//15
f 27//16 30//16 28//16
f 28//13 30//13 29//13
f 29//5 30//5 31//5
f 31//6 30//6 32//6
f 32//7 30//7 33//7
f 33//8 30//8 34//8
f 34//9 30//9 35//9
f 35//17 30//17 36//17
f 36//11 30//11 25//11
f 26//12 31//12 35//12
f 37//1 42//1 38//1
f 38//2 42//2 39//2
f 39//16 42//16 40//16
f 40//13 42//13 41//13
f 41//5 42//5 43//5
f 43//6 42//6 44//6
f 44//7 42//7 45//7
f 45//8 42//8 46//8
f 46//9 42//9 47//9
f 47//18 42//18 48//18
f 48//11 42//11 37//11
f 38//12 43//12 47//12
f 49//1 54//1 50//1
f 50//2 54//2 51//2
f 51//3 54//3 52//3
f 52//4 54//4 53//4
f 53//5 54//5 55//5
f 55//6 54//6 56//6
f 56//7 54//7 57//7
f 57//14 54//14 58//14
f 58//19 54//19 59//19
f 59//10 54//10 60//10
f 60//11 54//11 49//11
f 50//12 55//12 59//12
f 61//1 66//1 62//1
f 62//2 66//2 63//2
f 63//3 66//3 64//3
f 64//4 66//4 65//4
f 65//5 66//5 67//5
f 67//6 66//6 68//6
f 68//7 66//7 69//7
f 69//14 66//14 70//14
f 70//19 66//19 71//19
f 71//10 66//10 72//10
f 72//11 66//11 61//11
f 62//12 67//12 71//12
f 73//1 78//1 74//1
f 74//20 78//20 75//20
f 75//3 78//3 76//3
f 76//4 78//4 77//4
f 77//5 78//5 79//5
f 79//6 78//6 80//6
f 80//7 78//7 81//7
f 81//14 78//14 82//14
f 82//19 78//19 83//19
f 83//10 78//10 84//10
f 84//11 78//11 73//11
f 74//12 79//12 83//12
f 85//1 90//1 86//1
f 86//15 90//15 87//15
f 87//16 90//16 88//16
f 88//4 90//4 89//4
f 89//5 90//5 91//5
f 91//6 90//6 92//6
f 92//7 90//7 93//7
f 93//8 90//8 94//8
f 94//9 90//9 95//9
f 95//17 90//17 96//17
f 96//11 90//11 85//11
f 86//12 91//12 95//12
f 97//1 102//1 98//1
f 98//2 102//2 99//2
f 99//3 102//3 100//3
f 100//4 102//4 101//4
f 101//5 102//5 103//5
f 103//6 102//6 104//6
f 104//7 102//7 105//7
f 105//8 102//8 106//8
f 106//9 102//9 107//9
f 107//10 102//10 108//10
f 108//11 102//11 97//11
f 98//12 103//12 107//12
f 109//1 114//1 110//1
f 110//20 114//20 111//20
f 111//3 114//3 112//3
f 112//4 114//4 113//4
f 113//5 114//5 115//5
f 115//6 114//6 116//6
f 116//7 114//7 117//7
f 117//8 114//8 118//8
f 118//9 114//9 119//9
f 119//10 114//10 120//10
f 120//11 114//11 109//11
f 110//12 115//12 119//12
f 121//1 126//1 122//1
f 122//2 126//2 123//2
f 123//16 126//16 124//16
f 124//4 126//4 125//4
f 125//5 126//5 127//5
f 127//6 126//6 128//6
f 128//7 126//7 129//7
f 129//14 126//14 130//14
f 130//9 126//9 131//9
f 131//18 126//18 132//18
f 132//11 126//11 121//11
f 122//12 127//12 131//12
f 133//1 138//1 134//1
f 134//2 138//2 135//2
f 135//3 138//3 136//3
f 136//4 138//4 137//4
f 137//5 138//5 139//5
f 139//6 138//6 140//6
f 140//7 138//7 141//7
f 141//8 138//8 142//8
f 142//19 138//19 143//19
f 143//10 138//10 144//10
f 144//11 138//11 133//11
f 134//12 139//12 143//12
f 145//1 150//1 146//1
f 146//20 150//20 147//20
f 147//3 150//3 148//3
f 148//13 150//13 149//13
f 149//5 150//5 151//5
f 151//6 150//6 152//6
f 152//7 150//7 153//7
f 153//14 150//14 154//14
f 154//19 150//19 155//19
f 155//10 150//10 156//10
f 156//11 150//11 145//11
f 146//12 151//12 155//12
f 157//1 162//1 158//1
f 158//15 162//15 159//15
f 159//3 162//3 160//3
f 160//13 162//13 161//13
f 161//21 162//21 163//21
f 163//6 162//6 164//6
f 164//22 162//22 165//22
f 165//14 162//14 166//14
f 166//9 162//9 167//9
f 167//17 162//17 168//17
f 168//11 162//11 157//11
f 158//12 163//12 167//12
f 169//1 174//1 170//1
f 170//20 174//20 171//20
f 171//3 174//3 172//3
f 172//4 174//4 173//4
f 173//5 174//5 175//5
f 175//6 174//6 176//6
f 176//7 174//7 177//7
f 177//14 174//14 178//14
f 178//19 174//19 179//19
f 179//10 174//10 180//10
f 180//11 174//11 169//11
f 170//12 175//12 179//12
f 12//12 1//12 2//12
f 2//12 3//12 4//12
f 4//12 5//12 7//12
f 7//12 8//12 9//12
f 9//12 10//12 11//12
f 11//12 12//12 2//12
f 2//12 4//12 7//12
f 7//12 9//12 11//12
f 24//12 13//12 14//12
f 14//12 15//12 16//12
f 16//12 17//12 19//12
f 19//12 20//12 21//12
f 21//12 22//12 23//12
f 23//12 24//12 14//12
f 14//12 16//12 19//12
f 19//12 21//12 23//12
f 36//12 25//12 26//12
f 26//12 27//12 28//12
f 28//12 29//12 31//12
f 31//12 32//12 33//12
f 33//12 34//12 35//12
f 35//12 36//12 26//12
f 26//12 28//12 31//12
f 31//12 33//12 35//12
f 48//12 37//12 38//12
f 38//12 39//12 40//12
f 40//12 41//12 43//12
f 43//12 44//12 45//12
f 45//12 46//12 47//12
f 47//12 48//12 38//12
f 38//12 40//12 43//12
f 43//12 45//12 47//12
f 60//12 49//12 50//12
f 50//12 51//12 52//12
f 52//12 53//12 55//12
f 55//12 56//12 57//12
f 57//12 58//12 59//12
f 59//12 60//12 50//12
f 50//12 52//12 55//12
f 55//12 57//12 59//12
f 72//12 61//12 62//12
f 62//12 63//12 64//12
f 64//12 65//12 67//12
f 67//12 68//12 69//12
f 69//12 70//12 71//12
f 71//12 72//12 62//12
f 62//12 64//12 67//12
f 67//12 69//12 71//12
f 84//12 73//12 74//12
f 74//12 75//12 76//12
f 76//12 77//12 79//12
f 79//12 80//12 81//12
f 81//12 82//12 83//12
f 83//12 84//12 74//12
f 74//12 76//12 79//12
f 79//12 81//12 83//12
f 96//12 85//12 86//12
f 86//12 87//12 88//12
f 88//12 89//12 91//12
f 91//12 92//12 93//12
f 93//12 94//12 95//12
f 95//12 96//12 86//12
f 86//12 88//12 91//12
f 91//12 93//12 95//12
f 108//12 97//12 98//12
f 98//12 99//12 100//12
f 100//12 101//12 103//12
f 103//12 104//12 105//12
f 105//12 106//12 107//12
f 107//12 108//12 98//12
f 98//12 100//12 103//12
f 103//12 105//12 107//12
f 120//12 109//12 110//12
f 110//12 111//12 112//12
f 112//12 113//12 115//12
f 115//12 116//12 117//12
f 117//12 118//12 119//12
f 119//12 120//12 110//12
f 110//12 112//12 115//12
f 115//12 117//12 119//12
f 132//12 121//12 122//12
f 122//12 123//12 124//12
f 124//12 125//12 127//12
f 127//12 128//12 129//12
f 129//12 130//12 131//12
f 131//12 132//12 122//12
f 122//12 124//12 127//12
f 127//12 129//12 131//12
f 144//12 133//12 134//12
f 134//12 135//12 136//12
f 136//12 137//12 139//12
f 139//12 140//12 141//12
f 141//12 142//12 143//12
f 143//12 144//12 134//12
f 134//12 136//12 139//12
f 139//12 141//12 143//12
f 156//12 145//12 146//12
f 146//12 147//12 148//12
f 148//12 149//12 151//12
f 151//12 152//12 153//12
f 153//12 154//12 155//12
f 155//12 156//12 146//12
f 146//12 148//12 151//12
f 151//12 153//12 155//12
f 168//12 157//12 158//12
f 158//12 159//12 160//12
f 160//12 161//12 163//12
f 163//12 164//12 165//12
f 165//12 166//12 167//12
f 167//12 168//12 158//12
f 158//12 160//12 163//12
f 163//12 165//12 167//12
f 180//12 169//12 170//12
f 170//12 171//12 172//12
f 172//12 173//12 175//12
f 175//23 176//23 177//23
f 177//12 178//12 179//12
f 179//12 180//12 170//12
f 170//12 172//12 175//12
f 175//12 177//12 179//12
