# Blender 4.1.1
# www.blender.org
mtllib blockSnowRoundedLowLong.mtl
o blockSnowRoundedLowLong
v 0.943301 -0.425000 -0.013397
v 0.925000 -0.443301 -0.013397
v 0.900000 -0.400000 0.000000
v 0.950000 -0.400000 -0.013397
v 0.925000 0.443301 -0.013397
v 0.943301 0.425000 -0.013397
v 0.900000 0.400000 0.000000
v 0.950000 0.400000 -0.013397
v 0.900000 0.450000 -0.013397
v 0.900000 -0.450000 -0.013397
v -0.900000 0.450000 -0.013397
v -0.900000 0.400000 0.000000
v -0.925000 0.443301 -0.013397
v -0.943301 0.425000 -0.013397
v -0.950000 0.400000 -0.013397
v -0.900000 -0.400000 0.000000
v -0.900000 -0.450000 -0.013397
v -0.925000 -0.443301 -0.013397
v -0.943301 -0.425000 -0.013397
v -0.950000 -0.400000 -0.013397
v 0.986602 -0.400000 -0.050000
v 0.986602 0.400000 -0.050000
v 1.000000 -0.400000 -0.100000
v 1.000000 0.400000 -0.100000
v 0.986602 -0.450000 -0.400000
v 0.986602 -0.450000 -0.100000
v 1.000000 -0.400000 -0.400000
v 0.950000 -0.486602 -0.400000
v 0.950000 -0.486602 -0.100000
v 0.900000 -0.500000 -0.100000
v 0.900000 -0.500000 -0.400000
v 0.900000 0.486602 -0.050000
v -0.900000 0.486602 -0.050000
v 0.900000 0.500000 -0.100000
v -0.900000 0.500000 -0.100000
v -0.986602 0.450000 -0.100000
v -0.986602 0.450000 -0.400000
v -0.950000 0.486602 -0.100000
v -0.950000 0.486602 -0.400000
v -1.000000 0.400000 -0.100000
v -1.000000 0.400000 -0.400000
v 0.950000 0.486602 -0.100000
v 0.950000 0.486602 -0.400000
v 0.900000 0.500000 -0.400000
v 1.000000 0.400000 -0.400000
v 0.986602 0.450000 -0.400000
v 0.986602 0.450000 -0.100000
v -0.900000 0.500000 -0.400000
v 0.900000 -0.486602 -0.050000
v -0.900000 -0.486602 -0.050000
v -0.900000 -0.500000 -0.100000
v 0.975000 -0.443301 -0.050000
v 0.943301 -0.475000 -0.050000
v -0.986602 -0.450000 -0.100000
v -0.986602 -0.450000 -0.400000
v -1.000000 -0.400000 -0.100000
v -1.000000 -0.400000 -0.400000
v -0.950000 -0.486602 -0.100000
v -0.950000 -0.486602 -0.400000
v -0.900000 -0.500000 -0.400000
v 0.975000 0.443301 -0.050000
v 0.943301 0.475000 -0.050000
v -0.986602 -0.400000 -0.050000
v -0.986602 0.400000 -0.050000
v -0.943301 0.475000 -0.050000
v -0.975000 0.443301 -0.050000
v -0.943301 -0.475000 -0.050000
v -0.975000 -0.443301 -0.050000
v 0.925000 -0.443301 -0.486602
v 0.943301 -0.425000 -0.486602
v 0.900000 -0.400000 -0.500000
v 0.950000 0.400000 -0.486602
v 0.943301 0.425000 -0.486602
v 0.900000 0.400000 -0.500000
v 0.900000 -0.450000 -0.486602
v 0.925000 0.443301 -0.486602
v 0.950000 -0.400000 -0.486602
v 0.900000 0.450000 -0.486602
v -0.900000 -0.450000 -0.486602
v -0.900000 -0.400000 -0.500000
v -0.925000 -0.443301 -0.486602
v -0.900000 0.400000 -0.500000
v -0.925000 0.443301 -0.486602
v -0.943301 0.425000 -0.486602
v -0.950000 0.400000 -0.486602
v -0.943301 -0.425000 -0.486602
v -0.900000 0.450000 -0.486602
v -0.950000 -0.400000 -0.486602
v 0.986602 -0.400000 -0.450000
v 0.986602 0.400000 -0.450000
v -0.900000 -0.486602 -0.450000
v 0.900000 -0.486602 -0.450000
v -0.986602 -0.400000 -0.450000
v -0.986602 0.400000 -0.450000
v 0.900000 0.486602 -0.450000
v -0.900000 0.486602 -0.450000
v 0.975000 -0.443301 -0.450000
v 0.943301 -0.475000 -0.450000
v 0.975000 0.443301 -0.450000
v 0.943301 0.475000 -0.450000
v -0.975000 -0.443301 -0.450000
v -0.943301 0.475000 -0.450000
v -0.975000 0.443301 -0.450000
v -0.943301 -0.475000 -0.450000
vn 0.1732 -0.1732 0.9695
vn 0.2654 -0.4597 0.8475
vn 0.4597 -0.2654 0.8475
vn 0.5256 -0.1408 0.8390
vn 0.0852 0.2179 0.9722
vn 0.4597 0.2654 0.8475
vn 0.2654 0.4597 0.8475
vn 0.5140 0.0698 0.8550
vn 0.0698 0.5140 0.8550
vn 0.1408 -0.5256 0.8390
vn -0.2654 0.4597 0.8475
vn -0.1453 0.1453 0.9787
vn -0.0698 0.5140 0.8550
vn -0.5140 0.0698 0.8550
vn -0.4597 0.2654 0.8475
vn -0.2654 -0.4597 0.8475
vn -0.0698 -0.5140 0.8550
vn -0.1453 -0.1453 0.9787
vn -0.4597 -0.2654 0.8475
vn -0.5140 -0.0698 0.8550
vn 0.8653 0.1129 0.4884
vn 0.5000 -0.0000 0.8660
vn 0.8660 -0.0000 0.5000
vn 0.5141 0.0698 0.8549
vn 0.9703 0.1711 0.1712
vn 0.8661 -0.0000 0.5000
vn 0.9659 -0.0000 0.2588
vn 0.8653 0.1129 0.4883
vn 0.9703 -0.1712 -0.1711
vn 0.8661 -0.5000 -0.0000
vn 0.8589 -0.4959 -0.1278
vn 0.9659 -0.2588 -0.0000
vn 0.5000 -0.8660 -0.0000
vn 0.4959 -0.8589 -0.1278
vn 0.8660 -0.5000 -0.0000
vn 0.1712 -0.9703 -0.1711
vn 0.5000 -0.8661 -0.0000
vn 0.2588 -0.9659 -0.0000
vn 0.2588 -0.0000 0.9659
vn 0.5000 -0.0000 0.8661
vn 0.1711 0.9703 0.1712
vn -0.1129 0.8653 0.4883
vn 0.1129 0.8653 0.4883
vn -0.1711 0.9703 0.1712
vn -0.4959 0.8589 0.1278
vn -0.8589 0.4959 -0.1278
vn -0.8589 0.4959 0.1278
vn -0.4959 0.8589 -0.1278
vn -0.9703 0.1712 -0.1711
vn -0.9703 0.1712 0.1711
vn -0.8589 0.4958 0.1278
vn -0.1454 -0.1453 0.9787
vn 0.4959 0.8589 -0.1278
vn 0.1712 0.9703 0.1711
vn 0.4959 0.8589 0.1278
vn 0.1712 0.9703 -0.1711
vn 0.8589 0.4959 -0.1278
vn 0.9703 0.1712 0.1711
vn 0.9703 0.1712 -0.1711
vn 0.8589 0.4958 -0.1278
vn 0.8589 0.4959 0.1278
vn -0.1129 0.8653 0.4884
vn 0.0698 0.5141 0.8549
vn 0.1129 0.8653 0.4884
vn 0.0698 0.5140 0.8549
vn -0.0698 0.5141 0.8549
vn -0.1712 0.9703 -0.1711
vn -0.1712 0.9703 0.1711
vn -0.0698 -0.5140 0.8549
vn 0.1129 -0.8653 0.4884
vn -0.0000 -0.5000 0.8660
vn -0.0698 -0.5141 0.8549
vn -0.1129 -0.8653 0.4884
vn -0.1711 -0.9703 0.1712
vn 0.1129 -0.8653 0.4883
vn -0.1129 -0.8653 0.4883
vn 0.1235 -0.9585 0.2568
vn 0.4598 -0.2655 0.8474
vn 0.4380 -0.7586 0.4824
vn 0.7586 -0.4380 0.4824
vn 0.2655 -0.4598 0.8474
vn 0.9351 -0.2506 0.2506
vn 0.7586 -0.4380 0.4823
vn 0.8365 -0.4829 0.2588
vn 0.8528 -0.2285 0.4696
vn -0.9703 -0.1712 0.1711
vn -0.8589 -0.4958 -0.1278
vn -0.8589 -0.4959 0.1278
vn -0.8589 -0.4959 -0.1278
vn -0.9703 -0.1712 -0.1711
vn 0.1409 -0.5256 0.8390
vn -0.4959 -0.8589 -0.1278
vn -0.1712 -0.9703 0.1711
vn -0.4959 -0.8589 0.1278
vn -0.1712 -0.9703 -0.1711
vn 0.8365 -0.4830 0.2588
vn 0.4380 -0.7586 0.4823
vn 0.4830 -0.8365 0.2588
vn 0.4598 -0.2654 0.8474
vn 0.7586 0.4380 0.4824
vn 0.5140 0.0698 0.8549
vn 0.4598 0.2655 0.8474
vn 0.4380 0.7586 0.4824
vn 0.7586 0.4380 0.4823
vn 0.2655 0.4598 0.8474
vn -0.5141 0.0698 0.8549
vn -0.8653 -0.1129 0.4884
vn -0.5141 -0.0698 0.8549
vn -0.5140 0.0698 0.8549
vn -0.8653 0.1129 0.4884
vn 0.1236 -0.9585 0.2568
vn 0.4829 -0.8365 0.2588
vn -0.1453 -0.1454 0.9787
vn -0.0000 -0.5000 0.8661
vn -0.0000 -0.2588 0.9659
vn 0.4380 0.7586 0.4823
vn -0.8653 0.1129 0.4883
vn -0.9703 -0.1711 0.1712
vn -0.8653 -0.1129 0.4883
vn -0.9703 0.1711 0.1712
vn 0.8589 0.4960 0.1278
vn 0.4959 0.8589 0.1279
vn 0.4958 0.8589 0.1278
vn 0.1712 0.9703 0.1712
vn 0.8589 0.4959 0.1279
vn 0.9703 0.1712 0.1712
vn 0.8589 0.4958 0.1279
vn -0.4380 0.7586 0.4824
vn -0.4598 0.2655 0.8474
vn -0.2655 0.4598 0.8474
vn -0.7586 0.4380 0.4824
vn -0.0698 0.5140 0.8549
vn -0.4958 -0.8590 0.1278
vn -0.4380 -0.7586 0.4823
vn -0.4958 -0.8589 0.1278
vn -0.1712 -0.9703 0.1712
vn -0.4598 -0.2655 0.8474
vn -0.4380 -0.7586 0.4824
vn -0.2655 -0.4598 0.8474
vn -0.7586 -0.4380 0.4823
vn -0.4380 0.7586 0.4823
vn -0.8589 0.4959 0.1279
vn -0.7586 0.4380 0.4823
vn -0.4598 0.2654 0.8474
vn -0.1712 0.9703 0.1712
vn -0.4959 0.8589 0.1279
vn -0.9703 0.1712 0.1712
vn -0.7586 -0.4380 0.4824
vn -0.4598 -0.2654 0.8474
vn -0.5140 -0.0698 0.8549
vn -0.2654 -0.4598 0.8474
vn -0.4959 -0.8589 0.1279
vn -0.8589 -0.4960 0.1278
vn -0.9703 -0.1712 0.1712
vn -0.8589 -0.4959 0.1279
vn 1.0000 -0.0000 -0.0000
vn -1.0000 -0.0000 -0.0000
vn -0.0000 1.0000 -0.0000
vn -0.0000 -0.0000 1.0000
vn -0.0000 -1.0000 -0.0000
vn 0.1453 -0.1453 -0.9787
vn 0.4597 -0.2654 -0.8475
vn 0.2654 -0.4597 -0.8475
vn 0.1453 0.1453 -0.9787
vn 0.4597 0.2654 -0.8475
vn 0.5140 0.0698 -0.8550
vn 0.0698 -0.5140 -0.8550
vn 0.2654 0.4597 -0.8475
vn 0.5140 -0.0698 -0.8550
vn 0.0698 0.5140 -0.8550
vn -0.2654 -0.4597 -0.8475
vn -0.1453 -0.1453 -0.9787
vn -0.0698 -0.5140 -0.8550
vn -0.4597 0.2654 -0.8475
vn -0.2654 0.4597 -0.8475
vn -0.1453 0.1453 -0.9787
vn -0.5140 0.0698 -0.8550
vn -0.4597 -0.2654 -0.8475
vn -0.0698 0.5140 -0.8550
vn -0.5140 -0.0698 -0.8550
vn 0.8653 0.1129 -0.4883
vn 0.9703 -0.1711 -0.1712
vn 0.8653 -0.1129 -0.4883
vn 0.9703 0.1711 -0.1712
vn 0.5141 0.0698 -0.8549
vn 0.8653 -0.1129 -0.4884
vn 0.5141 -0.0698 -0.8549
vn 0.5140 0.0698 -0.8549
vn 0.8653 0.1129 -0.4884
vn -0.1453 0.1454 -0.9787
vn 0.1453 0.1454 -0.9787
vn -0.0698 -0.5141 -0.8549
vn 0.1129 -0.8653 -0.4884
vn -0.1129 -0.8653 -0.4884
vn -0.0698 -0.5140 -0.8549
vn 0.0698 -0.5140 -0.8549
vn 0.1453 -0.1454 -0.9787
vn -0.1453 -0.1454 -0.9787
vn -0.1129 -0.8653 -0.4883
vn 0.1711 -0.9703 -0.1712
vn -0.1711 -0.9703 -0.1712
vn 0.1129 -0.8653 -0.4883
vn -0.8653 0.1129 -0.4884
vn -0.5140 -0.0698 -0.8549
vn -0.8653 -0.1129 -0.4884
vn -0.5141 -0.0698 -0.8549
vn -0.5141 0.0698 -0.8549
vn 0.1129 0.8653 -0.4883
vn -0.1711 0.9703 -0.1712
vn 0.1711 0.9703 -0.1712
vn -0.1129 0.8653 -0.4883
vn 0.0698 0.5141 -0.8549
vn -0.1129 0.8653 -0.4884
vn 0.1129 0.8653 -0.4884
vn 0.0698 0.5140 -0.8549
vn -0.0698 0.5140 -0.8549
vn -0.9703 0.1711 -0.1712
vn -0.8653 -0.1129 -0.4883
vn -0.9703 -0.1711 -0.1712
vn -0.8653 0.1129 -0.4883
vn 0.4380 -0.7586 -0.4824
vn 0.4598 -0.2655 -0.8474
vn 0.7586 -0.4380 -0.4824
vn 0.2655 -0.4598 -0.8474
vn 0.4380 -0.7586 -0.4823
vn 0.4959 -0.8589 -0.1279
vn 0.8589 -0.4960 -0.1278
vn 0.7586 -0.4380 -0.4823
vn 0.4598 -0.2654 -0.8474
vn 0.5140 -0.0698 -0.8549
vn 0.0698 -0.5141 -0.8549
vn 0.4958 -0.8589 -0.1278
vn 0.1712 -0.9703 -0.1712
vn 0.4598 0.2655 -0.8474
vn 0.4598 0.2654 -0.8474
vn 0.7586 0.4380 -0.4824
vn 0.4380 0.7586 -0.4824
vn 0.2655 0.4598 -0.8474
vn 0.9703 -0.1712 -0.1712
vn 0.8589 -0.4959 -0.1279
vn 0.7586 0.4380 -0.4823
vn 0.9703 0.1712 -0.1712
vn 0.4380 0.7586 -0.4823
vn 0.1712 0.9703 -0.1712
vn 0.4959 0.8589 -0.1279
vn -0.9703 -0.1712 -0.1712
vn -0.7586 -0.4380 -0.4823
vn -0.2655 0.4598 -0.8474
vn -0.2654 0.4598 -0.8474
vn -0.4380 0.7586 -0.4823
vn -0.4598 0.2655 -0.8474
vn -0.4380 0.7586 -0.4824
vn -0.7586 0.4380 -0.4824
vn 0.8589 0.4959 -0.1279
vn -0.4380 -0.7586 -0.4824
vn -0.4598 -0.2655 -0.8474
vn -0.2655 -0.4598 -0.8474
vn -0.7586 -0.4380 -0.4824
vn -0.5140 0.0698 -0.8549
vn -0.4958 0.8589 -0.1278
vn -0.1712 0.9703 -0.1712
vn 0.2654 0.4598 -0.8474
vn -0.8589 -0.4959 -0.1279
vn -0.4380 -0.7586 -0.4823
vn -0.1712 -0.9703 -0.1712
vn -0.4959 -0.8589 -0.1279
vn -0.4598 -0.2654 -0.8474
vn -0.8589 0.4960 -0.1278
vn -0.7586 0.4380 -0.4823
vn -0.4959 0.8589 -0.1279
vn -0.8589 0.4959 -0.1279
vn -0.9703 0.1712 -0.1712
vn -0.8589 0.4958 -0.1279
vn -0.0000 -0.0000 -1.0000
vt -13.919430 34.873581
vt -13.409940 36.846809
vt -14.428910 36.846809
vt 6.040677 36.907871
vt 6.550163 38.881100
vt 5.531190 38.881100
vt 13.919430 34.873581
vt 14.428910 36.846809
vt 13.409940 36.846809
vt -6.040677 36.907871
vt -5.531190 38.881100
vt -6.550163 38.881100
vt 30.149830 23.494949
vt 30.659309 25.468180
vt 29.640341 25.468180
vt -29.640341 25.468180
vt -30.659309 25.468180
vt -30.149830 23.494949
vt -15.748030 28.857821
vt 15.748030 26.819880
vt 15.748030 28.857821
vt -15.748030 26.819880
vt -15.748030 13.992580
vt 15.748030 11.954640
vt 15.748030 13.992580
vt -15.748030 11.954640
vt 5.021704 15.748030
vt 7.059649 3.937008
vt 7.059649 15.748030
vt 5.021704 3.937008
vt -14.938400 15.748030
vt -12.900450 3.937008
vt -12.900450 15.748030
vt -14.938400 3.937008
vt -29.130859 15.748030
vt -31.168800 3.937008
vt -29.130859 3.937008
vt -31.168800 15.748030
vt -15.748030 34.225719
vt 15.748030 36.263660
vt -15.748030 36.263660
vt 15.748030 34.225719
vt 35.433071 8.897720
vt -35.433071 6.859776
vt 35.433071 6.859776
vt -35.433071 8.897720
vt 31.168800 15.748030
vt 29.130859 3.937008
vt 31.168800 3.937008
vt 29.130859 15.748030
vt -7.059649 15.748030
vt -5.021704 3.937008
vt -5.021704 15.748030
vt -7.059649 3.937008
vt -35.433071 17.249380
vt 35.433071 15.211430
vt 35.433071 17.249380
vt -35.433071 15.211430
vt -35.433071 14.938400
vt 35.433071 12.900450
vt 35.433071 14.938400
vt -35.433071 12.900450
vt 12.900450 15.748030
vt 14.938400 3.937008
vt 14.938400 15.748030
vt 12.900450 3.937008
vt -14.428910 26.843620
vt -13.036970 28.847139
vt -14.801880 28.847139
vt -13.409940 26.843620
vt 5.021704 14.361230
vt 6.923133 12.327860
vt 7.059649 14.361230
vt 5.158221 12.327860
vt -30.659309 18.639830
vt -29.267370 20.643351
vt -31.032280 20.643351
vt -29.640341 18.639830
vt -14.938400 13.832270
vt -13.036970 11.798900
vt -12.900450 13.832270
vt -14.801880 11.798900
vt 5.158221 30.313829
vt 6.550163 28.310301
vt 6.923133 30.313829
vt 5.531190 28.310301
vt -6.923133 30.313829
vt -5.531190 28.310301
vt -5.158221 30.313829
vt -6.550163 28.310301
vt 13.036970 28.847139
vt 14.428910 26.843620
vt 14.801880 28.847139
vt 13.409940 26.843620
vt -29.130859 10.873540
vt -31.032280 8.840174
vt -29.267370 8.840174
vt -31.168800 10.873540
vt 31.032280 20.643351
vt 29.640341 18.639830
vt 30.659309 18.639830
vt 29.267370 20.643351
vt 14.938400 13.832270
vt 13.036970 11.798900
vt 14.801880 11.798900
vt 12.900450 13.832270
vt 31.168800 10.873540
vt 29.267370 8.840174
vt 31.032280 8.840174
vt 29.130859 10.873540
vt -7.059649 14.361230
vt -5.158221 12.327860
vt -5.021704 14.361230
vt -6.923133 12.327860
vt -15.748030 15.748030
vt 15.748030 3.937008
vt 15.748030 15.748030
vt -15.748030 3.937008
vt 35.433071 15.748030
vt -35.433071 3.937008
vt 35.433071 3.937008
vt -35.433071 15.748030
vt 35.433071 -15.748030
vt -35.433071 -15.748030
vt -13.919430 -29.611629
vt -14.428910 -31.584860
vt -13.409940 -31.584860
vt -6.040677 -31.645910
vt -6.550163 -33.619141
vt -5.531190 -33.619141
vt -30.149830 -18.233000
vt -30.659309 -20.206230
vt -29.640341 -20.206230
vt 13.919430 -29.611629
vt 13.409940 -31.584860
vt 14.428910 -31.584860
vt 6.040677 -31.645910
vt 5.531190 -33.619141
vt 6.550163 -33.619141
vt 29.640341 -20.206230
vt 30.659309 -20.206230
vt 30.149830 -18.233000
vt -15.748030 7.059649
vt 15.748030 5.021704
vt 15.748030 7.059649
vt -15.748030 5.021704
vt 15.748030 -29.130859
vt -15.748030 -31.168800
vt 15.748030 -31.168800
vt -15.748030 -29.130859
vt -15.748030 -12.900450
vt 15.748030 -14.938400
vt 15.748030 -12.900450
vt -15.748030 -14.938400
vt -35.433071 -10.116570
vt 35.433071 -12.154510
vt 35.433071 -10.116570
vt -35.433071 -12.154510
vt 35.433071 1.018973
vt -35.433071 -1.018973
vt 35.433071 -1.018973
vt -35.433071 1.018973
vt 35.433071 12.154510
vt -35.433071 10.116570
vt 35.433071 10.116570
vt -35.433071 12.154510
vt -13.036970 -14.688590
vt -14.428910 -12.685060
vt -14.801880 -14.688590
vt -13.409940 -12.685060
vt -13.036970 7.258193
vt -14.938400 5.224826
vt -12.900450 5.224826
vt -14.801880 7.258193
vt 6.550163 -14.151750
vt 5.158221 -16.155270
vt 6.923133 -16.155270
vt 5.531190 -14.151750
vt -29.640341 -4.481273
vt -31.032280 -6.484798
vt -29.267370 -6.484798
vt -30.659309 -4.481273
vt -29.267370 10.216920
vt -31.168800 8.183552
vt -29.130859 8.183552
vt -31.032280 10.216920
vt -6.550163 -14.151750
vt -5.158221 -16.155270
vt -5.531190 -14.151750
vt -6.923133 -16.155270
vt 14.428910 -12.685060
vt 13.036970 -14.688590
vt 14.801880 -14.688590
vt 13.409940 -12.685060
vt 6.923133 6.729229
vt 5.021704 4.695861
vt 7.059649 4.695861
vt 5.158221 6.729229
vt -6.923133 6.729229
vt -5.021704 4.695861
vt -5.158221 6.729229
vt -7.059649 4.695861
vt 31.032280 10.216920
vt 29.130859 8.183552
vt 31.168800 8.183552
vt 29.267370 10.216920
vt 13.036970 7.258193
vt 14.938400 5.224826
vt 14.801880 7.258193
vt 12.900450 5.224826
vt 30.659309 -4.481273
vt 29.267370 -6.484798
vt 31.032280 -6.484798
vt 29.640341 -4.481273
s 0
usemtl dirt.028
f 3/1/1 2/2/2 1/3/3
f 3/4/1 1/5/3 4/6/4
f 7/7/5 6/8/6 5/9/7
f 7/10/5 8/11/8 6/12/6
f 7/13/5 5/14/7 9/15/9
f 10/16/10 2/17/2 3/18/1
f 13/17/11 12/18/12 11/16/13
f 15/6/14 12/4/12 14/5/15
f 14/3/15 12/1/12 13/2/11
f 18/14/16 17/15/17 16/13/18
f 19/8/19 18/9/16 16/7/18
f 20/11/20 19/12/19 16/10/18
f 22/19/21 4/20/22 21/21/23
f 4/20/22 22/19/21 8/22/24
f 24/23/25 21/24/26 23/25/27
f 21/24/26 24/23/25 22/26/28
f 27/27/29 26/28/30 25/29/31
f 26/28/30 27/27/29 23/30/32
f 25/31/31 29/32/33 28/33/34
f 29/32/33 25/31/31 26/34/35
f 31/35/36 29/36/37 30/37/38
f 29/36/37 31/35/36 28/38/34
f 7/39/39 4/40/40 8/41/8
f 4/40/40 7/39/39 3/42/39
f 34/43/41 33/44/42 32/45/43
f 33/44/42 34/43/41 35/46/44
f 38/32/45 37/31/46 36/34/47
f 37/31/46 38/32/45 39/33/48
f 36/28/47 41/27/49 40/30/50
f 41/27/49 36/28/51 37/29/46
f 15/40/14 16/39/52 12/42/12
f 16/39/18 15/40/14 20/41/20
f 43/47/53 34/48/54 42/49/55
f 34/48/54 43/47/53 44/50/56
f 46/51/57 24/52/58 45/53/59
f 24/52/58 46/51/60 47/54/61
f 11/55/13 7/56/5 9/57/9
f 7/56/5 11/55/13 12/58/12
f 33/59/62 9/60/63 32/61/64
f 9/60/65 33/59/62 11/62/66
f 43/63/53 47/64/61 46/65/57
f 47/64/61 43/63/53 42/66/55
f 48/35/67 38/36/45 35/37/68
f 38/36/45 48/35/67 39/38/48
f 17/60/69 49/59/70 10/62/71
f 49/59/70 17/60/72 50/61/73
f 51/43/74 49/44/75 50/45/76
f 49/44/75 51/43/74 30/46/77
f 1/67/78 53/68/79 52/69/80
f 53/68/79 1/67/78 2/70/81
f 23/71/82 52/72/83 26/73/84
f 52/72/83 23/71/82 21/74/85
f 56/52/86 55/51/87 54/54/88
f 55/51/89 56/52/86 57/53/90
f 2/75/81 49/76/70 53/77/79
f 49/76/70 2/75/81 10/78/91
f 59/47/92 51/48/93 58/49/94
f 51/48/93 59/47/92 60/50/95
f 26/79/96 53/80/97 29/81/98
f 53/80/97 26/79/96 52/82/83
f 21/83/85 1/84/99 52/85/83
f 1/84/78 21/83/85 4/86/4
f 61/87/100 8/88/101 22/89/21
f 8/88/101 61/87/100 6/90/102
f 62/91/103 6/92/102 61/93/104
f 6/92/102 62/91/103 5/94/105
f 15/20/106 63/19/107 20/22/108
f 63/19/107 15/20/109 64/21/110
f 54/64/88 59/63/92 58/66/94
f 59/63/92 54/64/88 55/65/89
f 30/95/111 53/96/97 49/97/75
f 53/96/97 30/95/111 29/98/112
f 16/56/113 10/55/114 3/58/115
f 10/55/114 16/56/18 17/57/17
f 62/99/103 9/100/63 5/101/105
f 9/100/63 62/99/116 32/102/64
f 64/24/117 56/23/118 63/26/119
f 56/23/118 64/24/117 40/25/120
f 47/103/121 62/104/116 61/105/104
f 62/104/116 47/103/61 42/106/122
f 42/107/123 32/108/43 62/109/116
f 32/108/43 42/107/123 34/110/124
f 47/111/125 22/112/28 24/113/126
f 22/112/28 47/111/127 61/114/104
f 65/68/128 14/67/129 13/70/130
f 14/67/129 65/68/128 66/69/131
f 65/77/128 11/78/132 33/76/62
f 11/78/66 65/77/128 13/75/130
f 58/107/133 50/108/76 67/109/134
f 50/108/76 58/107/135 51/110/136
f 19/92/137 67/91/138 18/94/139
f 67/91/138 19/92/137 68/93/140
f 65/80/141 36/79/142 66/82/143
f 36/79/142 65/80/141 38/81/45
f 14/84/129 64/83/110 15/86/109
f 64/83/110 14/84/144 66/85/143
f 35/95/145 65/96/141 33/97/42
f 65/96/141 35/95/145 38/98/146
f 66/72/143 40/71/147 64/74/117
f 40/71/147 66/72/143 36/73/51
f 19/90/137 63/89/107 68/87/148
f 63/89/107 19/90/149 20/88/150
f 18/101/139 50/102/73 17/100/69
f 50/102/73 18/101/151 67/99/134
f 67/104/134 54/103/88 58/106/152
f 54/103/153 67/104/134 68/105/140
f 68/114/140 56/113/154 54/111/155
f 56/113/154 68/114/140 63/112/119
f 45/115/156 23/116/156 27/117/156
f 23/116/156 45/115/156 24/118/156
f 40/116/157 57/115/157 56/118/157
f 57/115/157 40/116/157 41/117/157
f 44/119/158 35/120/158 34/121/158
f 35/120/158 44/119/158 48/122/158
f 12/122/159 3/123/159 7/119/159
f 3/123/159 12/122/159 16/124/159
f 60/119/160 30/120/160 51/121/160
f 30/120/160 60/119/160 31/122/160
usemtl snow.016
f 71/125/161 70/126/162 69/127/163
f 74/128/164 73/129/165 72/130/166
f 71/131/161 69/132/163 75/133/167
f 74/134/164 76/135/168 73/136/165
f 71/137/161 77/138/169 70/139/162
f 78/140/170 76/141/168 74/142/164
f 81/141/171 80/142/172 79/140/173
f 84/126/174 83/127/175 82/125/176
f 85/138/177 84/139/174 82/137/176
f 86/136/178 80/134/172 81/135/171
f 83/132/175 87/133/179 82/131/176
f 88/130/180 80/128/172 86/129/178
f 90/143/181 27/144/182 89/145/183
f 27/144/182 90/143/181 45/146/184
f 71/147/161 72/148/166 77/149/169
f 72/148/166 71/147/161 74/150/164
f 72/151/185 89/152/186 77/153/187
f 89/152/186 72/151/188 90/154/189
f 82/155/190 78/156/170 74/157/191
f 78/156/170 82/155/176 87/158/179
f 88/148/180 82/147/176 80/150/172
f 82/147/176 88/148/180 85/149/177
f 79/159/192 92/160/193 91/161/194
f 92/160/193 79/159/195 75/162/196
f 79/156/173 71/155/161 75/158/167
f 71/155/197 79/156/173 80/157/198
f 91/163/199 31/164/200 60/165/201
f 31/164/200 91/163/199 92/166/202
f 94/152/203 88/151/204 93/154/205
f 88/151/206 94/152/203 85/153/207
f 95/163/208 48/164/209 44/165/210
f 48/164/209 95/163/208 96/166/211
f 78/159/212 96/160/213 95/161/214
f 96/160/213 78/159/215 87/162/216
f 41/144/217 93/143/218 57/146/219
f 93/143/218 41/144/217 94/145/220
f 98/167/221 70/168/222 97/169/223
f 70/168/222 98/167/221 69/170/224
f 98/171/225 25/172/31 28/173/226
f 25/172/227 98/171/225 97/174/228
f 70/175/222 89/176/186 97/177/223
f 89/176/186 70/175/229 77/178/230
f 75/179/196 98/180/221 92/181/193
f 98/180/221 75/179/231 69/182/224
f 92/183/202 28/184/232 31/185/233
f 28/184/232 92/183/202 98/186/225
f 73/187/234 90/188/189 72/189/188
f 90/188/189 73/187/235 99/190/236
f 73/191/234 100/192/237 99/193/236
f 100/192/237 73/191/234 76/194/238
f 97/195/228 27/196/239 25/197/240
f 27/196/239 97/195/228 89/198/183
f 99/199/241 45/200/242 90/201/181
f 45/200/242 99/199/241 46/202/60
f 100/203/243 44/204/244 43/205/245
f 44/204/244 100/203/243 95/206/208
f 57/200/246 101/199/247 55/202/87
f 101/199/247 57/200/246 93/201/218
f 83/182/248 96/181/213 87/179/216
f 96/181/213 83/182/249 102/180/250
f 84/168/251 102/167/252 83/170/248
f 102/167/252 84/168/251 103/169/253
f 100/207/243 46/208/254 99/209/241
f 46/208/254 100/207/243 43/210/53
f 104/192/255 86/191/256 81/194/257
f 86/191/256 104/192/255 101/193/258
f 103/177/253 85/178/259 94/176/203
f 85/178/259 103/177/253 84/175/251
f 96/183/211 39/184/260 48/185/261
f 39/184/260 96/183/211 102/186/250
f 76/211/238 95/212/214 100/213/237
f 95/212/214 76/211/262 78/214/215
f 55/208/263 104/207/264 59/210/92
f 104/207/264 55/208/263 101/209/247
f 104/213/255 79/214/195 91/212/194
f 79/214/192 104/213/255 81/211/257
f 104/203/264 60/204/265 59/205/266
f 60/204/265 104/203/264 91/206/199
f 93/188/205 86/187/267 101/190/258
f 86/187/256 93/188/205 88/189/204
f 37/172/268 102/171/250 103/174/269
f 102/171/250 37/172/46 39/173/270
f 37/197/271 94/198/220 41/196/272
f 94/198/220 37/197/273 103/195/269
f 80/123/274 74/122/274 71/124/274
f 74/122/274 80/123/274 82/119/274
