# Blender 4.1.1
# www.blender.org
mtllib blockSnowCliff.mtl
o blockSnowCliff.003
v -0.500000 0.591514 -0.841493
v -0.591514 0.500000 -0.841493
v -0.500000 0.500000 -1.000000
v -0.591514 -0.500000 -0.841493
v -0.500000 -0.591514 -0.841493
v -0.500000 -0.500000 -1.000000
v 0.500000 -0.591514 -0.841493
v 0.591514 -0.500000 -0.841493
v 0.500000 -0.500000 -1.000000
v 0.500000 0.500000 -1.000000
v 0.591514 0.500000 -0.841493
v 0.500000 0.591514 -0.841493
v 0.250000 0.616514 -0.798192
v 0.207262 0.615811 -0.799410
v 0.292738 0.615811 -0.799410
v 0.335291 0.613704 -0.803059
v 0.164709 0.613704 -0.803059
v 0.377476 0.610203 -0.809123
v 0.122524 0.610203 -0.809123
v 0.419108 0.605322 -0.817577
v 0.080892 0.605322 -0.817577
v 0.460008 0.599084 -0.828382
v 0.039992 0.599084 -0.828382
v -0.039992 0.583944 -0.854604
v -0.080892 0.577706 -0.865410
v -0.122524 0.572825 -0.873863
v -0.164709 0.569324 -0.879927
v -0.207262 0.567217 -0.883576
v -0.250000 0.566514 -0.884794
v -0.292738 0.567217 -0.883576
v -0.335291 0.569324 -0.879927
v -0.377476 0.572825 -0.873863
v -0.419108 0.577706 -0.865410
v -0.460008 0.583944 -0.854604
v -0.250000 -0.616514 -0.798192
v -0.207262 -0.615811 -0.799410
v -0.292738 -0.615811 -0.799410
v -0.335291 -0.613704 -0.803059
v -0.164709 -0.613704 -0.803059
v -0.377476 -0.610203 -0.809123
v -0.122524 -0.610203 -0.809123
v -0.419108 -0.605322 -0.817577
v -0.080892 -0.605322 -0.817577
v -0.460008 -0.599084 -0.828382
v -0.039992 -0.599084 -0.828382
v 0.039992 -0.583944 -0.854604
v 0.080892 -0.577706 -0.865410
v 0.122524 -0.572825 -0.873863
v 0.164709 -0.569324 -0.879927
v 0.207262 -0.567217 -0.883576
v 0.250000 -0.566514 -0.884794
v 0.292738 -0.567217 -0.883576
v 0.335291 -0.569324 -0.879927
v 0.377476 -0.572825 -0.873863
v 0.419108 -0.577706 -0.865410
v 0.460008 -0.583944 -0.854604
v 0.599084 -0.460008 -0.828382
v 0.605322 -0.419108 -0.817577
v 0.610203 -0.377476 -0.809123
v 0.613704 -0.335291 -0.803059
v 0.615811 -0.292738 -0.799410
v 0.616514 -0.250000 -0.798192
v 0.615811 -0.207262 -0.799410
v 0.613704 -0.164709 -0.803059
v 0.610203 -0.122524 -0.809123
v 0.605322 -0.080892 -0.817577
v 0.583944 0.039992 -0.854604
v 0.599084 -0.039992 -0.828382
v 0.577706 0.080892 -0.865410
v 0.572825 0.122524 -0.873863
v 0.569324 0.164709 -0.879927
v 0.567217 0.207262 -0.883576
v 0.566514 0.250000 -0.884794
v 0.567217 0.292738 -0.883576
v 0.569324 0.335291 -0.879927
v 0.572825 0.377476 -0.873863
v 0.577706 0.419108 -0.865410
v 0.583944 0.460008 -0.854604
v -0.583944 -0.460008 -0.854604
v -0.577706 -0.419108 -0.865410
v -0.572825 -0.377476 -0.873863
v -0.569324 -0.335291 -0.879927
v -0.567217 -0.292738 -0.883576
v -0.566514 -0.250000 -0.884794
v -0.567217 -0.207262 -0.883576
v -0.569324 -0.164709 -0.879927
v -0.572825 -0.122524 -0.873863
v -0.577706 -0.080892 -0.865410
v -0.583944 -0.039992 -0.854604
v -0.591514 -0.000000 -0.841493
v -0.599084 0.039992 -0.828382
v -0.605322 0.080892 -0.817577
v -0.610203 0.122524 -0.809123
v -0.613704 0.164709 -0.803059
v -0.615811 0.207262 -0.799410
v -0.616514 0.250000 -0.798192
v -0.615811 0.292738 -0.799410
v -0.613704 0.335291 -0.803059
v -0.610203 0.377476 -0.809123
v -0.605322 0.419108 -0.817577
v -0.599084 0.460008 -0.828382
v 0.500000 -0.000000 -0.250000
v 0.500000 -0.500000 0.000000
v -0.500000 -0.000000 -0.250000
v -0.500000 -0.500000 0.000000
vn -0.6547 0.6547 -0.3780
vn 0.6547 -0.6547 0.3780
vn -0.6547 -0.6547 -0.3780
vn 0.6547 0.6547 0.3780
vn 0.6547 -0.6547 -0.3780
vn -0.6547 0.6547 0.3780
vn 0.6547 0.6547 -0.3780
vn -0.6547 -0.6547 0.3780
vn -0.0000 0.8660 -0.5001
vn -0.0000 0.8660 -0.5000
vn -0.0000 -0.8660 0.5000
vn -0.0000 -0.8661 -0.4999
vn -0.0000 -0.8660 -0.5000
vn -0.0000 0.8661 0.4999
vn -0.0000 0.8660 0.5000
vn 0.8660 -0.0000 -0.5000
vn 0.8661 -0.0000 -0.4999
vn 0.8659 -0.0001 -0.5002
vn -0.8660 -0.0000 0.5000
vn -0.8661 -0.0000 0.4999
vn -0.8659 0.0001 0.5002
vn -0.0000 -0.0000 -1.0000
vn -0.8660 -0.0000 -0.5000
vn 0.8660 -0.0000 0.5000
vn -0.0000 0.4472 0.8944
vn 1.0000 -0.0000 -0.0000
vn -0.0000 -1.0000 -0.0000
vn -1.0000 -0.0000 -0.0000
vn -0.0000 0.8321 0.5547
vt -0.000001 25.927509
vt -2.547645 19.187080
vt 2.547644 19.187080
vt 0.000005 25.927509
vt -2.547640 19.187080
vt 2.547650 19.187080
vt 0.000000 25.927521
vt -2.547644 19.187080
vt -2.547647 19.187080
vt 2.547643 19.187080
vt -0.000002 25.927509
vt 11.525130 15.134020
vt 8.159913 15.134020
vt 9.842519 15.078640
vt 13.200440 15.299900
vt 6.484590 15.299900
vt 14.861240 15.575590
vt 4.823799 15.575590
vt 16.500311 15.959880
vt 3.184728 15.959880
vt 18.110559 16.451099
vt 1.574472 16.451099
vt 19.685040 17.047140
vt -1.574473 17.643181
vt 19.685040 24.252970
vt -3.184729 18.134411
vt -4.823800 18.518700
vt -6.484591 18.794380
vt -8.159914 18.960270
vt -9.842521 19.015650
vt -19.685040 24.252970
vt -11.525130 18.960270
vt -13.200450 18.794380
vt -14.861240 18.518700
vt -16.500311 18.134411
vt -18.110571 17.643181
vt -19.685040 17.047140
vt 11.525130 15.133990
vt 8.159918 15.133990
vt 9.842525 15.078620
vt 13.200450 15.299880
vt 6.484595 15.299880
vt 14.861240 15.575570
vt 4.823804 15.575560
vt 16.500311 15.959860
vt 3.184733 15.959860
vt 18.110571 16.451080
vt 1.574477 16.451080
vt 19.685040 17.047119
vt -1.574468 17.643169
vt 19.685040 24.252951
vt -3.184724 18.134380
vt -4.823795 18.518681
vt -6.484586 18.794359
vt -8.159909 18.960251
vt -9.842516 19.015631
vt -19.685040 24.252951
vt -11.525120 18.960251
vt -13.200440 18.794359
vt -14.861240 18.518681
vt -16.500311 18.134380
vt -18.110559 17.643169
vt -19.685040 17.047119
vt -19.685040 -19.685040
vt 19.685040 19.685040
vt -19.685040 19.685040
vt 19.685040 -19.685040
vt -18.110559 17.643181
vt -4.823800 18.518690
vt -0.000001 17.047140
vt 1.574471 16.451099
vt 3.184727 15.959880
vt 4.823798 15.575590
vt 8.159912 15.134020
vt 11.525120 15.134020
vt 13.200450 15.299900
vt 18.110571 16.451099
vt -19.685040 4.401709
vt 19.685040 -17.606831
vt 19.685040 4.401709
vt -19.685040 -17.606831
vt -19.685040 39.370079
vt 19.685040 0.000000
vt 19.685040 39.370079
vt 0.000000 9.842520
vt -19.685040 0.000000
vt 19.685040 0.000000
vt -0.000000 9.842520
vt -19.685040 0.000000
vt 19.685040 43.677181
vt -19.685040 8.189471
vt 19.685040 8.189471
vt -19.685040 43.677181
s 0
usemtl snow.001
f 3/1/1 2/2/1 1/3/1
f 1/3/2 2/2/2 3/1/2
f 6/4/3 5/5/3 4/6/3
f 4/6/4 5/5/4 6/4/4
f 9/7/5 8/8/5 7/3/5
f 7/3/6 8/8/6 9/7/6
f 12/9/7 11/10/7 10/11/7
f 10/11/8 11/10/8 12/9/8
f 15/12/9 14/13/9 13/14/9
f 14/13/10 15/12/10 16/15/10
f 14/13/10 16/15/10 17/16/10
f 17/16/10 16/15/10 18/17/10
f 17/16/10 18/17/10 19/18/10
f 19/18/10 18/17/10 20/19/10
f 19/18/10 20/19/10 21/20/10
f 21/20/10 20/19/10 22/21/10
f 21/20/10 22/21/10 23/22/10
f 23/22/10 22/21/10 12/23/10
f 23/22/10 12/23/10 24/24/10
f 24/24/10 12/23/10 10/25/10
f 24/24/10 10/25/10 25/26/10
f 25/26/10 10/25/10 26/27/10
f 26/27/10 10/25/10 27/28/10
f 27/28/10 10/25/10 28/29/10
f 28/29/10 10/25/10 29/30/10
f 3/31/10 29/30/10 10/25/10
f 3/31/10 30/32/10 29/30/10
f 3/31/10 31/33/10 30/32/10
f 3/31/10 32/34/10 31/33/10
f 3/31/10 33/35/10 32/34/10
f 3/31/10 34/36/10 33/35/10
f 34/36/10 3/31/10 1/37/10
f 13/14/11 14/13/11 15/12/11
f 16/15/11 15/12/11 14/13/11
f 17/16/11 16/15/11 14/13/11
f 18/17/11 16/15/11 17/16/11
f 19/18/11 18/17/11 17/16/11
f 20/19/11 18/17/11 19/18/11
f 21/20/11 20/19/11 19/18/11
f 22/21/11 20/19/11 21/20/11
f 23/22/11 22/21/11 21/20/11
f 12/23/11 22/21/11 23/22/11
f 24/24/11 12/23/11 23/22/11
f 10/25/11 12/23/11 24/24/11
f 25/26/11 10/25/11 24/24/11
f 26/27/11 10/25/11 25/26/11
f 27/28/11 10/25/11 26/27/11
f 28/29/11 10/25/11 27/28/11
f 29/30/11 10/25/11 28/29/11
f 10/25/11 29/30/11 3/31/11
f 29/30/11 30/32/11 3/31/11
f 30/32/11 31/33/11 3/31/11
f 31/33/11 32/34/11 3/31/11
f 32/34/11 33/35/11 3/31/11
f 33/35/11 34/36/11 3/31/11
f 1/37/11 3/31/11 34/36/11
f 37/38/12 36/39/12 35/40/12
f 36/39/13 37/38/13 38/41/13
f 36/39/13 38/41/13 39/42/13
f 39/42/13 38/41/13 40/43/13
f 39/42/13 40/43/13 41/44/13
f 41/44/13 40/43/13 42/45/13
f 41/44/13 42/45/13 43/46/13
f 43/46/13 42/45/13 44/47/13
f 43/46/13 44/47/13 45/48/13
f 45/48/13 44/47/13 5/49/13
f 45/48/13 5/49/13 46/50/13
f 46/50/13 5/49/13 6/51/13
f 46/50/13 6/51/13 47/52/13
f 47/52/13 6/51/13 48/53/13
f 48/53/13 6/51/13 49/54/13
f 49/54/13 6/51/13 50/55/13
f 50/55/13 6/51/13 51/56/13
f 9/57/13 51/56/13 6/51/13
f 9/57/13 52/58/13 51/56/13
f 9/57/13 53/59/13 52/58/13
f 9/57/13 54/60/13 53/59/13
f 9/57/13 55/61/13 54/60/13
f 9/57/13 56/62/13 55/61/13
f 56/62/13 9/57/13 7/63/13
f 35/40/14 36/39/14 37/38/14
f 38/41/15 37/38/15 36/39/15
f 39/42/15 38/41/15 36/39/15
f 40/43/15 38/41/15 39/42/15
f 41/44/15 40/43/15 39/42/15
f 42/45/15 40/43/15 41/44/15
f 43/46/15 42/45/15 41/44/15
f 44/47/15 42/45/15 43/46/15
f 45/48/15 44/47/15 43/46/15
f 5/49/15 44/47/15 45/48/15
f 46/50/15 5/49/15 45/48/15
f 6/51/15 5/49/15 46/50/15
f 47/52/15 6/51/15 46/50/15
f 48/53/15 6/51/15 47/52/15
f 49/54/15 6/51/15 48/53/15
f 50/55/15 6/51/15 49/54/15
f 51/56/15 6/51/15 50/55/15
f 6/51/15 51/56/15 9/57/15
f 51/56/15 52/58/15 9/57/15
f 52/58/15 53/59/15 9/57/15
f 53/59/15 54/60/15 9/57/15
f 54/60/15 55/61/15 9/57/15
f 55/61/15 56/62/15 9/57/15
f 7/63/15 9/57/15 56/62/15
f 9/51/16 57/47/16 8/49/16
f 57/47/16 9/51/16 10/57/16
f 57/47/16 10/57/16 58/45/16
f 58/45/16 10/57/16 59/43/16
f 59/43/16 10/57/16 60/41/16
f 60/41/16 10/57/16 61/38/16
f 61/38/16 10/57/16 62/40/16
f 62/40/16 10/57/16 63/39/16
f 63/39/16 10/57/16 64/42/16
f 64/42/16 10/57/16 65/44/16
f 65/44/17 10/57/17 66/46/17
f 66/46/16 10/57/16 67/50/16
f 66/46/18 67/50/18 68/48/18
f 67/50/18 10/57/18 69/52/18
f 69/52/17 10/57/17 70/53/17
f 70/53/16 10/57/16 71/54/16
f 71/54/16 10/57/16 72/55/16
f 72/55/16 10/57/16 73/56/16
f 73/56/16 10/57/16 74/58/16
f 74/58/16 10/57/16 75/59/16
f 75/59/16 10/57/16 76/60/16
f 76/60/16 10/57/16 77/61/16
f 77/61/16 10/57/16 78/62/16
f 78/62/16 10/57/16 11/63/16
f 8/49/19 57/47/19 9/51/19
f 10/57/19 9/51/19 57/47/19
f 58/45/19 10/57/19 57/47/19
f 59/43/19 10/57/19 58/45/19
f 60/41/19 10/57/19 59/43/19
f 61/38/19 10/57/19 60/41/19
f 62/40/19 10/57/19 61/38/19
f 63/39/19 10/57/19 62/40/19
f 64/42/19 10/57/19 63/39/19
f 65/44/19 10/57/19 64/42/19
f 66/46/20 10/57/20 65/44/20
f 67/50/19 10/57/19 66/46/19
f 68/48/21 67/50/21 66/46/21
f 69/52/21 10/57/21 67/50/21
f 70/53/20 10/57/20 69/52/20
f 71/54/19 10/57/19 70/53/19
f 72/55/19 10/57/19 71/54/19
f 73/56/19 10/57/19 72/55/19
f 74/58/19 10/57/19 73/56/19
f 75/59/19 10/57/19 74/58/19
f 76/60/19 10/57/19 75/59/19
f 77/61/19 10/57/19 76/60/19
f 78/62/19 10/57/19 77/61/19
f 11/63/19 10/57/19 78/62/19
f 9/64/22 3/65/22 10/66/22
f 3/65/22 9/64/22 6/67/22
f 79/68/23 6/31/23 4/37/23
f 80/35/23 6/31/23 79/68/23
f 81/34/23 6/31/23 80/35/23
f 82/33/23 6/31/23 81/34/23
f 6/31/23 82/33/23 3/25/23
f 3/25/23 82/33/23 83/32/23
f 3/25/23 83/32/23 84/30/23
f 3/25/23 84/30/23 85/29/23
f 3/25/23 85/29/23 86/28/23
f 3/25/23 86/28/23 87/69/23
f 3/25/23 87/69/23 88/26/23
f 3/25/23 88/26/23 89/24/23
f 3/25/23 89/24/23 90/70/23
f 3/25/23 90/70/23 91/71/23
f 3/25/23 91/71/23 92/72/23
f 3/25/23 92/72/23 93/73/23
f 3/25/23 93/73/23 94/16/23
f 3/25/23 94/16/23 95/74/23
f 3/25/23 95/74/23 96/14/23
f 3/25/23 96/14/23 97/75/23
f 3/25/23 97/75/23 98/76/23
f 3/25/23 98/76/23 99/17/23
f 3/25/23 99/17/23 100/19/23
f 3/25/23 100/19/23 101/77/23
f 3/25/23 101/77/23 2/23/23
f 4/37/24 6/31/24 79/68/24
f 79/68/24 6/31/24 80/35/24
f 80/35/24 6/31/24 81/34/24
f 81/34/24 6/31/24 82/33/24
f 3/25/24 82/33/24 6/31/24
f 83/32/24 82/33/24 3/25/24
f 84/30/24 83/32/24 3/25/24
f 85/29/24 84/30/24 3/25/24
f 86/28/24 85/29/24 3/25/24
f 87/69/24 86/28/24 3/25/24
f 88/26/24 87/69/24 3/25/24
f 89/24/24 88/26/24 3/25/24
f 90/70/24 89/24/24 3/25/24
f 91/71/24 90/70/24 3/25/24
f 92/72/24 91/71/24 3/25/24
f 93/73/24 92/72/24 3/25/24
f 94/16/24 93/73/24 3/25/24
f 95/74/24 94/16/24 3/25/24
f 96/14/24 95/74/24 3/25/24
f 97/75/24 96/14/24 3/25/24
f 98/76/24 97/75/24 3/25/24
f 99/17/24 98/76/24 3/25/24
f 100/19/24 99/17/24 3/25/24
f 101/77/24 100/19/24 3/25/24
f 2/23/24 101/77/24 3/25/24
usemtl dirt.012
f 104/78/25 103/79/25 102/80/25
f 103/79/25 104/78/25 105/81/25
f 10/82/26 103/83/26 9/84/26
f 103/83/26 10/82/26 102/85/26
f 6/84/27 103/86/27 105/87/27
f 103/86/27 6/84/27 9/82/27
f 104/88/28 6/82/28 105/89/28
f 6/82/28 104/88/28 3/84/28
f 10/90/29 104/91/29 102/92/29
f 104/91/29 10/90/29 3/93/29
