# Blender 4.1.1
# www.blender.org
mtllib group698118262.mtl
o group698118262.004
v 0.649403 -0.252209 -0.197467
v 0.719634 -0.283294 -0.246354
v 0.684815 -0.312965 -0.327217
v 0.715727 -0.184972 -0.286841
v 0.743786 -0.245612 -0.325563
v 0.744286 -0.239394 -0.280486
v 0.693015 -0.155953 -0.340458
v 0.607589 -0.239749 -0.327184
vn -0.1312 -0.9111 0.3908
vn 0.8866 0.4568 -0.0728
vn 0.4870 0.3490 0.8007
vn 0.1306 -0.0901 -0.9873
vn -0.1523 0.8408 0.5195
vn 0.7508 -0.6553 -0.0828
vn -0.6802 -0.7175 0.1503
vn -0.0761 -0.0798 -0.9939
vn -0.6504 0.7070 0.2776
vn 0.8726 0.4754 -0.1123
vn 0.6323 0.3163 0.7072
vn 0.8878 -0.4571 0.0532
vt -0.052544 0.082751
vt -0.043356 0.081370
vt -0.042066 0.072357
vt 0.091157 0.041480
vt 0.094811 0.044192
vt 0.094772 0.036470
vt 0.084250 0.080193
vt 0.089913 0.082413
vt 0.094769 0.078593
vt -0.070016 0.019724
vt -0.063058 0.027468
vt -0.054819 0.023964
vt 0.097257 0.082094
vt 0.103728 0.081422
vt 0.088196 0.072768
vt -0.028503 0.121198
vt -0.021845 0.127184
vt -0.019660 0.118352
vt -0.075126 0.043223
vt -0.088700 0.044974
vt -0.084396 0.054707
vt -0.059509 0.047235
vt -0.064233 0.037700
vt -0.074821 0.043430
vt 0.067245 0.111617
vt 0.070837 0.100126
vt 0.057590 0.096687
vt 0.092676 0.040636
vt 0.098805 0.032221
vt 0.092337 0.032921
vt 0.095738 0.084017
vt 0.085108 0.076530
vt 0.085222 0.085633
vt 0.035037 0.123855
vt 0.036701 0.119620
vt 0.032660 0.115073
s 0
usemtl mat20.001
f 3/1/1 2/2/1 1/3/1
f 6/4/2 5/5/2 4/6/2
f 2/7/3 6/8/3 4/9/3
f 7/10/4 5/11/4 3/12/4
f 4/13/5 7/14/5 1/15/5
f 3/16/6 5/17/6 2/18/6
f 1/19/7 8/20/7 3/21/7
f 3/22/8 8/23/8 7/24/8
f 7/25/9 8/26/9 1/27/9
f 5/28/10 7/29/10 4/30/10
f 4/31/11 1/32/11 2/33/11
f 5/34/12 6/35/12 2/36/12
