# Blender 4.1.1
# www.blender.org
mtllib group575109798.mtl
o group575109798.003
v -0.237091 0.588073 0.532517
v -0.219376 0.551948 0.469132
v -0.231472 0.541550 0.420787
v -0.204896 0.609349 0.455536
v -0.176651 0.566121 0.419246
v -0.170586 0.574414 0.464150
v -0.226733 0.597874 0.432518
v -0.267288 0.584738 0.419631
vn -0.5304 -0.7918 0.3030
vn 0.7226 0.6557 -0.2187
vn -0.0076 0.2323 0.9726
vn -0.1224 0.2122 -0.9695
vn -0.4929 0.8694 0.0342
vn 0.4094 -0.9076 0.0928
vn -0.7538 -0.6192 0.2199
vn 0.2452 0.1779 -0.9530
vn -0.3245 0.9441 0.0589
vn 0.2884 0.7192 -0.6322
vn 0.9261 -0.1518 0.3454
vn 0.4249 -0.8987 0.1086
vt -0.044088 -0.087540
vt -0.039202 -0.088970
vt -0.034253 -0.094616
vt 0.057742 -0.097533
vt 0.061932 -0.095618
vt 0.060394 -0.101739
vt 0.113347 -0.063156
vt 0.116692 -0.058924
vt 0.119420 -0.063080
vt -0.094116 -0.072760
vt -0.093035 -0.066781
vt -0.088653 -0.070894
vt 0.011463 0.047168
vt 0.014754 0.046426
vt 0.007262 0.039651
vt -0.009623 0.026424
vt -0.006173 0.031344
vt -0.004810 0.024764
vt -0.056489 -0.106766
vt -0.067840 -0.103972
vt -0.065630 -0.098814
vt -0.076489 -0.095122
vt -0.078566 -0.100336
vt -0.081832 -0.097308
vt 0.033402 0.025608
vt 0.036598 0.022506
vt 0.025272 0.019614
vt -0.010864 -0.082811
vt -0.010604 -0.088883
vt -0.013932 -0.088327
vt 0.118876 -0.016092
vt 0.114486 -0.023499
vt 0.112803 -0.016183
vt -0.002656 0.032009
vt 0.001474 0.029969
vt -0.001406 0.025407
s 0
usemtl mat20.001
f 3/1/1 2/2/1 1/3/1
f 6/4/2 5/5/2 4/6/2
f 2/7/3 6/8/3 4/9/3
f 7/10/4 5/11/4 3/12/4
f 4/13/5 7/14/5 1/15/5
f 3/16/6 5/17/6 2/18/6
f 1/19/7 8/20/7 3/21/7
f 3/22/8 8/23/8 7/24/8
f 7/25/9 8/26/9 1/27/9
f 5/28/10 7/29/10 4/30/10
f 4/31/11 1/32/11 2/33/11
f 5/34/12 6/35/12 2/36/12
