# Blender 4.1.1
# www.blender.org
mtllib blockSnowCurveLow.mtl
o blockSnowCurveLow.001
v -0.789293 -0.500000 -0.000000
v -0.707107 -0.500000 -0.107107
v -0.789293 0.500000 -0.000000
v -0.707107 0.500000 -0.107107
v -0.601041 -0.500000 -0.001041
v -0.601839 -0.500000 -0.000000
v -0.601041 -0.400000 -0.001041
v -0.601839 -0.400000 -0.000000
v -0.601839 0.500000 0.000000
v -0.601839 0.400000 -0.000000
v 0.707107 -0.500000 -0.107107
v 0.707107 0.500000 -0.107107
v 0.500000 -0.500000 -0.266025
v 0.500000 0.500000 -0.266025
v 0.425000 0.500000 -0.136122
v 0.425000 0.400000 -0.136122
v 0.219996 0.500000 -0.221037
v 0.219996 0.400000 -0.221037
v 0.000000 0.500000 -0.250000
v 0.000000 0.400000 -0.250000
v -0.219996 0.500000 -0.221037
v -0.219996 0.400000 -0.221037
v -0.425000 0.500000 -0.136122
v -0.425000 0.400000 -0.136122
v -0.601041 0.500000 -0.001041
v -0.601041 0.400000 -0.001041
v -0.500000 -0.500000 -0.266025
v -0.500000 0.500000 -0.266025
v -0.258819 -0.500000 -0.365926
v -0.258819 0.500000 -0.365926
v 0.000000 -0.500000 -0.400000
v 0.000000 0.500000 -0.400000
v 0.258819 -0.500000 -0.365926
v 0.258819 0.500000 -0.365926
v 0.789293 -0.500000 0.000000
v 0.789293 0.500000 0.000000
v 0.601839 0.400000 -0.000000
v 0.601041 0.400000 -0.001041
v 0.601839 0.500000 -0.000000
v 0.601041 0.500000 -0.001041
v 0.425000 -0.400000 -0.136122
v 0.425000 -0.500000 -0.136122
v 0.219996 -0.400000 -0.221037
v 0.219996 -0.500000 -0.221037
v -0.425000 -0.400000 -0.136122
v -0.425000 -0.500000 -0.136122
v 0.601839 -0.500000 -0.000000
v 0.601041 -0.500000 -0.001041
v 0.601839 -0.400000 -0.000000
v 0.601041 -0.400000 -0.001041
v 0.000000 -0.400000 -0.250000
v 0.000000 -0.500000 -0.250000
v -0.219996 -0.400000 -0.221037
v -0.219996 -0.500000 -0.221037
vn -0.7934 -0.0000 -0.6088
vn -0.7071 -0.0000 -0.7071
vn 0.7071 -0.0000 0.7071
vn 0.7934 -0.0000 0.6087
vn 0.7933 -0.0000 0.6088
vn -0.0000 -0.0000 1.0000
vn 0.5000 -0.0000 -0.8660
vn 0.7071 -0.0000 -0.7071
vn 0.7071 0.0001 -0.7071
vn -0.2588 -0.0000 0.9659
vn -0.5000 -0.0000 0.8660
vn 0.2588 -0.0000 0.9659
vn 0.5000 -0.0000 0.8660
vn -0.5000 -0.0000 -0.8660
vn -0.7071 -0.0001 -0.7071
vn -0.2588 -0.0000 -0.9659
vn -0.0000 -0.0000 -1.0000
vn 0.2588 -0.0000 -0.9659
vn 0.7934 -0.0000 -0.6088
vn -0.7933 -0.0000 0.6088
vn -0.7071 -0.0000 0.7071
vn -0.7934 -0.0000 0.6087
vn -0.0000 -1.0000 -0.0000
vn -0.0000 1.0000 -0.0000
vt 19.685040 -18.916969
vt -19.685040 -13.601800
vt -19.685040 -18.916969
vt 19.685040 -13.601800
vt 15.748030 -14.372630
vt 19.685040 -14.424280
vt 19.685040 -14.372630
vt 15.748030 -14.424280
vt -31.074520 19.685040
vt -23.694460 15.748030
vt -23.694460 19.685040
vt -23.694460 -15.748030
vt -31.074520 -19.685040
vt -23.694460 -19.685040
vt 19.685040 -9.241364
vt -19.685040 -19.519020
vt 19.685040 -19.519020
vt -19.685040 -9.241364
vt 19.685040 -4.671763
vt 15.748030 -13.407770
vt 19.685040 -13.407770
vt 15.748030 -4.671763
vt 19.685040 1.284707
vt 15.748030 -7.451298
vt 19.685040 -7.451298
vt 15.748030 1.284707
vt -19.685040 -7.451298
vt -15.748030 1.284707
vt -19.685040 1.284707
vt -15.748030 -7.451298
vt -19.685040 -13.407770
vt -15.748030 -4.671763
vt -19.685040 -4.671763
vt -15.748030 -13.407770
vt -19.685040 -18.748190
vt -15.748030 -10.012190
vt -19.685040 -10.012190
vt -15.748030 -18.748190
vt -19.685040 -14.372630
vt -15.748030 -14.424280
vt -15.748030 -14.372630
vt -19.685040 -14.424280
vt -19.685040 -14.178590
vt 19.685040 -3.900940
vt -19.685040 -3.900940
vt 19.685040 -14.178590
vt -19.685040 -8.222122
vt 19.685040 2.055531
vt -19.685040 2.055531
vt 19.685040 -8.222122
vt 19.685040 -10.012190
vt 15.748030 -18.748190
vt 19.685040 -18.748190
vt 15.748030 -10.012190
vt 31.074520 0.000000
vt 23.663019 0.040975
vt 23.694460 0.000000
vt 27.838850 4.216803
vt 16.732281 5.359118
vt 19.685040 10.473440
vt 8.661267 8.702242
vt 0.000000 9.842520
vt -19.685040 10.473440
vt -8.661267 8.702242
vt 10.189730 14.406530
vt -16.732281 5.359118
vt -10.189730 14.406530
vt 0.000000 15.748030
vt -27.838850 4.216803
vt -23.663019 0.040975
vt -23.694460 0.000000
vt -31.074520 0.000000
vt 23.694460 19.685040
vt 31.074520 -19.685040
vt 31.074520 19.685040
vt 23.694460 -19.685040
vt 23.694460 15.748030
vt 23.694460 -15.748030
vt 23.694460 0.000000
vt 31.074520 0.000000
vt -31.074520 0.000000
vt -23.694460 0.000000
vt 23.694460 0.000000
vt -23.694460 0.000000
vt -23.694460 0.000000
vt 23.694460 0.000000
s 0
usemtl snow.003
f 3/1/1 2/2/2 1/3/1
f 2/2/2 3/1/1 4/4/2
f 7/5/3 6/6/4 5/7/3
f 6/6/5 7/5/3 8/8/5
f 3/9/6 10/10/6 9/11/6
f 10/10/6 3/9/6 8/12/6
f 1/13/6 8/12/6 3/9/6
f 8/12/6 1/13/6 6/14/6
f 13/15/7 12/16/8 11/17/9
f 12/16/8 13/15/7 14/18/7
f 17/19/10 16/20/11 15/21/11
f 16/20/11 17/19/10 18/22/10
f 19/23/6 18/24/10 17/25/10
f 18/24/10 19/23/6 20/26/6
f 21/27/12 20/28/6 19/29/6
f 20/28/6 21/27/12 22/30/12
f 23/31/13 22/32/12 21/33/12
f 22/32/12 23/31/13 24/34/13
f 25/35/3 24/36/13 23/37/13
f 24/36/13 25/35/3 26/38/3
f 25/39/3 10/40/4 26/41/3
f 10/40/5 25/39/3 9/42/5
f 2/16/2 28/15/14 27/18/14
f 28/15/14 2/16/2 4/17/15
f 27/43/14 30/44/16 29/45/16
f 30/44/16 27/43/14 28/46/14
f 29/47/16 32/48/17 31/49/17
f 32/48/17 29/47/16 30/50/16
f 31/48/17 34/47/18 33/50/18
f 34/47/18 31/48/17 32/49/17
f 12/2/8 35/1/19 11/4/8
f 35/1/19 12/2/8 36/3/19
f 33/44/18 14/43/7 13/46/7
f 14/43/7 33/44/18 34/45/18
f 39/6/20 38/5/21 37/8/20
f 38/5/21 39/6/22 40/7/21
f 15/51/11 38/52/21 40/53/21
f 38/52/21 15/51/11 16/54/11
f 43/32/10 42/31/11 41/34/11
f 42/31/11 43/32/10 44/33/10
f 7/52/3 46/51/13 45/54/13
f 46/51/13 7/52/3 5/53/3
f 49/40/20 48/39/21 47/42/20
f 48/39/21 49/40/22 50/41/21
f 51/28/6 44/27/10 43/30/10
f 44/27/10 51/28/6 52/29/6
f 45/20/13 54/19/12 53/22/12
f 54/19/12 45/20/13 46/21/13
f 41/36/11 48/35/21 50/38/21
f 48/35/21 41/36/11 42/37/11
f 53/24/12 52/23/6 51/26/6
f 52/23/6 53/24/12 54/25/12
f 1/55/23 5/56/23 6/57/23
f 5/56/23 1/55/23 2/58/23
f 5/56/23 2/58/23 46/59/23
f 46/59/23 2/58/23 27/60/23
f 46/59/23 27/60/23 54/61/23
f 54/61/23 27/60/23 52/62/23
f 13/63/23 52/62/23 27/60/23
f 13/63/23 44/64/23 52/62/23
f 13/63/23 27/60/23 29/65/23
f 13/63/23 42/66/23 44/64/23
f 13/63/23 29/65/23 33/67/23
f 33/67/23 29/65/23 31/68/23
f 11/69/23 42/66/23 13/63/23
f 11/69/23 48/70/23 42/66/23
f 11/69/23 47/71/23 48/70/23
f 47/71/23 11/69/23 35/72/23
f 39/73/6 35/74/6 36/75/6
f 35/74/6 39/73/6 47/76/6
f 47/76/6 39/73/6 37/77/6
f 47/76/6 37/77/6 49/78/6
f 12/58/24 39/79/24 36/80/24
f 39/79/24 12/58/24 40/56/24
f 40/56/24 12/58/24 15/59/24
f 15/59/24 12/58/24 14/60/24
f 15/59/24 14/60/24 17/61/24
f 17/61/24 14/60/24 19/62/24
f 19/62/24 14/60/24 28/63/24
f 28/63/24 21/64/24 19/62/24
f 28/63/24 23/66/24 21/64/24
f 28/63/24 14/60/24 30/67/24
f 30/67/24 14/60/24 34/65/24
f 30/67/24 34/65/24 32/68/24
f 4/69/24 23/66/24 28/63/24
f 4/69/24 25/70/24 23/66/24
f 3/81/24 25/70/24 4/69/24
f 25/70/24 3/81/24 9/82/24
usemtl dirt.015
f 37/83/24 26/70/24 10/84/24
f 26/70/24 37/83/24 38/56/24
f 26/70/24 38/56/24 16/59/24
f 26/70/24 16/59/24 24/66/24
f 24/66/24 16/59/24 22/64/24
f 22/64/24 16/59/24 18/61/24
f 22/64/24 18/61/24 20/62/24
f 10/10/6 49/78/6 37/77/6
f 49/78/6 10/10/6 8/12/6
f 7/56/23 49/85/23 8/86/23
f 49/85/23 7/56/23 50/70/23
f 50/70/23 7/56/23 41/66/23
f 41/66/23 7/56/23 45/59/23
f 41/66/23 45/59/23 53/61/23
f 41/66/23 53/61/23 43/64/23
f 43/64/23 53/61/23 51/62/23
