# Blender 4.1.1
# www.blender.org
mtllib blockSnowHexagon.mtl
o blockSnowHexagon
v 0.500000 0.288675 -1.000000
v 0.591514 0.288675 -0.841493
v 0.545757 0.367929 -0.841493
v -0.591514 -0.288675 -0.841493
v -0.545757 -0.367929 -0.841493
v -0.500000 -0.288675 -1.000000
v -0.591514 0.288675 -0.841493
v -0.500000 0.288675 -1.000000
v -0.545757 0.367929 -0.841493
v 0.045757 0.656604 -0.841493
v -0.045757 0.656604 -0.841493
v 0.000000 0.577350 -1.000000
v 0.500000 -0.288675 -1.000000
v 0.545757 -0.367929 -0.841493
v 0.591514 -0.288675 -0.841493
v -0.045757 -0.656604 -0.841493
v 0.045757 -0.656604 -0.841493
v 0.000000 -0.577350 -1.000000
v 0.433257 0.461748 -0.798192
v 0.411536 0.473476 -0.799410
v 0.454274 0.448801 -0.799410
v 0.474498 0.434693 -0.803059
v 0.389206 0.483936 -0.803059
v 0.493839 0.419483 -0.809123
v 0.366364 0.493081 -0.809123
v 0.512215 0.403239 -0.817577
v 0.343107 0.500873 -0.817577
v 0.529546 0.386029 -0.828382
v 0.319538 0.507277 -0.828382
v 0.271976 0.517255 -0.854604
v 0.248407 0.523659 -0.865410
v 0.225150 0.531451 -0.873863
v 0.202308 0.540596 -0.879927
v 0.179978 0.551056 -0.883576
v 0.158257 0.562784 -0.884794
v 0.137240 0.575731 -0.883576
v 0.117016 0.589839 -0.879927
v 0.097675 0.605049 -0.873863
v 0.079299 0.621294 -0.865410
v 0.061968 0.638504 -0.854604
v 0.599084 -0.265586 -0.828382
v 0.605322 -0.241972 -0.817577
v 0.610203 -0.217936 -0.809123
v 0.613704 -0.193581 -0.803059
v 0.615811 -0.169013 -0.799410
v 0.616514 -0.144338 -0.798192
v 0.615811 -0.119663 -0.799410
v 0.613704 -0.095095 -0.803059
v 0.610203 -0.070740 -0.809123
v 0.605322 -0.046703 -0.817577
v 0.583944 0.023089 -0.854604
v 0.599084 -0.023089 -0.828382
v 0.591514 0.000000 -0.841493
v 0.577706 0.046703 -0.865410
v 0.572825 0.070740 -0.873863
v 0.569324 0.095094 -0.879927
v 0.567217 0.119663 -0.883576
v 0.566514 0.144338 -0.884794
v 0.567217 0.169012 -0.883576
v 0.569324 0.193581 -0.879927
v 0.572825 0.217936 -0.873863
v 0.577706 0.241972 -0.865410
v 0.583944 0.265586 -0.854604
v 0.183257 -0.606086 -0.798192
v 0.204274 -0.593139 -0.799410
v 0.161536 -0.617814 -0.799410
v 0.139206 -0.628273 -0.803059
v 0.224498 -0.579031 -0.803059
v 0.116364 -0.637419 -0.809123
v 0.243839 -0.563821 -0.809123
v 0.093107 -0.645211 -0.817577
v 0.262215 -0.547576 -0.817577
v 0.069538 -0.651615 -0.828382
v 0.279546 -0.530366 -0.828382
v 0.311968 -0.494166 -0.854604
v 0.329299 -0.476956 -0.865410
v 0.347675 -0.460711 -0.873863
v 0.367016 -0.445502 -0.879927
v 0.387240 -0.431393 -0.883576
v 0.408257 -0.418447 -0.884794
v 0.429978 -0.406718 -0.883576
v 0.452308 -0.396259 -0.879927
v 0.475150 -0.387114 -0.873863
v 0.498407 -0.379322 -0.865410
v 0.521976 -0.372918 -0.854604
v -0.433257 -0.461748 -0.798192
v -0.411536 -0.473476 -0.799410
v -0.454274 -0.448801 -0.799410
v -0.474498 -0.434693 -0.803059
v -0.389206 -0.483936 -0.803059
v -0.493839 -0.419483 -0.809123
v -0.366364 -0.493081 -0.809123
v -0.512215 -0.403238 -0.817577
v -0.343107 -0.500873 -0.817577
v -0.529546 -0.386029 -0.828382
v -0.319538 -0.507277 -0.828382
v -0.271976 -0.517255 -0.854604
v -0.248407 -0.523659 -0.865410
v -0.225150 -0.531451 -0.873863
v -0.202308 -0.540596 -0.879927
v -0.179978 -0.551056 -0.883576
v -0.158257 -0.562784 -0.884794
v -0.137240 -0.575731 -0.883576
v -0.117016 -0.589839 -0.879927
v -0.097675 -0.605049 -0.873863
v -0.079299 -0.621294 -0.865410
v -0.061968 -0.638504 -0.854604
v -0.583944 -0.265586 -0.854604
v -0.577706 -0.241972 -0.865410
v -0.572825 -0.217936 -0.873863
v -0.569324 -0.193581 -0.879927
v -0.567217 -0.169013 -0.883576
v -0.566514 -0.144338 -0.884794
v -0.567217 -0.119663 -0.883576
v -0.569324 -0.095095 -0.879927
v -0.572825 -0.070740 -0.873863
v -0.577706 -0.046703 -0.865410
v -0.583944 -0.023089 -0.854604
v -0.599084 0.023089 -0.828382
v -0.605322 0.046703 -0.817577
v -0.610203 0.070740 -0.809123
v -0.613704 0.095094 -0.803059
v -0.615811 0.119663 -0.799410
v -0.616514 0.144338 -0.798192
v -0.615811 0.169012 -0.799410
v -0.613704 0.193581 -0.803059
v -0.610203 0.217936 -0.809123
v -0.605322 0.241972 -0.817577
v -0.599084 0.265586 -0.828382
v -0.183257 0.606086 -0.798192
v -0.204274 0.593139 -0.799410
v -0.161536 0.617814 -0.799410
v -0.139206 0.628273 -0.803059
v -0.224498 0.579030 -0.803059
v -0.116364 0.637419 -0.809123
v -0.243839 0.563821 -0.809123
v -0.093107 0.645211 -0.817577
v -0.262215 0.547576 -0.817577
v -0.069538 0.651615 -0.828382
v -0.279546 0.530366 -0.828382
v -0.311968 0.494166 -0.854604
v -0.329299 0.476956 -0.865410
v -0.347675 0.460712 -0.873863
v -0.367016 0.445502 -0.879927
v -0.387239 0.431393 -0.883576
v -0.408257 0.418447 -0.884794
v -0.429978 0.406718 -0.883576
v -0.452308 0.396259 -0.879927
v -0.475150 0.387114 -0.873863
v -0.498407 0.379322 -0.865410
v -0.521976 0.372918 -0.854604
v 0.500000 -0.288675 0.000000
v 0.500000 0.288675 0.000000
v -0.500000 -0.288675 0.000000
v -0.500000 0.288675 0.000000
v 0.000000 0.577350 0.000000
v -0.133974 0.500000 -0.000000
v -0.133975 -0.500000 -0.000000
v 0.000000 -0.577350 0.000000
v 0.133974 0.500000 -0.000000
v 0.133975 -0.500000 -0.000000
vn 0.7746 0.4472 -0.4472
vn -0.7746 -0.4472 0.4472
vn -0.7746 -0.4472 -0.4472
vn 0.7746 0.4472 0.4472
vn -0.7746 0.4472 -0.4472
vn 0.7746 -0.4472 0.4472
vn -0.0000 0.8944 -0.4472
vn -0.0000 -0.8944 0.4472
vn 0.7746 -0.4472 -0.4472
vn -0.7746 0.4472 0.4472
vn -0.0000 -0.8944 -0.4472
vn -0.0000 0.8944 0.4472
vn 0.4330 0.7500 -0.5000
vn -0.4331 -0.7500 0.5000
vn -0.4330 -0.7500 0.5000
vn 0.8660 -0.0000 -0.5000
vn 0.8659 -0.0001 -0.5002
vn 0.8660 -0.0000 -0.5001
vn -0.8660 -0.0000 0.5000
vn -0.8659 0.0001 0.5002
vn -0.8660 0.0001 0.5001
vn -0.0000 -0.0000 -1.0000
vn 0.4330 -0.7500 -0.5000
vn -0.4330 0.7500 0.5000
vn -0.4330 -0.7500 -0.5000
vn 0.4330 0.7500 0.5000
vn -0.8660 -0.0000 -0.5000
vn -0.8661 -0.0000 -0.4999
vn 0.8660 -0.0000 0.5000
vn 0.8661 -0.0000 0.5000
vn -0.4330 0.7500 -0.4999
vn -0.4330 0.7499 -0.5001
vn -0.4330 0.7500 -0.5001
vn -0.4330 0.7500 -0.5000
vn 0.4330 -0.7500 0.4999
vn 0.4330 -0.7499 0.5001
vn 0.4330 -0.7500 0.5001
vn 0.4330 -0.7500 0.5000
vn 1.0000 -0.0000 -0.0000
vn -1.0000 -0.0000 -0.0000
vn -0.5000 0.8660 -0.0000
vn -0.5000 -0.8660 -0.0000
vn -0.0000 -0.0000 1.0000
vn 0.5000 -0.8660 -0.0000
vn 0.5000 0.8660 -0.0000
vt -1.801462 18.071341
vt 1.801453 18.071341
vt -0.000003 25.048361
vt -0.000005 25.048361
vt -1.801464 18.071341
vt 1.801451 18.071341
vt 1.801464 18.071341
vt 0.000005 25.048361
vt -1.801451 18.071341
vt 0.000000 25.048260
vt -1.801457 18.071239
vt 1.801457 18.071239
vt -1.801453 18.071341
vt 1.801462 18.071341
vt 0.000003 25.048361
vt -0.000000 25.048361
vt -1.801457 18.071350
vt 1.801457 18.071350
vt 6.654031 15.133990
vt 4.711126 15.133990
vt 5.682581 15.078610
vt 7.621280 15.299880
vt 3.743881 15.299880
vt 8.580137 15.575560
vt 2.785020 15.575560
vt 9.526455 15.959850
vt 1.838700 15.959850
vt 10.456140 16.451071
vt 0.909024 16.451080
vt 11.365160 17.047119
vt -0.909019 17.643160
vt 11.365160 24.252939
vt -1.838699 18.134390
vt -2.785024 18.518669
vt -3.743873 18.794359
vt -4.711134 18.960239
vt -5.682578 19.015631
vt -11.365160 24.252951
vt -6.654039 18.960239
vt -7.621279 18.794359
vt -8.580143 18.518669
vt -9.526464 18.134380
vt -10.456150 17.643150
vt -11.365170 17.047110
vt -11.365160 24.252970
vt 11.365160 17.047140
vt 11.365160 24.252970
vt 10.456140 16.451099
vt 9.526460 15.959880
vt 8.580141 15.575590
vt 7.621283 15.299900
vt 6.654035 15.134020
vt 5.682582 15.078640
vt 4.711129 15.134020
vt 3.743881 15.299900
vt 2.785023 15.575590
vt 1.838704 15.959880
vt -0.909020 17.643181
vt 0.909023 16.451099
vt -0.000001 17.047140
vt -1.838705 18.134411
vt -2.785024 18.518700
vt -3.743878 18.794380
vt -4.711126 18.960270
vt -5.682579 19.015650
vt -6.654032 18.960270
vt -7.621284 18.794380
vt -8.580142 18.518700
vt -9.526457 18.134411
vt -10.456140 17.643181
vt -11.365160 17.047140
vt -0.000000 -22.730330
vt -19.685040 11.365160
vt -19.685040 -11.365160
vt -0.000000 22.730310
vt 19.685040 -11.365160
vt 19.685040 11.365160
vt 6.654034 15.134010
vt 4.711131 15.134010
vt 5.682582 15.078630
vt 7.621282 15.299900
vt 3.743882 15.299900
vt 8.580143 15.575590
vt 2.785022 15.575590
vt 9.526459 15.959870
vt 1.838704 15.959870
vt 0.909024 16.451099
vt -0.909024 17.643181
vt -1.838703 18.134411
vt -2.785022 18.518690
vt -3.743879 18.794380
vt -4.711130 18.960270
vt -5.682581 19.015640
vt -6.654034 18.960270
vt -7.621283 18.794380
vt -8.580140 18.518690
vt -9.526459 18.134411
vt 6.654031 15.134010
vt 4.711128 15.134010
vt 5.682580 15.078630
vt 3.743880 15.299900
vt 8.580139 15.575590
vt 2.785020 15.575590
vt 9.526454 15.959880
vt 1.838703 15.959870
vt 0.909019 16.451099
vt -0.909025 17.643181
vt -1.838706 18.134411
vt -2.785023 18.518690
vt -3.743880 18.794380
vt -4.711131 18.960270
vt -5.682583 19.015640
vt -6.654037 18.960270
vt -7.621282 18.794380
vt -8.580141 18.518690
vt -9.526462 18.134411
vt -10.456130 17.643169
vt -11.365150 17.047119
vt -9.526453 18.134380
vt -8.580134 18.518681
vt -7.621276 18.794359
vt 11.365170 24.252951
vt -6.654028 18.960251
vt -5.682576 19.015631
vt -4.711123 18.960251
vt -3.743875 18.794359
vt -2.785016 18.518681
vt -1.838697 18.134380
vt -0.909016 17.643169
vt 0.909027 16.451080
vt 1.838712 15.959860
vt 2.785031 15.575560
vt 3.743886 15.299880
vt 4.711134 15.133990
vt 5.682587 15.078620
vt 6.654039 15.133990
vt 7.621291 15.299880
vt 8.580150 15.575570
vt 9.526464 15.959860
vt 10.456150 16.451080
vt 11.365170 17.047119
vt 6.654037 15.134000
vt 4.711133 15.134000
vt 5.682593 15.078620
vt 7.621275 15.299900
vt 3.743873 15.299900
vt 8.580148 15.575570
vt 2.785029 15.575570
vt 9.526472 15.959860
vt 1.838710 15.959860
vt 0.909022 16.451090
vt -0.909019 17.643169
vt 11.365160 24.252960
vt -1.838702 18.134399
vt -2.785018 18.518681
vt -3.743878 18.794359
vt -4.711124 18.960260
vt -5.682575 19.015631
vt -6.654031 18.960260
vt -7.621282 18.794371
vt -8.580133 18.518681
vt -9.526456 18.134399
vt -10.456120 17.643169
vt -11.365160 17.047131
vt -11.365160 39.370079
vt 11.365160 0.000000
vt 11.365160 39.370079
vt -11.365160 0.000000
vt 11.365150 39.370079
vt 5.274596 0.000000
vt 11.365150 0.000000
vt -11.365170 39.370079
vt -11.365170 0.000000
vt -5.274592 -0.000000
vt 11.365160 -0.000000
vt -11.365160 -0.000000
vt 5.274576 19.685040
vt 5.274590 -19.685040
vt 0.000000 -22.730330
vt 0.000000 22.730310
vt -5.274576 19.685040
vt -5.274590 -19.685040
vt 5.274592 0.000000
vt 11.365160 0.000000
vt -11.365160 0.000000
vt 11.365170 39.370079
vt -5.274596 0.000000
vt 11.365170 0.000000
vt -11.365150 39.370079
vt -11.365150 0.000000
s 0
usemtl snow.006
f 3/1/1 2/2/1 1/3/1
f 1/3/2 2/2/2 3/1/2
f 6/4/3 5/5/3 4/6/3
f 4/6/4 5/5/4 6/4/4
f 9/7/5 8/8/5 7/9/5
f 7/9/6 8/8/6 9/7/6
f 12/10/7 11/11/7 10/12/7
f 10/12/8 11/11/8 12/10/8
f 15/13/9 14/14/9 13/15/9
f 13/15/10 14/14/10 15/13/10
f 18/16/11 17/17/11 16/18/11
f 16/18/12 17/17/12 18/16/12
f 21/19/13 20/20/13 19/21/13
f 20/20/13 21/19/13 22/22/13
f 20/20/13 22/22/13 23/23/13
f 23/23/13 22/22/13 24/24/13
f 23/23/13 24/24/13 25/25/13
f 25/25/13 24/24/13 26/26/13
f 25/25/13 26/26/13 27/27/13
f 27/27/13 26/26/13 28/28/13
f 27/27/13 28/28/13 29/29/13
f 29/29/13 28/28/13 3/30/13
f 29/29/13 3/30/13 30/31/13
f 30/31/13 3/30/13 1/32/13
f 30/31/13 1/32/13 31/33/13
f 31/33/13 1/32/13 32/34/13
f 32/34/13 1/32/13 33/35/13
f 33/35/13 1/32/13 34/36/13
f 34/36/13 1/32/13 35/37/13
f 12/38/13 35/37/13 1/32/13
f 12/38/13 36/39/13 35/37/13
f 12/38/13 37/40/13 36/39/13
f 12/38/13 38/41/13 37/40/13
f 12/38/13 39/42/13 38/41/13
f 12/38/13 40/43/13 39/42/13
f 40/43/13 12/38/13 10/44/13
f 19/21/14 20/20/14 21/19/14
f 22/22/15 21/19/15 20/20/15
f 23/23/15 22/22/15 20/20/15
f 24/24/15 22/22/15 23/23/15
f 25/25/15 24/24/15 23/23/15
f 26/26/15 24/24/15 25/25/15
f 27/27/15 26/26/15 25/25/15
f 28/28/15 26/26/15 27/27/15
f 29/29/15 28/28/15 27/27/15
f 3/30/15 28/28/15 29/29/15
f 30/31/15 3/30/15 29/29/15
f 1/32/15 3/30/15 30/31/15
f 31/33/15 1/32/15 30/31/15
f 32/34/15 1/32/15 31/33/15
f 33/35/15 1/32/15 32/34/15
f 34/36/15 1/32/15 33/35/15
f 35/37/15 1/32/15 34/36/15
f 1/32/15 35/37/15 12/38/15
f 35/37/15 36/39/15 12/38/15
f 36/39/15 37/40/15 12/38/15
f 37/40/15 38/41/15 12/38/15
f 38/41/15 39/42/15 12/38/15
f 39/42/15 40/43/15 12/38/15
f 10/44/15 12/38/15 40/43/15
f 1/45/16 15/46/16 13/47/16
f 15/46/16 1/45/16 41/48/16
f 41/48/16 1/45/16 42/49/16
f 42/49/16 1/45/16 43/50/16
f 43/50/16 1/45/16 44/51/16
f 44/51/16 1/45/16 45/52/16
f 45/52/16 1/45/16 46/53/16
f 46/53/16 1/45/16 47/54/16
f 47/54/16 1/45/16 48/55/16
f 48/55/16 1/45/16 49/56/16
f 49/56/16 1/45/16 50/57/16
f 50/57/17 1/45/17 51/58/17
f 50/57/16 51/58/16 52/59/16
f 52/59/16 51/58/18 53/60/16
f 51/58/16 1/45/16 54/61/16
f 54/61/16 1/45/16 55/62/16
f 55/62/16 1/45/16 56/63/16
f 56/63/16 1/45/16 57/64/16
f 57/64/16 1/45/16 58/65/16
f 58/65/16 1/45/16 59/66/16
f 59/66/16 1/45/16 60/67/16
f 60/67/16 1/45/16 61/68/16
f 61/68/16 1/45/16 62/69/16
f 62/69/16 1/45/16 63/70/16
f 63/70/16 1/45/16 2/71/16
f 13/47/19 15/46/19 1/45/19
f 41/48/19 1/45/19 15/46/19
f 42/49/19 1/45/19 41/48/19
f 43/50/19 1/45/19 42/49/19
f 44/51/19 1/45/19 43/50/19
f 45/52/19 1/45/19 44/51/19
f 46/53/19 1/45/19 45/52/19
f 47/54/19 1/45/19 46/53/19
f 48/55/19 1/45/19 47/54/19
f 49/56/19 1/45/19 48/55/19
f 50/57/19 1/45/19 49/56/19
f 51/58/20 1/45/20 50/57/20
f 52/59/19 51/58/19 50/57/19
f 53/60/19 51/58/21 52/59/19
f 54/61/19 1/45/19 51/58/19
f 55/62/19 1/45/19 54/61/19
f 56/63/19 1/45/19 55/62/19
f 57/64/19 1/45/19 56/63/19
f 58/65/19 1/45/19 57/64/19
f 59/66/19 1/45/19 58/65/19
f 60/67/19 1/45/19 59/66/19
f 61/68/19 1/45/19 60/67/19
f 62/69/19 1/45/19 61/68/19
f 63/70/19 1/45/19 62/69/19
f 2/71/19 1/45/19 63/70/19
f 18/72/22 1/73/22 13/74/22
f 1/73/22 18/72/22 12/75/22
f 12/75/22 18/72/22 6/76/22
f 12/75/22 6/76/22 8/77/22
f 66/78/23 65/79/23 64/80/23
f 65/79/23 66/78/23 67/81/23
f 65/79/23 67/81/23 68/82/23
f 68/82/23 67/81/23 69/83/23
f 68/82/23 69/83/23 70/84/23
f 70/84/23 69/83/23 71/85/23
f 70/84/23 71/85/23 72/86/23
f 72/86/23 71/85/23 73/48/23
f 72/86/23 73/48/23 74/87/23
f 74/87/23 73/48/23 17/46/23
f 74/87/23 17/46/23 75/88/23
f 75/88/23 17/46/23 18/47/23
f 75/88/23 18/47/23 76/89/23
f 76/89/23 18/47/23 77/90/23
f 77/90/23 18/47/23 78/91/23
f 78/91/23 18/47/23 79/92/23
f 79/92/23 18/47/23 80/93/23
f 13/45/23 80/93/23 18/47/23
f 13/45/23 81/94/23 80/93/23
f 13/45/23 82/95/23 81/94/23
f 13/45/23 83/96/23 82/95/23
f 13/45/23 84/97/23 83/96/23
f 13/45/23 85/70/23 84/97/23
f 85/70/23 13/45/23 14/71/23
f 64/80/24 65/79/24 66/78/24
f 67/81/24 66/78/24 65/79/24
f 68/82/24 67/81/24 65/79/24
f 69/83/24 67/81/24 68/82/24
f 70/84/24 69/83/24 68/82/24
f 71/85/24 69/83/24 70/84/24
f 72/86/24 71/85/24 70/84/24
f 73/48/24 71/85/24 72/86/24
f 74/87/24 73/48/24 72/86/24
f 17/46/24 73/48/24 74/87/24
f 75/88/24 17/46/24 74/87/24
f 18/47/24 17/46/24 75/88/24
f 76/89/24 18/47/24 75/88/24
f 77/90/24 18/47/24 76/89/24
f 78/91/24 18/47/24 77/90/24
f 79/92/24 18/47/24 78/91/24
f 80/93/24 18/47/24 79/92/24
f 18/47/24 80/93/24 13/45/24
f 80/93/24 81/94/24 13/45/24
f 81/94/24 82/95/24 13/45/24
f 82/95/24 83/96/24 13/45/24
f 83/96/24 84/97/24 13/45/24
f 84/97/24 85/70/24 13/45/24
f 14/71/24 13/45/24 85/70/24
f 88/98/25 87/99/25 86/100/25
f 87/99/25 88/98/25 89/51/25
f 87/99/25 89/51/25 90/101/25
f 90/101/25 89/51/25 91/102/25
f 90/101/25 91/102/25 92/103/25
f 92/103/25 91/102/25 93/104/25
f 92/103/25 93/104/25 94/105/25
f 94/105/25 93/104/25 95/48/25
f 94/105/25 95/48/25 96/106/25
f 96/106/25 95/48/25 5/46/25
f 96/106/25 5/46/25 97/107/25
f 97/107/25 5/46/25 6/47/25
f 97/107/25 6/47/25 98/108/25
f 98/108/25 6/47/25 99/109/25
f 99/109/25 6/47/25 100/110/25
f 100/110/25 6/47/25 101/111/25
f 101/111/25 6/47/25 102/112/25
f 18/45/25 102/112/25 6/47/25
f 18/45/25 103/113/25 102/112/25
f 18/45/25 104/114/25 103/113/25
f 18/45/25 105/115/25 104/114/25
f 18/45/25 106/116/25 105/115/25
f 18/45/25 107/70/25 106/116/25
f 107/70/25 18/45/25 16/71/25
f 86/100/26 87/99/26 88/98/26
f 89/51/26 88/98/26 87/99/26
f 90/101/26 89/51/26 87/99/26
f 91/102/26 89/51/26 90/101/26
f 92/103/26 91/102/26 90/101/26
f 93/104/26 91/102/26 92/103/26
f 94/105/26 93/104/26 92/103/26
f 95/48/26 93/104/26 94/105/26
f 96/106/26 95/48/26 94/105/26
f 5/46/26 95/48/26 96/106/26
f 97/107/26 5/46/26 96/106/26
f 6/47/26 5/46/26 97/107/26
f 98/108/26 6/47/26 97/107/26
f 99/109/26 6/47/26 98/108/26
f 100/110/26 6/47/26 99/109/26
f 101/111/26 6/47/26 100/110/26
f 102/112/26 6/47/26 101/111/26
f 6/47/26 102/112/26 18/45/26
f 102/112/26 103/113/26 18/45/26
f 103/113/26 104/114/26 18/45/26
f 104/114/26 105/115/26 18/45/26
f 105/115/26 106/116/26 18/45/26
f 106/116/26 107/70/26 18/45/26
f 16/71/26 18/45/26 107/70/26
f 108/117/27 6/38/27 4/118/27
f 6/38/27 108/117/27 109/119/27
f 6/38/27 109/119/27 110/120/27
f 6/38/27 110/120/27 111/121/27
f 6/38/27 111/121/27 8/122/27
f 8/122/28 111/121/28 112/123/28
f 8/122/27 112/123/27 113/124/27
f 8/122/27 113/124/27 114/125/27
f 8/122/27 114/125/27 115/126/27
f 8/122/27 115/126/27 116/127/27
f 8/122/27 116/127/27 117/128/27
f 8/122/27 117/128/27 118/129/27
f 8/122/27 118/129/27 119/130/27
f 8/122/27 119/130/27 120/131/27
f 8/122/27 120/131/27 121/132/27
f 8/122/27 121/132/27 122/133/27
f 8/122/27 122/133/27 123/134/27
f 8/122/27 123/134/27 124/135/27
f 8/122/27 124/135/27 125/136/27
f 8/122/27 125/136/27 126/137/27
f 8/122/27 126/137/27 127/138/27
f 8/122/27 127/138/27 128/139/27
f 8/122/27 128/139/27 129/140/27
f 8/122/27 129/140/27 7/141/27
f 4/118/29 6/38/29 108/117/29
f 109/119/29 108/117/29 6/38/29
f 110/120/29 109/119/29 6/38/29
f 111/121/29 110/120/29 6/38/29
f 8/122/29 111/121/29 6/38/29
f 112/123/30 111/121/30 8/122/30
f 113/124/29 112/123/29 8/122/29
f 114/125/29 113/124/29 8/122/29
f 115/126/29 114/125/29 8/122/29
f 116/127/29 115/126/29 8/122/29
f 117/128/29 116/127/29 8/122/29
f 118/129/29 117/128/29 8/122/29
f 119/130/29 118/129/29 8/122/29
f 120/131/29 119/130/29 8/122/29
f 121/132/29 120/131/29 8/122/29
f 122/133/29 121/132/29 8/122/29
f 123/134/29 122/133/29 8/122/29
f 124/135/29 123/134/29 8/122/29
f 125/136/29 124/135/29 8/122/29
f 126/137/29 125/136/29 8/122/29
f 127/138/29 126/137/29 8/122/29
f 128/139/29 127/138/29 8/122/29
f 129/140/29 128/139/29 8/122/29
f 7/141/29 129/140/29 8/122/29
f 132/142/31 131/143/31 130/144/31
f 131/143/32 132/142/32 133/145/32
f 131/143/33 133/145/33 134/146/33
f 134/146/31 133/145/31 135/147/31
f 134/146/31 135/147/31 136/148/31
f 136/148/34 135/147/34 137/149/34
f 136/148/34 137/149/34 138/150/34
f 138/150/34 137/149/34 139/140/34
f 138/150/34 139/140/34 140/151/34
f 140/151/34 139/140/34 11/141/34
f 140/151/34 11/141/34 141/152/34
f 141/152/34 11/141/34 12/153/34
f 141/152/34 12/153/34 142/154/34
f 142/154/34 12/153/34 143/155/34
f 143/155/34 12/153/34 144/156/34
f 144/156/34 12/153/34 145/157/34
f 145/157/34 12/153/34 146/158/34
f 8/38/34 146/158/34 12/153/34
f 8/38/34 147/159/34 146/158/34
f 8/38/34 148/160/34 147/159/34
f 8/38/34 149/161/34 148/160/34
f 8/38/34 150/162/34 149/161/34
f 8/38/34 151/163/34 150/162/34
f 151/163/34 8/38/34 9/164/34
f 130/144/35 131/143/35 132/142/35
f 133/145/36 132/142/36 131/143/36
f 134/146/37 133/145/37 131/143/37
f 135/147/35 133/145/35 134/146/35
f 136/148/35 135/147/35 134/146/35
f 137/149/38 135/147/38 136/148/38
f 138/150/38 137/149/38 136/148/38
f 139/140/38 137/149/38 138/150/38
f 140/151/38 139/140/38 138/150/38
f 11/141/38 139/140/38 140/151/38
f 141/152/38 11/141/38 140/151/38
f 12/153/38 11/141/38 141/152/38
f 142/154/38 12/153/38 141/152/38
f 143/155/38 12/153/38 142/154/38
f 144/156/38 12/153/38 143/155/38
f 145/157/38 12/153/38 144/156/38
f 146/158/38 12/153/38 145/157/38
f 12/153/38 146/158/38 8/38/38
f 146/158/38 147/159/38 8/38/38
f 147/159/38 148/160/38 8/38/38
f 148/160/38 149/161/38 8/38/38
f 149/161/38 150/162/38 8/38/38
f 150/162/38 151/163/38 8/38/38
f 9/164/38 8/38/38 151/163/38
usemtl dirt.018
f 1/165/39 152/166/39 13/167/39
f 152/166/39 1/165/39 153/168/39
f 155/166/40 6/165/40 154/168/40
f 6/165/40 155/166/40 8/167/40
f 12/169/41 157/170/41 156/171/41
f 8/172/41 157/170/41 12/169/41
f 157/170/41 8/172/41 155/173/41
f 6/167/42 158/174/42 154/175/42
f 18/165/42 158/174/42 6/167/42
f 158/174/42 18/165/42 159/176/42
f 160/177/43 152/76/43 153/77/43
f 152/76/43 160/177/43 161/178/43
f 161/178/43 160/177/43 159/179/43
f 159/179/43 160/177/43 156/180/43
f 159/179/43 156/180/43 157/181/43
f 159/179/43 157/181/43 158/182/43
f 158/182/43 157/181/43 155/73/43
f 158/182/43 155/73/43 154/74/43
f 18/167/44 161/183/44 159/184/44
f 13/165/44 161/183/44 18/167/44
f 161/183/44 13/165/44 152/185/44
f 1/186/45 160/187/45 153/188/45
f 12/189/45 160/187/45 1/186/45
f 160/187/45 12/189/45 156/190/45
