# Blender 4.1.1
# www.blender.org
mtllib group125708411.mtl
o group125708411.003
v 0.019216 -1.002344 -0.058495
v 0.039989 -0.996015 -0.092668
v 0.020869 -1.012390 -0.123819
v 0.016122 -0.955354 -0.092722
v 0.062238 -0.942180 -0.156371
v 0.049261 -0.957478 -0.105349
v -0.005060 -0.961473 -0.129816
v -0.010887 -0.991137 -0.108910
vn 0.4977 -0.8553 0.1441
vn 0.1832 0.9279 0.3248
vn 0.3598 0.2124 0.9085
vn -0.2903 -0.2564 -0.9219
vn -0.8551 0.2673 0.4442
vn 0.8023 -0.5637 -0.1962
vn -0.5136 -0.8499 0.1177
vn -0.5904 -0.3843 -0.7098
vn -0.6879 0.5035 0.5227
vn -0.2759 0.9612 -0.0010
vn 0.7333 0.4312 0.5257
vn 0.9662 -0.1682 0.1953
vt -0.087502 0.040526
vt -0.083505 0.040275
vt -0.082338 0.036398
vt 0.068771 0.024373
vt 0.073413 0.027291
vt 0.068760 0.020821
vt -0.008185 0.025996
vt -0.004027 0.026155
vt -0.004821 0.022692
vt 0.002478 0.014483
vt -0.001340 0.020924
vt 0.006961 0.018077
vt -0.084511 -0.009779
vt -0.088726 -0.010705
vt -0.083276 -0.004090
vt -0.085570 0.036351
vt -0.082077 0.044401
vt -0.081606 0.035782
vt -0.075871 0.042675
vt -0.081798 0.041896
vt -0.081590 0.045992
vt -0.014500 0.046100
vt -0.015401 0.042098
vt -0.019044 0.042585
vt 0.058589 -0.055502
vt 0.055370 -0.057277
vt 0.050077 -0.054500
vt 0.088015 0.033435
vt 0.089233 0.026047
vt 0.084918 0.026092
vt 0.029853 0.055645
vt 0.024037 0.055890
vt 0.026581 0.059039
vt -0.005655 0.095034
vt -0.008637 0.090433
vt -0.012790 0.090175
s 0
usemtl mat20.001
f 3/1/1 2/2/1 1/3/1
f 6/4/2 5/5/2 4/6/2
f 2/7/3 6/8/3 4/9/3
f 7/10/4 5/11/4 3/12/4
f 4/13/5 7/14/5 1/15/5
f 3/16/6 5/17/6 2/18/6
f 1/19/7 8/20/7 3/21/7
f 3/22/8 8/23/8 7/24/8
f 7/25/9 8/26/9 1/27/9
f 5/28/10 7/29/10 4/30/10
f 4/31/11 1/32/11 2/33/11
f 5/34/12 6/35/12 2/36/12
