# Blender 4.1.1
# www.blender.org
mtllib blockSnowHalf.mtl
o blockSnowHalf
v -0.591514 -0.500000 -0.341493
v -0.500000 -0.591514 -0.341493
v -0.500000 -0.500000 -0.500000
v 0.591514 0.000000 -0.341493
v 0.583944 0.039992 -0.354604
v 0.599084 -0.039992 -0.328382
v 0.500000 -0.591514 -0.341493
v 0.591514 -0.500000 -0.341493
v 0.500000 -0.500000 -0.500000
v 0.591514 0.500000 -0.341493
v 0.500000 0.591514 -0.341493
v 0.500000 0.500000 -0.500000
v -0.591514 0.500000 -0.341493
v -0.500000 0.500000 -0.500000
v -0.500000 0.591514 -0.341493
v 0.250000 0.616514 -0.298192
v 0.207262 0.615811 -0.299410
v 0.292738 0.615811 -0.299410
v 0.335291 0.613704 -0.303059
v 0.164709 0.613704 -0.303059
v 0.377476 0.610203 -0.309123
v 0.122524 0.610203 -0.309123
v 0.419108 0.605322 -0.317576
v 0.080892 0.605322 -0.317576
v 0.460008 0.599084 -0.328382
v 0.039992 0.599084 -0.328382
v -0.039992 0.583944 -0.354604
v -0.080892 0.577706 -0.365410
v -0.122524 0.572825 -0.373863
v -0.164709 0.569324 -0.379927
v -0.207262 0.567217 -0.383576
v -0.250000 0.566514 -0.384794
v -0.292738 0.567217 -0.383576
v -0.335291 0.569324 -0.379927
v -0.377476 0.572825 -0.373863
v -0.419108 0.577706 -0.365410
v -0.460008 0.583944 -0.354604
v 0.599084 -0.460008 -0.328382
v 0.605322 -0.419108 -0.317576
v 0.610203 -0.377476 -0.309123
v 0.613704 -0.335291 -0.303059
v 0.615811 -0.292738 -0.299410
v 0.616514 -0.250000 -0.298192
v 0.615811 -0.207262 -0.299410
v 0.613704 -0.164709 -0.303059
v 0.610203 -0.122524 -0.309123
v 0.605322 -0.080892 -0.317576
v 0.577706 0.080892 -0.365410
v 0.572825 0.122524 -0.373863
v 0.569324 0.164709 -0.379927
v 0.567217 0.207262 -0.383576
v 0.566514 0.250000 -0.384794
v 0.567217 0.292738 -0.383576
v 0.569324 0.335291 -0.379927
v 0.572825 0.377476 -0.373863
v 0.577706 0.419108 -0.365410
v 0.583944 0.460008 -0.354604
v -0.250000 -0.616514 -0.298192
v -0.207262 -0.615811 -0.299410
v -0.292738 -0.615811 -0.299410
v -0.335291 -0.613704 -0.303059
v -0.164709 -0.613704 -0.303059
v -0.377476 -0.610203 -0.309123
v -0.122524 -0.610203 -0.309123
v -0.419108 -0.605322 -0.317576
v -0.080892 -0.605322 -0.317576
v -0.460008 -0.599084 -0.328382
v -0.039992 -0.599084 -0.328382
v 0.039992 -0.583944 -0.354604
v 0.080892 -0.577706 -0.365410
v 0.122524 -0.572825 -0.373863
v 0.164709 -0.569324 -0.379927
v 0.207262 -0.567217 -0.383576
v 0.250000 -0.566514 -0.384794
v 0.292738 -0.567217 -0.383576
v 0.335291 -0.569324 -0.379927
v 0.377476 -0.572825 -0.373863
v 0.419108 -0.577706 -0.365410
v 0.460008 -0.583944 -0.354604
v -0.583944 -0.460008 -0.354604
v -0.577706 -0.419108 -0.365410
v -0.572825 -0.377476 -0.373863
v -0.569324 -0.335291 -0.379927
v -0.567217 -0.292738 -0.383576
v -0.566514 -0.250000 -0.384794
v -0.567217 -0.207262 -0.383576
v -0.569324 -0.164709 -0.379927
v -0.572825 -0.122524 -0.373863
v -0.577706 -0.080892 -0.365410
v -0.583944 -0.039992 -0.354604
v -0.599084 0.039992 -0.328382
v -0.605322 0.080892 -0.317576
v -0.610203 0.122524 -0.309123
v -0.613704 0.164709 -0.303059
v -0.615811 0.207262 -0.299410
v -0.616514 0.250000 -0.298192
v -0.615811 0.292738 -0.299410
v -0.613704 0.335291 -0.303059
v -0.610203 0.377476 -0.309123
v -0.605322 0.419108 -0.317576
v -0.599084 0.460008 -0.328382
v 0.500000 0.500000 0.000000
v -0.500000 0.500000 0.000000
v 0.500000 -0.500000 0.000000
v -0.500000 -0.500000 0.000000
vn -0.6547 -0.6547 -0.3780
vn 0.6547 0.6547 0.3780
vn 0.8660 -0.0001 -0.5000
vn 0.8660 -0.0000 -0.5000
vn 0.6547 -0.6547 -0.3780
vn -0.6547 0.6547 0.3780
vn 0.6547 0.6547 -0.3780
vn -0.6547 -0.6547 0.3780
vn -0.6547 0.6547 -0.3780
vn 0.6547 -0.6547 0.3780
vn -0.0000 0.8661 -0.4998
vn -0.0000 0.8660 -0.5000
vn -0.0000 -0.8661 0.4998
vn -0.0000 -0.8660 0.5000
vn 0.8661 -0.0000 -0.4999
vn 0.8661 -0.0000 -0.5000
vn -0.8660 -0.0000 0.5000
vn -0.8661 -0.0000 0.4999
vn -0.8660 0.0001 0.5000
vn -0.8661 -0.0000 0.5000
vn -0.0000 -0.8660 -0.5000
vn -0.0000 0.8660 0.5000
vn -0.0000 -0.0000 -1.0000
vn -0.8660 -0.0000 -0.5000
vn -0.8661 -0.0000 -0.4999
vn 0.8660 -0.0000 0.5000
vn 0.8661 -0.0000 0.4999
vn -0.0000 1.0000 -0.0000
vn 1.0000 -0.0000 -0.0000
vn -0.0000 -0.0000 1.0000
vn -0.0000 -1.0000 -0.0000
vn -1.0000 -0.0000 -0.0000
vt -0.000002 7.702709
vt -2.547647 0.962275
vt 2.547643 0.962275
vt 1.574473 -0.596641
vt -1.574472 0.595437
vt 0.000000 -0.000602
vt -0.000000 7.702708
vt -2.547645 0.962274
vt 2.547645 0.962274
vt 0.000001 7.702708
vt -2.547643 0.962275
vt 2.547646 0.962275
vt 2.547644 0.962275
vt -0.000000 7.702709
vt -2.547644 0.962275
vt 11.525130 -1.913748
vt 8.159919 -1.913748
vt 9.842525 -1.969122
vt 13.200450 -1.747857
vt 6.484595 -1.747857
vt 14.861250 -1.472174
vt 4.823804 -1.472175
vt 16.500311 -1.087875
vt 3.184733 -1.087877
vt 18.110571 -0.596661
vt 1.574477 -0.596663
vt 19.685040 -0.000616
vt -1.574468 0.595427
vt 19.685040 7.205211
vt -3.184724 1.086641
vt -4.823794 1.470940
vt -6.484586 1.746622
vt -8.159909 1.912513
vt -9.842515 1.967886
vt -19.685040 7.205207
vt -11.525120 1.912512
vt -13.200440 1.746621
vt -14.861240 1.470939
vt -16.500311 1.086640
vt -18.110559 0.595425
vt -19.685030 -0.000620
vt 19.685040 7.205225
vt 18.110571 -0.596641
vt 19.685040 -0.000602
vt -19.685040 7.205225
vt 16.500311 -1.087867
vt 14.861240 -1.472154
vt 13.200450 -1.747841
vt 11.525130 -1.913727
vt 9.842520 -1.969107
vt 8.159913 -1.913727
vt 6.484591 -1.747841
vt 4.823799 -1.472154
vt 3.184728 -1.087867
vt -3.184728 1.086662
vt -4.823799 1.470950
vt -6.484591 1.746637
vt -8.159913 1.912524
vt -9.842520 1.967903
vt -11.525130 1.912524
vt -13.200450 1.746637
vt -14.861240 1.470950
vt -16.500311 1.086662
vt -18.110559 0.595437
vt -19.685040 -0.000602
vt 18.110559 -0.596641
vt 1.574473 -0.596641
vt 19.685040 -0.000602
vt -18.110571 0.595437
vt -19.685040 -0.000602
vt -19.685040 -19.685040
vt 19.685040 19.685040
vt -19.685040 19.685040
vt 19.685040 -19.685040
vt 16.500320 -1.087875
vt -19.685040 0.000000
vt 19.685040 0.000000
vt 19.685040 -0.000000
vt -19.685040 -0.000000
vt -19.685040 0.000000
vt 19.685040 0.000000
s 0
usemtl snow.005
f 3/1/1 2/2/1 1/3/1
f 1/3/2 2/2/2 3/1/2
f 6/4/3 5/5/4 4/6/4
f 9/7/5 8/8/5 7/9/5
f 7/9/6 8/8/6 9/7/6
f 12/10/7 11/11/7 10/12/7
f 10/12/8 11/11/8 12/10/8
f 15/13/9 14/14/9 13/15/9
f 13/15/10 14/14/10 15/13/10
f 18/16/11 17/17/11 16/18/11
f 17/17/12 18/16/12 19/19/12
f 17/17/12 19/19/12 20/20/12
f 20/20/12 19/19/12 21/21/12
f 20/20/12 21/21/12 22/22/12
f 22/22/12 21/21/12 23/23/12
f 22/22/12 23/23/12 24/24/12
f 24/24/12 23/23/12 25/25/12
f 24/24/12 25/25/12 26/26/12
f 26/26/12 25/25/12 11/27/12
f 26/26/12 11/27/12 27/28/12
f 27/28/12 11/27/12 12/29/12
f 27/28/12 12/29/12 28/30/12
f 28/30/12 12/29/12 29/31/12
f 29/31/12 12/29/12 30/32/12
f 30/32/12 12/29/12 31/33/12
f 31/33/12 12/29/12 32/34/12
f 14/35/12 32/34/12 12/29/12
f 14/35/12 33/36/12 32/34/12
f 14/35/12 34/37/12 33/36/12
f 14/35/12 35/38/12 34/37/12
f 14/35/12 36/39/12 35/38/12
f 14/35/12 37/40/12 36/39/12
f 37/40/12 14/35/12 15/41/12
f 16/18/13 17/17/13 18/16/13
f 19/19/14 18/16/14 17/17/14
f 20/20/14 19/19/14 17/17/14
f 21/21/14 19/19/14 20/20/14
f 22/22/14 21/21/14 20/20/14
f 23/23/14 21/21/14 22/22/14
f 24/24/14 23/23/14 22/22/14
f 25/25/14 23/23/14 24/24/14
f 26/26/14 25/25/14 24/24/14
f 11/27/14 25/25/14 26/26/14
f 27/28/14 11/27/14 26/26/14
f 12/29/14 11/27/14 27/28/14
f 28/30/14 12/29/14 27/28/14
f 29/31/14 12/29/14 28/30/14
f 30/32/14 12/29/14 29/31/14
f 31/33/14 12/29/14 30/32/14
f 32/34/14 12/29/14 31/33/14
f 12/29/14 32/34/14 14/35/14
f 32/34/14 33/36/14 14/35/14
f 33/36/14 34/37/14 14/35/14
f 34/37/14 35/38/14 14/35/14
f 35/38/14 36/39/14 14/35/14
f 36/39/14 37/40/14 14/35/14
f 15/41/14 14/35/14 37/40/14
f 9/42/4 38/43/4 8/44/4
f 38/43/4 9/42/4 12/45/4
f 38/43/4 12/45/4 39/46/4
f 39/46/4 12/45/4 40/47/4
f 40/47/4 12/45/4 41/48/4
f 41/48/4 12/45/4 42/49/4
f 42/49/4 12/45/4 43/50/4
f 43/50/4 12/45/4 44/51/4
f 44/51/4 12/45/4 45/52/4
f 45/52/4 12/45/4 46/53/4
f 46/53/4 12/45/4 47/54/4
f 47/54/4 12/45/4 5/5/4
f 47/54/15 5/5/15 6/4/15
f 5/5/16 12/45/16 48/55/16
f 48/55/4 12/45/4 49/56/4
f 49/56/4 12/45/4 50/57/4
f 50/57/4 12/45/4 51/58/4
f 51/58/4 12/45/4 52/59/4
f 52/59/4 12/45/4 53/60/4
f 53/60/4 12/45/4 54/61/4
f 54/61/4 12/45/4 55/62/4
f 55/62/4 12/45/4 56/63/4
f 56/63/4 12/45/4 57/64/4
f 57/64/4 12/45/4 10/65/4
f 8/44/17 38/43/17 9/42/17
f 12/45/17 9/42/17 38/43/17
f 39/46/17 12/45/17 38/43/17
f 40/47/17 12/45/17 39/46/17
f 41/48/17 12/45/17 40/47/17
f 42/49/17 12/45/17 41/48/17
f 43/50/17 12/45/17 42/49/17
f 44/51/17 12/45/17 43/50/17
f 45/52/17 12/45/17 44/51/17
f 46/53/17 12/45/17 45/52/17
f 47/54/17 12/45/17 46/53/17
f 5/5/17 12/45/17 47/54/17
f 6/4/18 5/5/18 47/54/18
f 4/6/17 5/5/19 6/4/17
f 48/55/20 12/45/20 5/5/20
f 49/56/17 12/45/17 48/55/17
f 50/57/17 12/45/17 49/56/17
f 51/58/17 12/45/17 50/57/17
f 52/59/17 12/45/17 51/58/17
f 53/60/17 12/45/17 52/59/17
f 54/61/17 12/45/17 53/60/17
f 55/62/17 12/45/17 54/61/17
f 56/63/17 12/45/17 55/62/17
f 57/64/17 12/45/17 56/63/17
f 10/65/17 12/45/17 57/64/17
f 60/49/21 59/51/21 58/50/21
f 59/51/21 60/49/21 61/48/21
f 59/51/21 61/48/21 62/52/21
f 62/52/21 61/48/21 63/47/21
f 62/52/21 63/47/21 64/53/21
f 64/53/21 63/47/21 65/46/21
f 64/53/21 65/46/21 66/54/21
f 66/54/21 65/46/21 67/66/21
f 66/54/21 67/66/21 68/67/21
f 68/67/21 67/66/21 2/68/21
f 68/67/21 2/68/21 69/5/21
f 69/5/21 2/68/21 3/42/21
f 69/5/21 3/42/21 70/55/21
f 70/55/21 3/42/21 71/56/21
f 71/56/21 3/42/21 72/57/21
f 72/57/21 3/42/21 73/58/21
f 73/58/21 3/42/21 74/59/21
f 9/45/21 74/59/21 3/42/21
f 9/45/21 75/60/21 74/59/21
f 9/45/21 76/61/21 75/60/21
f 9/45/21 77/62/21 76/61/21
f 9/45/21 78/63/21 77/62/21
f 9/45/21 79/69/21 78/63/21
f 79/69/21 9/45/21 7/70/21
f 58/50/22 59/51/22 60/49/22
f 61/48/22 60/49/22 59/51/22
f 62/52/22 61/48/22 59/51/22
f 63/47/22 61/48/22 62/52/22
f 64/53/22 63/47/22 62/52/22
f 65/46/22 63/47/22 64/53/22
f 66/54/22 65/46/22 64/53/22
f 67/66/22 65/46/22 66/54/22
f 68/67/22 67/66/22 66/54/22
f 2/68/22 67/66/22 68/67/22
f 69/5/22 2/68/22 68/67/22
f 3/42/22 2/68/22 69/5/22
f 70/55/22 3/42/22 69/5/22
f 71/56/22 3/42/22 70/55/22
f 72/57/22 3/42/22 71/56/22
f 73/58/22 3/42/22 72/57/22
f 74/59/22 3/42/22 73/58/22
f 3/42/22 74/59/22 9/45/22
f 74/59/22 75/60/22 9/45/22
f 75/60/22 76/61/22 9/45/22
f 76/61/22 77/62/22 9/45/22
f 77/62/22 78/63/22 9/45/22
f 78/63/22 79/69/22 9/45/22
f 7/70/22 9/45/22 79/69/22
f 9/71/23 14/72/23 12/73/23
f 14/72/23 9/71/23 3/74/23
f 80/40/24 3/35/24 1/41/24
f 3/35/24 80/40/24 81/39/24
f 3/35/24 81/39/24 82/38/24
f 3/35/24 82/38/24 83/37/24
f 3/35/24 83/37/24 14/29/24
f 14/29/25 83/37/25 84/36/25
f 14/29/24 84/36/24 85/34/24
f 14/29/24 85/34/24 86/33/24
f 14/29/24 86/33/24 87/32/24
f 14/29/24 87/32/24 88/31/24
f 14/29/24 88/31/24 89/30/24
f 14/29/24 89/30/24 90/28/24
f 14/29/24 90/28/24 91/26/24
f 14/29/24 91/26/24 92/24/24
f 14/29/24 92/24/24 93/22/24
f 14/29/24 93/22/24 94/20/24
f 14/29/24 94/20/24 95/17/24
f 14/29/24 95/17/24 96/18/24
f 14/29/24 96/18/24 97/16/24
f 14/29/24 97/16/24 98/19/24
f 14/29/24 98/19/24 99/21/24
f 14/29/24 99/21/24 100/75/24
f 14/29/24 100/75/24 101/25/24
f 14/29/24 101/25/24 13/27/24
f 1/41/26 3/35/26 80/40/26
f 81/39/26 80/40/26 3/35/26
f 82/38/26 81/39/26 3/35/26
f 83/37/26 82/38/26 3/35/26
f 14/29/26 83/37/26 3/35/26
f 84/36/27 83/37/27 14/29/27
f 85/34/26 84/36/26 14/29/26
f 86/33/26 85/34/26 14/29/26
f 87/32/26 86/33/26 14/29/26
f 88/31/26 87/32/26 14/29/26
f 89/30/26 88/31/26 14/29/26
f 90/28/26 89/30/26 14/29/26
f 91/26/26 90/28/26 14/29/26
f 92/24/26 91/26/26 14/29/26
f 93/22/26 92/24/26 14/29/26
f 94/20/26 93/22/26 14/29/26
f 95/17/26 94/20/26 14/29/26
f 96/18/26 95/17/26 14/29/26
f 97/16/26 96/18/26 14/29/26
f 98/19/26 97/16/26 14/29/26
f 99/21/26 98/19/26 14/29/26
f 100/75/26 99/21/26 14/29/26
f 101/25/26 100/75/26 14/29/26
f 13/27/26 101/25/26 14/29/26
usemtl dirt.017
f 12/72/28 103/76/28 102/77/28
f 103/76/28 12/72/28 14/73/28
f 12/73/29 104/78/29 9/72/29
f 104/78/29 12/73/29 102/79/29
f 103/73/30 104/74/30 102/72/30
f 104/74/30 103/73/30 105/71/30
f 3/72/31 104/80/31 105/81/31
f 104/80/31 3/72/31 9/73/31
f 103/77/32 3/73/32 105/76/32
f 3/73/32 103/77/32 14/72/32
