# Blender 4.1.1
# www.blender.org
mtllib blockSnowRoundedLarge.mtl
o blockSnowRoundedLarge
v 0.900000 0.900000 -1.000000
v 0.925000 0.943301 -0.986602
v 0.900000 0.950000 -0.986602
v -0.900000 0.900000 -1.000000
v -0.900000 0.950000 -0.986602
v -0.925000 0.943301 -0.986602
v 0.950000 0.900000 -0.986602
v 0.943301 0.925000 -0.986602
v 0.900000 -0.950000 -0.986602
v 0.925000 -0.943301 -0.986602
v 0.900000 -0.900000 -1.000000
v 0.943301 -0.925000 -0.986602
v 0.950000 -0.900000 -0.986602
v -0.925000 -0.943301 -0.986602
v -0.900000 -0.900000 -1.000000
v -0.943301 -0.925000 -0.986602
v -0.943301 0.925000 -0.986602
v -0.950000 0.900000 -0.986602
v -0.900000 -0.950000 -0.986602
v -0.950000 -0.900000 -0.986602
v 0.900000 1.000000 -0.700000
v -0.900000 1.000000 -0.700000
v 0.900000 1.000000 -0.900000
v -0.900000 1.000000 -0.900000
v 1.000000 -0.900000 -0.900000
v 1.000000 -0.900000 -0.700000
v 1.000000 0.900000 -0.900000
v 1.000000 0.900000 -0.700000
v -0.900000 -1.000000 -0.700000
v 0.900000 -1.000000 -0.700000
v -0.900000 -1.000000 -0.900000
v 0.900000 -1.000000 -0.900000
v -1.000000 -0.900000 -0.700000
v -1.000000 -0.900000 -0.900000
v -1.000000 0.900000 -0.700000
v -1.000000 0.900000 -0.900000
v 0.900000 0.986602 -0.950000
v -0.900000 0.986602 -0.950000
v 0.986602 -0.900000 -0.950000
v 0.986602 0.900000 -0.950000
v -0.950000 0.986602 -0.700000
v -0.986602 0.950000 -0.700000
v -0.950000 0.986602 -0.900000
v -0.986602 0.950000 -0.900000
v 0.900000 -0.986602 -0.950000
v -0.900000 -0.986602 -0.950000
v -0.986602 -0.900000 -0.950000
v -0.986602 0.900000 -0.950000
v 0.986602 0.950000 -0.900000
v 0.986602 0.950000 -0.700000
v 0.986602 -0.950000 -0.900000
v 0.986602 -0.950000 -0.700000
v -0.950000 -0.986602 -0.700000
v -0.950000 -0.986602 -0.900000
v -0.986602 -0.950000 -0.700000
v -0.986602 -0.950000 -0.900000
v 0.950000 -0.986602 -0.700000
v 0.950000 -0.986602 -0.900000
v 0.950000 0.986602 -0.700000
v 0.950000 0.986602 -0.900000
v 0.943301 -0.975000 -0.950000
v 0.975000 0.943301 -0.950000
v 0.943301 0.975000 -0.950000
v 0.975000 -0.943301 -0.950000
v -0.943301 0.975000 -0.950000
v -0.975000 0.943301 -0.950000
v -0.943301 -0.975000 -0.950000
v -0.975000 -0.943301 -0.950000
v 0.900000 0.950000 -0.013397
v 0.925000 0.943301 -0.013397
v 0.900000 0.900000 0.000000
v 0.943301 0.925000 -0.013397
v -0.925000 0.943301 -0.013397
v -0.900000 0.900000 0.000000
v -0.943301 0.925000 -0.013397
v 0.950000 0.900000 -0.013397
v -0.950000 0.900000 -0.013397
v -0.900000 -0.900000 0.000000
v -0.943301 -0.925000 -0.013397
v -0.950000 -0.900000 -0.013397
v -0.900000 0.950000 -0.013397
v -0.900000 -0.950000 -0.013397
v -0.925000 -0.943301 -0.013397
v 0.943301 -0.925000 -0.013397
v 0.925000 -0.943301 -0.013397
v 0.900000 -0.900000 0.000000
v 0.950000 -0.900000 -0.013397
v 0.900000 -0.950000 -0.013397
v -0.900000 -1.000000 -0.100000
v 0.900000 -1.000000 -0.100000
v 1.000000 -0.900000 -0.100000
v 1.000000 0.900000 -0.100000
v 0.900000 1.000000 -0.100000
v -0.900000 1.000000 -0.100000
v -1.000000 -0.900000 -0.100000
v -1.000000 0.900000 -0.100000
v -0.986602 0.900000 -0.050000
v -0.986602 -0.900000 -0.050000
v 0.900000 -0.986602 -0.050000
v -0.900000 -0.986602 -0.050000
v 0.900000 0.986602 -0.050000
v -0.900000 0.986602 -0.050000
v 0.986602 -0.900000 -0.050000
v 0.986602 0.900000 -0.050000
v 0.950000 -0.986602 -0.100000
v 0.986602 -0.950000 -0.100000
v -0.950000 -0.986602 -0.100000
v -0.986602 -0.950000 -0.100000
v 0.950000 0.986602 -0.100000
v 0.986602 0.950000 -0.100000
v -0.950000 0.986602 -0.100000
v -0.986602 0.950000 -0.100000
v 0.975000 0.943301 -0.050000
v 0.943301 0.975000 -0.050000
v -0.943301 0.975000 -0.050000
v -0.975000 0.943301 -0.050000
v -0.975000 -0.943301 -0.050000
v -0.943301 -0.975000 -0.050000
v 0.975000 -0.943301 -0.050000
v 0.943301 -0.975000 -0.050000
vn 0.0698 0.5140 -0.8550
vn 0.2654 0.4597 -0.8475
vn 0.1453 0.1453 -0.9787
vn -0.2654 0.4597 -0.8475
vn -0.0698 0.5140 -0.8550
vn -0.0852 0.2179 -0.9722
vn 0.4597 0.2654 -0.8475
vn 0.5140 0.0698 -0.8550
vn 0.2179 -0.0852 -0.9722
vn 0.2654 -0.4597 -0.8475
vn 0.1408 -0.5256 -0.8390
vn 0.4597 -0.2654 -0.8475
vn 0.5140 -0.0698 -0.8550
vn -0.4597 -0.2654 -0.8475
vn -0.1732 -0.1732 -0.9695
vn -0.2654 -0.4597 -0.8475
vn -0.5256 0.1408 -0.8390
vn -0.4597 0.2654 -0.8475
vn -0.0853 0.2179 -0.9722
vn -0.1408 -0.5256 -0.8390
vn -0.5256 -0.1408 -0.8390
vn -0.0000 1.0000 -0.0000
vn 1.0000 -0.0000 -0.0000
vn -0.0000 -1.0000 -0.0000
vn -1.0000 -0.0000 -0.0000
vn -0.0000 -0.0000 -1.0000
vn 0.0698 0.5141 -0.8549
vn -0.1129 0.8653 -0.4884
vn 0.1129 0.8653 -0.4884
vn 0.0698 0.5140 -0.8549
vn -0.0698 0.5140 -0.8549
vn 0.5140 0.0698 -0.8549
vn 0.8653 -0.1129 -0.4884
vn 0.5141 -0.0698 -0.8549
vn 0.5141 0.0698 -0.8549
vn 0.8653 0.1129 -0.4884
vn 0.8653 0.1129 -0.4883
vn 0.9585 -0.1235 -0.2568
vn 0.8653 -0.1129 -0.4883
vn 0.9585 0.1235 -0.2568
vn 0.1129 0.8653 -0.4883
vn -0.1235 0.9585 -0.2568
vn 0.1235 0.9585 -0.2568
vn -0.1129 0.8653 -0.4883
vn -0.5000 0.8660 -0.0000
vn -0.8660 0.5000 -0.0001
vn -0.8660 0.5000 -0.0000
vn -0.0000 -0.8660 -0.5000
vn -0.0000 -0.5000 -0.8660
vn -0.9659 -0.0000 -0.2588
vn -0.8661 -0.0000 -0.5000
vn -0.0000 -0.8661 -0.5000
vn -0.0000 -0.9659 -0.2588
vn -0.8660 -0.0000 -0.5000
vn -0.5000 -0.0000 -0.8660
vn -0.2588 0.9659 -0.0000
vn -0.5000 0.8661 -0.0000
vn -0.0000 -0.5000 -0.8661
vn -0.0000 -0.2588 -0.9659
vn -0.5000 -0.0000 -0.8661
vn -0.2588 -0.0000 -0.9659
vn -0.8661 0.5000 -0.0000
vn -0.9659 0.2588 -0.0000
vn 0.8661 0.5000 -0.0000
vn 0.9659 0.2588 -0.0000
vn 0.9659 -0.2588 -0.0000
vn 0.8661 -0.5000 -0.0000
vn -0.8660 -0.5000 -0.0000
vn -0.5000 -0.8660 -0.0000
vn -0.5000 -0.8661 -0.0000
vn -0.2588 -0.9659 -0.0000
vn -0.9659 -0.2588 -0.0000
vn -0.8661 -0.5000 -0.0000
vn 0.2588 -0.9659 -0.0000
vn 0.5000 -0.8661 -0.0000
vn 0.8660 0.5000 -0.0000
vn 0.5000 0.8660 -0.0000
vn 0.8660 -0.5000 -0.0000
vn 0.5000 -0.8660 -0.0000
vn 0.8660 -0.5000 -0.0001
vn 0.5000 0.8661 -0.0000
vn 0.2588 0.9659 -0.0000
vn 0.2285 -0.8528 -0.4696
vn 0.4829 -0.8365 -0.2588
vn 0.2506 -0.9351 -0.2506
vn 0.2285 -0.8528 -0.4695
vn 0.4380 -0.7586 -0.4823
vn 0.7586 0.4380 -0.4823
vn 0.4830 0.8365 -0.2588
vn 0.8365 0.4830 -0.2588
vn 0.4380 0.7586 -0.4823
vn 0.1236 0.9585 -0.2568
vn 0.4829 0.8365 -0.2588
vn 0.4598 0.2655 -0.8474
vn 0.4380 0.7586 -0.4824
vn 0.7586 0.4380 -0.4824
vn 0.2655 0.4598 -0.8474
vn 0.4598 -0.2655 -0.8474
vn 0.7586 -0.4380 -0.4824
vn 0.4598 -0.2654 -0.8474
vn 0.5140 -0.0698 -0.8549
vn 0.4598 0.2654 -0.8474
vn 0.8365 -0.4830 -0.2588
vn 0.4830 -0.8365 -0.2588
vn 0.7586 -0.4380 -0.4823
vn 0.1409 -0.5256 -0.8390
vn 0.4380 -0.7586 -0.4824
vn 0.2655 -0.4598 -0.8474
vn 0.9585 -0.1236 -0.2568
vn 0.8365 -0.4829 -0.2588
vn -0.0698 0.5141 -0.8549
vn -0.4380 0.7586 -0.4824
vn -0.2655 0.4598 -0.8474
vn 0.9585 0.1236 -0.2568
vn 0.8365 0.4829 -0.2588
vn -0.5256 0.1409 -0.8390
vn -0.7586 0.4380 -0.4824
vn -0.4598 0.2655 -0.8474
vn -0.7586 0.4380 -0.4823
vn -0.8528 0.2285 -0.4696
vn -0.4829 0.8365 -0.2588
vn -0.1236 0.9585 -0.2568
vn -0.4380 0.7586 -0.4823
vn -0.4380 -0.7586 -0.4823
vn -0.2506 -0.9351 -0.2506
vn -0.4829 -0.8365 -0.2588
vn -0.2285 -0.8528 -0.4696
vn -0.8365 0.4829 -0.2588
vn -0.9351 0.2506 -0.2506
vn -0.8365 -0.4830 -0.2588
vn -0.4830 -0.8365 -0.2588
vn -0.7586 -0.4380 -0.4823
vn -0.4380 -0.7586 -0.4824
vn -0.4598 -0.2655 -0.8474
vn -0.2655 -0.4598 -0.8474
vn -0.7586 -0.4380 -0.4824
vn -0.1409 -0.5256 -0.8390
vn -0.8528 -0.2285 -0.4696
vn -0.4598 -0.2654 -0.8474
vn -0.8365 0.4830 -0.2588
vn -0.4830 0.8365 -0.2588
vn -0.9351 -0.2506 -0.2506
vn -0.8365 -0.4829 -0.2588
vn 0.1453 0.1453 0.9787
vn 0.2654 0.4597 0.8475
vn 0.0698 0.5140 0.8550
vn 0.4597 0.2654 0.8475
vn -0.4597 0.2654 0.8475
vn -0.1453 0.1453 0.9787
vn -0.2654 0.4597 0.8475
vn 0.5140 0.0698 0.8550
vn -0.5140 0.0698 0.8550
vn -0.5140 -0.0698 0.8550
vn -0.4597 -0.2654 0.8475
vn -0.1453 -0.1453 0.9787
vn -0.0698 0.5140 0.8550
vn -0.2654 -0.4597 0.8475
vn -0.0698 -0.5140 0.8550
vn 0.1453 -0.1453 0.9787
vn 0.2654 -0.4597 0.8475
vn 0.4597 -0.2654 0.8475
vn 0.5140 -0.0698 0.8550
vn 0.0698 -0.5140 0.8550
vn -0.0000 -0.0000 1.0000
vn 0.1454 0.1453 0.9787
vn -0.8653 0.1129 0.4884
vn -0.5140 -0.0698 0.8549
vn -0.5140 0.0698 0.8549
vn -0.5141 -0.0698 0.8549
vn -0.8653 -0.1129 0.4884
vn -0.8653 0.1129 0.4883
vn -0.9703 -0.1711 0.1712
vn -0.8653 -0.1129 0.4883
vn -0.9585 0.1235 0.2568
vn -0.1453 -0.1454 0.9787
vn -0.0698 -0.5140 0.8549
vn 0.1129 -0.8653 0.4884
vn 0.0698 -0.5141 0.8549
vn -0.0698 -0.5141 0.8549
vn -0.1129 -0.8653 0.4884
vn 0.1235 0.9585 0.2568
vn -0.1129 0.8653 0.4883
vn 0.1129 0.8653 0.4883
vn -0.1235 0.9585 0.2568
vn -0.1235 -0.9585 0.2568
vn 0.1129 -0.8653 0.4883
vn -0.1129 -0.8653 0.4883
vn 0.1711 -0.9703 0.1712
vn 0.1453 0.1454 0.9787
vn -0.1454 -0.1453 0.9787
vn 0.1129 0.8653 0.4884
vn -0.0698 0.5140 0.8549
vn 0.0698 0.5140 0.8549
vn -0.0698 0.5141 0.8549
vn -0.1129 0.8653 0.4884
vn 0.8653 0.1129 0.4884
vn 0.5141 -0.0698 0.8549
vn 0.8653 -0.1129 0.4884
vn 0.5140 -0.0698 0.8549
vn 0.5141 0.0698 0.8549
vn 0.9585 0.1235 0.2568
vn 0.8653 -0.1129 0.4883
vn 0.9703 -0.1711 0.1712
vn 0.8653 0.1129 0.4883
vn 0.4959 -0.8589 0.1278
vn 0.1712 -0.9703 0.1711
vn 0.4958 -0.8589 0.1278
vn 0.4960 -0.8589 0.1278
vn 0.5000 -0.8660 0.0001
vn 0.8660 -0.5001 -0.0000
vn 0.8589 -0.4959 0.1278
vn 0.8589 -0.4958 0.1278
vn 0.9703 -0.1712 0.1711
vn -0.8589 -0.4959 0.1278
vn -0.8589 -0.4960 0.1278
vn -0.8660 -0.5001 -0.0000
vn -0.9703 -0.1712 0.1711
vn 0.8660 0.5001 -0.0000
vn 0.4380 0.7586 0.4824
vn 0.4598 0.2655 0.8474
vn 0.7586 0.4380 0.4824
vn 0.2655 0.4598 0.8474
vn 0.4829 0.8365 0.2588
vn 0.1130 0.8653 0.4883
vn 0.4380 0.7586 0.4823
vn 0.1236 0.9585 0.2568
vn 0.8365 0.4830 0.2588
vn 0.7586 0.4380 0.4823
vn 0.4830 0.8365 0.2588
vn 0.8365 0.4829 0.2588
vn 0.9585 0.1236 0.2568
vn -0.2655 0.4598 0.8474
vn -0.4380 0.7586 0.4824
vn -0.4598 0.2655 0.8474
vn -0.7586 0.4380 0.4824
vn -0.5141 0.0698 0.8549
vn 0.5140 0.0698 0.8549
vn -0.8660 0.5001 -0.0000
vn -0.1236 0.9585 0.2568
vn -0.4380 0.7586 0.4823
vn -0.4829 0.8365 0.2588
vn -0.4830 0.8365 0.2588
vn -0.7586 0.4380 0.4823
vn -0.8365 0.4830 0.2588
vn -0.9585 0.1236 0.2568
vn -0.8365 0.4829 0.2588
vn -0.7586 -0.4380 0.4823
vn -0.9703 -0.1712 0.1712
vn -0.8589 -0.4959 0.1279
vn -0.4380 -0.7586 0.4823
vn -0.4830 -0.8365 0.2588
vn -0.4598 -0.2655 0.8474
vn -0.7586 -0.4380 0.4824
vn -0.4598 -0.2654 0.8474
vn -0.4829 -0.8365 0.2588
vn -0.1130 -0.8653 0.4883
vn -0.1236 -0.9585 0.2568
vn -0.4380 -0.7586 0.4824
vn -0.2655 -0.4598 0.8474
vn 0.4598 -0.2655 0.8474
vn 0.4380 -0.7586 0.4824
vn 0.7586 -0.4380 0.4824
vn 0.2655 -0.4598 0.8474
vn 0.0698 -0.5140 0.8549
vn 0.4598 -0.2654 0.8474
vn 0.7586 -0.4380 0.4823
vn 0.9703 -0.1712 0.1712
vn 0.1712 -0.9703 0.1712
vn 0.4380 -0.7586 0.4823
vn 0.4959 -0.8589 0.1279
vn 0.8589 -0.4959 0.1279
vt 24.545481 -33.266659
vt 25.564449 -33.266659
vt 25.054960 -31.293430
vt -25.564449 -33.266659
vt -24.545481 -33.266659
vt -25.054960 -31.293430
vt 0.000000 -37.762589
vt -0.509486 -39.735821
vt 0.509486 -39.735821
vt -0.000000 -37.762589
vt -0.000000 -37.762589
vt 0.000000 -37.762589
vt 35.433071 35.433071
vt -35.433071 27.559059
vt 35.433071 27.559059
vt -35.433071 35.433071
vt 35.433071 -35.433071
vt -35.433071 -35.433071
vt 35.433071 1.018973
vt -35.433071 -1.018973
vt 35.433071 -1.018973
vt -35.433071 1.018973
vt 35.433071 -24.035990
vt -35.433071 -26.073940
vt 35.433071 -26.073940
vt -35.433071 -24.035990
vt -35.433071 26.073940
vt 35.433071 24.035990
vt 35.433071 26.073940
vt -35.433071 24.035990
vt 1.018973 35.433071
vt -1.018973 27.559059
vt 1.018973 27.559059
vt -1.018973 35.433071
vt -24.035990 35.433071
vt -26.073940 27.559059
vt -24.035990 27.559059
vt -26.073940 35.433071
vt 26.073940 27.559059
vt 24.035990 35.433071
vt 24.035990 27.559059
vt 26.073940 35.433071
vt -24.172510 24.509741
vt -26.073940 22.476370
vt -24.035990 22.476370
vt -25.937420 24.509741
vt 0.882456 22.827600
vt -1.018973 20.794230
vt 1.018973 20.794230
vt -0.882456 22.827600
vt 25.937420 24.509741
vt 24.035990 22.476370
vt 26.073940 22.476370
vt 24.172510 24.509741
vt 0.509486 -8.196981
vt -0.882456 -10.200510
vt 0.882456 -10.200510
vt -0.509486 -8.196981
vt 25.564449 -3.532829
vt 24.172510 -5.536355
vt 25.937420 -5.536355
vt 24.545481 -3.532829
vt -25.564449 -3.532829
vt -24.172510 -5.536355
vt -24.545481 -3.532829
vt -25.937420 -5.536355
vt 25.054960 41.817329
vt 25.564449 43.790569
vt 24.545481 43.790569
vt -0.000000 48.286499
vt 0.509486 50.259731
vt -0.509486 50.259731
vt 0.000000 48.286499
vt -25.054960 41.817329
vt -24.545481 43.790569
vt -25.564449 43.790569
vt 0.000000 48.286499
vt -0.000000 48.286499
vt -35.433071 3.937008
vt 35.433071 3.937008
vt -35.433071 34.225719
vt 35.433071 36.263660
vt -35.433071 36.263660
vt 35.433071 34.225719
vt 35.433071 28.857821
vt -35.433071 26.819880
vt 35.433071 26.819880
vt -35.433071 28.857821
vt 35.433071 11.954640
vt -35.433071 13.992580
vt -35.433071 11.954640
vt 35.433071 13.992580
vt -26.073940 3.937008
vt -24.035990 3.937008
vt 1.018973 3.937008
vt -1.018973 3.937008
vt 26.073940 3.937008
vt 24.035990 3.937008
vt -0.882456 38.517620
vt 0.509486 36.514091
vt 0.882456 38.517620
vt -0.509486 36.514091
vt 26.073940 15.637820
vt 24.172510 13.604450
vt 25.937420 13.604450
vt 24.035990 15.637820
vt 1.018973 17.319960
vt -0.882456 15.286590
vt 0.882456 15.286590
vt -1.018973 17.319960
vt -26.073940 15.637820
vt -24.172510 13.604450
vt -24.035990 15.637820
vt -25.937420 13.604450
vt -24.172510 33.853470
vt -25.564449 31.849939
vt -24.545481 31.849939
vt -25.937420 33.853470
vt 25.937420 33.853470
vt 24.545481 31.849939
vt 25.564449 31.849939
vt 24.172510 33.853470
s 0
usemtl snow.013
f 3/1/1 2/2/2 1/3/3
f 6/4/4 5/5/5 4/6/6
f 1/6/3 8/4/7 7/5/8
f 11/6/9 10/4/10 9/5/11
f 11/7/9 12/8/12 10/9/10
f 1/10/3 2/8/2 8/9/7
f 11/3/9 13/1/13 12/2/12
f 16/9/14 15/11/15 14/8/16
f 18/1/17 17/2/18 4/3/19
f 14/2/16 15/3/15 19/1/20
f 20/5/21 15/6/15 16/4/14
f 17/8/18 6/9/4 4/12/6
f 23/13/22 22/14/22 21/15/22
f 22/14/22 23/13/22 24/16/22
f 27/16/23 26/15/23 25/13/23
f 26/15/23 27/16/23 28/14/23
f 31/13/24 30/14/24 29/15/24
f 30/14/24 31/13/24 32/16/24
f 35/15/25 34/16/25 33/14/25
f 34/16/25 35/15/25 36/13/25
f 15/17/26 1/16/26 11/18/26
f 1/16/26 15/17/26 4/13/26
f 3/19/27 38/20/28 37/21/29
f 38/20/28 3/19/30 5/22/31
f 11/23/9 7/24/8 13/25/13
f 7/24/8 11/23/9 1/26/3
f 7/22/32 39/21/33 13/19/34
f 39/21/33 7/22/35 40/20/36
f 40/27/37 25/28/38 39/29/39
f 25/28/38 40/27/37 27/30/40
f 4/26/6 3/25/1 1/23/3
f 3/25/1 4/26/6 5/24/5
f 37/29/41 24/30/42 23/28/43
f 24/30/42 37/29/41 38/27/44
f 43/31/45 42/32/46 41/33/45
f 42/32/47 43/31/45 44/34/47
f 46/21/48 9/22/49 45/20/48
f 9/22/49 46/21/48 19/19/49
f 36/28/50 47/27/51 34/30/50
f 47/27/51 36/28/50 48/29/51
f 46/29/52 32/30/53 31/28/53
f 32/30/53 46/29/52 45/27/52
f 48/21/54 20/22/55 47/20/54
f 20/22/55 48/21/54 18/19/55
f 24/35/56 41/36/57 22/37/56
f 41/36/57 24/35/56 43/38/57
f 19/25/58 11/26/59 9/24/58
f 11/26/59 19/25/58 15/23/59
f 20/24/60 4/23/61 15/26/61
f 4/23/61 20/24/60 18/25/60
f 42/39/62 36/40/63 35/41/63
f 36/40/63 42/39/62 44/42/62
f 49/38/64 28/37/65 27/35/65
f 28/37/65 49/38/64 50/36/64
f 25/40/66 52/39/67 51/42/67
f 52/39/67 25/40/66 26/41/66
f 55/33/68 54/34/69 53/32/69
f 54/34/69 55/33/68 56/31/68
f 54/42/70 29/41/71 53/39/70
f 29/41/71 54/42/70 31/40/71
f 33/37/72 56/38/73 55/36/73
f 56/38/73 33/37/72 34/35/72
f 32/35/74 57/36/75 30/37/74
f 57/36/75 32/35/74 58/38/75
f 49/31/76 59/32/77 50/33/76
f 59/32/77 49/31/76 60/34/77
f 51/34/78 57/33/79 58/31/79
f 57/33/79 51/34/78 52/32/80
f 60/42/81 21/41/82 59/39/81
f 21/41/82 60/42/81 23/40/82
f 45/43/83 58/44/84 32/45/85
f 58/44/84 45/43/86 61/46/87
f 62/47/88 60/48/89 49/49/90
f 60/48/89 62/47/88 63/50/91
f 63/51/91 23/52/92 60/53/93
f 23/52/92 63/51/91 37/54/41
f 8/55/94 63/56/95 62/57/96
f 63/56/95 8/55/94 2/58/97
f 12/59/98 39/60/33 64/61/99
f 39/60/33 12/59/100 13/62/101
f 8/63/94 40/64/36 7/65/32
f 40/64/36 8/63/102 62/66/96
f 61/47/87 51/48/103 58/49/104
f 51/48/103 61/47/87 64/50/105
f 9/65/106 61/66/107 45/64/83
f 61/66/107 9/65/11 10/63/108
f 64/51/105 25/52/109 51/53/110
f 25/52/109 64/51/105 39/54/39
f 61/57/107 12/58/98 64/56/105
f 12/58/98 61/57/107 10/55/108
f 5/65/111 65/66/112 38/64/28
f 65/66/112 5/65/31 6/63/113
f 2/59/97 37/60/29 63/61/95
f 37/60/29 2/59/97 3/62/30
f 62/46/88 27/45/114 40/43/37
f 27/45/114 62/46/88 49/44/115
f 18/62/116 66/61/117 17/59/118
f 66/61/119 18/62/17 48/60/120
f 38/43/44 43/44/121 24/45/122
f 43/44/121 38/43/44 65/46/123
f 67/51/124 31/52/125 54/53/126
f 31/52/125 67/51/124 46/54/127
f 44/53/128 48/54/120 36/52/129
f 48/54/120 44/53/128 66/51/119
f 56/49/130 67/50/124 54/48/131
f 67/50/124 56/49/130 68/47/132
f 67/56/133 16/55/134 14/58/135
f 16/55/134 67/56/133 68/57/136
f 14/59/135 46/60/127 67/61/133
f 46/60/127 14/59/135 19/62/137
f 47/64/138 16/63/139 68/66/136
f 16/63/134 47/64/138 20/65/21
f 65/47/123 44/48/140 43/49/141
f 44/48/140 65/47/123 66/50/119
f 34/45/142 68/46/132 56/44/143
f 68/46/132 34/45/142 47/43/138
f 17/58/118 65/57/112 6/55/113
f 65/57/112 17/58/118 66/56/119
usemtl dirt.025
f 71/67/144 70/68/145 69/69/146
f 71/70/144 72/71/147 70/72/145
f 75/72/148 74/73/149 73/71/150
f 71/74/144 76/75/151 72/76/147
f 77/69/152 74/67/149 75/68/148
f 80/75/153 79/76/154 78/74/155
f 73/76/150 74/74/149 81/75/156
f 83/68/157 82/69/158 78/67/155
f 86/77/159 85/71/160 84/72/161
f 86/67/159 84/68/161 87/69/162
f 88/75/163 85/76/160 86/74/159
f 79/71/154 83/72/157 78/78/155
f 74/16/164 86/17/164 71/13/164
f 86/17/164 74/16/164 78/18/164
f 29/15/24 90/79/24 89/80/24
f 90/79/24 29/15/24 30/14/24
f 28/14/23 91/80/23 26/15/23
f 91/80/23 28/14/23 92/79/23
f 21/15/22 94/79/22 93/80/22
f 94/79/22 21/15/22 22/14/22
f 96/80/25 33/14/25 95/79/25
f 33/14/25 96/80/25 35/15/25
f 71/81/144 87/82/162 76/83/151
f 87/82/162 71/81/165 86/84/159
f 97/85/166 80/86/167 77/87/168
f 80/86/169 97/85/166 98/88/170
f 97/89/171 95/90/172 98/91/173
f 95/90/172 97/89/171 96/92/174
f 78/84/175 88/83/163 86/81/159
f 88/83/163 78/84/155 82/82/158
f 82/87/176 99/88/177 88/86/178
f 99/88/177 82/87/179 100/85/180
f 93/92/181 102/91/182 101/89/183
f 102/91/182 93/92/181 94/90/184
f 89/92/185 99/91/186 100/89/187
f 99/91/186 89/92/185 90/90/188
f 81/83/156 71/84/144 69/82/146
f 71/84/189 81/83/156 74/81/149
f 77/82/152 78/81/190 74/84/149
f 78/81/155 77/82/152 80/83/153
f 101/85/191 81/86/192 69/87/193
f 81/86/194 101/85/191 102/88/195
f 104/88/196 87/87/197 103/85/198
f 87/87/199 104/88/196 76/86/200
f 92/90/201 103/89/202 91/92/203
f 103/89/202 92/90/201 104/91/204
f 30/37/74 105/93/205 90/94/206
f 105/93/207 30/37/74 57/36/75
f 52/32/78 105/95/208 57/33/209
f 105/95/205 52/32/210 106/96/211
f 26/41/66 106/97/212 52/39/67
f 106/97/211 26/41/66 91/98/213
f 108/95/214 53/32/69 107/96/69
f 53/32/69 108/95/215 55/33/216
f 95/94/217 55/36/73 108/93/214
f 55/36/73 95/94/217 33/37/72
f 53/39/70 89/98/71 107/97/70
f 89/98/71 53/39/70 29/41/71
f 59/39/81 93/98/82 109/97/81
f 93/98/82 59/39/81 21/41/82
f 50/33/218 109/96/77 110/95/218
f 109/96/77 50/33/76 59/32/77
f 50/36/64 92/94/65 28/37/65
f 92/94/65 50/36/64 110/93/64
f 22/37/56 111/93/57 94/94/56
f 111/93/57 22/37/56 41/36/57
f 112/97/62 35/41/63 96/98/63
f 35/41/63 112/97/62 42/39/62
f 114/99/219 72/100/220 113/101/221
f 72/100/220 114/99/219 70/102/222
f 109/103/223 101/104/224 114/105/225
f 101/104/183 109/103/223 93/106/226
f 110/107/227 114/108/225 113/109/228
f 114/108/225 110/107/227 109/110/229
f 110/111/230 104/112/204 92/113/231
f 104/112/204 110/111/230 113/114/228
f 102/115/195 73/116/232 81/117/192
f 73/116/232 102/115/195 115/118/233
f 115/101/233 75/102/234 73/100/232
f 75/102/234 115/101/233 116/99/235
f 116/119/235 77/120/168 75/121/234
f 77/120/236 116/119/235 97/122/166
f 114/119/219 69/120/193 70/121/222
f 69/120/193 114/119/219 101/122/224
f 113/118/221 76/117/237 104/115/196
f 76/117/200 113/118/221 72/116/220
f 41/33/45 112/96/46 111/95/45
f 112/96/238 41/33/45 42/32/238
f 94/113/239 115/114/240 102/112/182
f 115/114/240 94/113/239 111/111/241
f 111/107/242 116/108/243 115/109/240
f 116/108/243 111/107/242 112/110/244
f 116/105/243 96/106/245 97/104/171
f 96/106/245 116/105/243 112/103/246
f 117/114/247 95/113/248 108/111/249
f 95/113/248 117/114/247 98/112/173
f 118/108/250 108/107/214 107/110/251
f 108/107/215 118/108/250 117/109/247
f 79/116/252 98/115/170 117/118/253
f 98/115/170 79/116/254 80/117/167
f 107/103/255 100/104/256 118/105/250
f 100/104/187 107/103/255 89/106/257
f 79/100/252 118/99/258 83/102/259
f 118/99/258 79/100/252 117/101/253
f 84/102/260 120/101/261 119/99/262
f 120/101/261 84/102/260 85/100/263
f 99/115/177 85/116/263 88/117/264
f 85/116/263 99/115/177 120/118/261
f 118/119/258 82/120/176 83/121/259
f 82/120/176 118/119/258 100/122/256
f 103/122/198 84/121/265 119/119/266
f 84/121/260 103/122/198 87/120/199
f 91/106/267 119/105/266 106/103/212
f 119/105/266 91/106/267 103/104/202
f 90/113/268 120/114/269 99/112/186
f 120/114/269 90/113/268 105/111/270
f 106/110/271 120/109/269 105/107/205
f 120/109/269 106/110/271 119/108/266
