# Blender 4.1.1
# www.blender.org
mtllib blockSnowQuarter.mtl
o blockSnowQuarter
v -0.341514 0.250000 -0.841493
v -0.250000 0.250000 -1.000000
v -0.250000 0.341514 -0.841493
v -0.341514 -0.250000 -0.841493
v -0.250000 -0.341514 -0.841493
v -0.250000 -0.250000 -1.000000
v 0.341514 0.000000 -0.841493
v 0.333944 0.019996 -0.854604
v 0.349084 -0.019996 -0.828382
v 0.250000 -0.250000 -1.000000
v 0.250000 -0.341514 -0.841493
v 0.341514 -0.250000 -0.841493
v 0.250000 0.250000 -1.000000
v 0.341514 0.250000 -0.841493
v 0.250000 0.341514 -0.841493
v -0.333944 -0.230004 -0.854604
v -0.327706 -0.209554 -0.865410
v -0.322825 -0.188738 -0.873863
v -0.319324 -0.167646 -0.879927
v -0.317217 -0.146369 -0.883576
v -0.316514 -0.125000 -0.884794
v -0.317217 -0.103631 -0.883576
v -0.319324 -0.082354 -0.879927
v -0.322825 -0.061262 -0.873863
v -0.327706 -0.040446 -0.865410
v -0.333944 -0.019996 -0.854604
v -0.349084 0.019996 -0.828382
v -0.355322 0.040446 -0.817577
v -0.360203 0.061262 -0.809123
v -0.363704 0.082354 -0.803059
v -0.365811 0.103631 -0.799410
v -0.366514 0.125000 -0.798192
v -0.365811 0.146369 -0.799410
v -0.363704 0.167646 -0.803059
v -0.360203 0.188738 -0.809123
v -0.355322 0.209554 -0.817577
v -0.349084 0.230004 -0.828382
v 0.349084 -0.230004 -0.828382
v 0.355322 -0.209554 -0.817577
v 0.360203 -0.188738 -0.809123
v 0.363704 -0.167646 -0.803059
v 0.365811 -0.146369 -0.799410
v 0.366514 -0.125000 -0.798192
v 0.365811 -0.103631 -0.799410
v 0.363704 -0.082354 -0.803059
v 0.360203 -0.061262 -0.809123
v 0.355322 -0.040446 -0.817577
v 0.327706 0.040446 -0.865410
v 0.322825 0.061262 -0.873863
v 0.319324 0.082354 -0.879927
v 0.317217 0.103631 -0.883576
v 0.316514 0.125000 -0.884794
v 0.317217 0.146369 -0.883576
v 0.319324 0.167646 -0.879927
v 0.322825 0.188738 -0.873863
v 0.327706 0.209554 -0.865410
v 0.333944 0.230004 -0.854604
v 0.125000 0.366514 -0.798192
v 0.103631 0.365811 -0.799410
v 0.146369 0.365811 -0.799410
v 0.167646 0.363704 -0.803059
v 0.082354 0.363704 -0.803059
v 0.188738 0.360203 -0.809123
v 0.061262 0.360203 -0.809123
v 0.209554 0.355322 -0.817577
v 0.040446 0.355322 -0.817577
v 0.230004 0.349084 -0.828382
v 0.019996 0.349084 -0.828382
v -0.019996 0.333944 -0.854604
v -0.040446 0.327706 -0.865410
v -0.061262 0.322825 -0.873863
v -0.082354 0.319324 -0.879927
v -0.103631 0.317217 -0.883576
v -0.125000 0.316514 -0.884794
v -0.146369 0.317217 -0.883576
v -0.167646 0.319324 -0.879927
v -0.188738 0.322825 -0.873863
v -0.209554 0.327706 -0.865410
v -0.230004 0.333944 -0.854604
v -0.125000 -0.366514 -0.798192
v -0.103631 -0.365811 -0.799410
v -0.146369 -0.365811 -0.799410
v -0.167646 -0.363704 -0.803059
v -0.082354 -0.363704 -0.803059
v -0.188738 -0.360203 -0.809123
v -0.061262 -0.360203 -0.809123
v -0.209554 -0.355322 -0.817577
v -0.040446 -0.355322 -0.817577
v -0.230004 -0.349084 -0.828382
v -0.019996 -0.349084 -0.828382
v 0.019996 -0.333944 -0.854604
v 0.040446 -0.327706 -0.865410
v 0.061262 -0.322825 -0.873863
v 0.082354 -0.319324 -0.879927
v 0.103631 -0.317217 -0.883576
v 0.125000 -0.316514 -0.884794
v 0.146369 -0.317217 -0.883576
v 0.167646 -0.319324 -0.879927
v 0.188738 -0.322825 -0.873863
v 0.209554 -0.327706 -0.865410
v 0.230004 -0.333944 -0.854604
v -0.250000 -0.250000 0.000000
v -0.250000 0.250000 0.000000
v 0.250000 -0.250000 0.000000
v 0.250000 0.250000 0.000000
vn -0.6547 0.6547 -0.3780
vn 0.6547 -0.6547 0.3780
vn -0.6547 -0.6547 -0.3780
vn 0.6547 0.6547 0.3780
vn 0.8661 -0.0000 -0.4999
vn 0.8660 0.0001 -0.5000
vn 0.8661 0.0001 -0.4999
vn 0.6547 -0.6547 -0.3780
vn -0.6547 0.6547 0.3780
vn 0.6547 0.6547 -0.3780
vn -0.6547 -0.6547 0.3780
vn -0.8660 -0.0000 -0.5000
vn 0.8660 -0.0000 0.5000
vn 0.8660 -0.0000 -0.5000
vn -0.8660 -0.0000 0.5000
vn -0.8660 0.0001 0.5000
vn -0.0000 -0.0000 -1.0000
vn -0.0000 0.8660 -0.5000
vn -0.0000 -0.8660 0.5000
vn -0.0000 -0.8660 -0.5000
vn -0.0000 0.8660 0.5000
vn -1.0000 -0.0000 -0.0000
vn 1.0000 -0.0000 -0.0000
vn -0.0000 -0.0000 1.0000
vn -0.0000 -1.0000 -0.0000
vn -0.0000 1.0000 -0.0000
vt 2.547644 24.448130
vt 0.000000 31.188560
vt -2.547644 24.448130
vt -0.000001 31.188560
vt -2.547646 24.448130
vt 0.787236 21.372360
vt -0.787236 22.564440
vt -0.000000 21.968399
vt -2.547645 24.448130
vt 2.547645 24.448130
vt 0.000000 31.188560
vt 2.547643 24.448130
vt -0.000001 31.188560
vt -9.055284 22.564440
vt -9.842520 29.174231
vt -9.842520 21.968399
vt -8.250155 23.055670
vt -7.430621 23.439951
vt -6.600225 23.715639
vt 9.842520 29.174231
vt -5.762563 23.881531
vt -4.921260 23.936911
vt -4.079957 23.881531
vt -3.242296 23.715639
vt -2.411902 23.439951
vt -1.592367 23.055670
vt -0.787237 22.564440
vt 0.787236 21.372360
vt 1.592362 20.881140
vt 2.411897 20.496849
vt 3.242295 20.221161
vt 4.079956 20.055281
vt 4.921259 19.999901
vt 5.762563 20.055281
vt 6.600224 20.221161
vt 7.430622 20.496849
vt 8.250154 20.881140
vt 9.055283 21.372360
vt 9.842519 21.968399
vt 9.842520 21.968399
vt 8.250155 20.881140
vt 7.430620 20.496849
vt 4.921260 19.999901
vt 4.079957 20.055281
vt 2.411901 20.496849
vt 1.592366 20.881140
vt -1.592362 23.055670
vt -2.411898 23.439951
vt -3.242295 23.715639
vt -6.600224 23.715639
vt -7.430622 23.439951
vt -8.250154 23.055670
vt -9.842520 -9.842520
vt 9.842520 9.842520
vt -9.842520 9.842520
vt 9.842520 -9.842520
vt -1.592363 23.055670
vt -7.430623 23.439951
vt 9.842520 0.000000
vt -9.842520 39.370079
vt -9.842520 0.000000
vt 9.842520 39.370079
vt -9.842520 -0.000000
vt 9.842520 -0.000000
s 0
usemtl snow.011
f 3/1/1 2/2/1 1/3/1
f 1/3/2 2/2/2 3/1/2
f 6/4/3 5/5/3 4/1/3
f 4/1/4 5/5/4 6/4/4
f 9/6/5 8/7/6 7/8/7
f 12/9/8 11/10/8 10/11/8
f 10/11/9 11/10/9 12/9/9
f 15/9/10 14/12/10 13/13/10
f 13/13/11 14/12/11 15/9/11
f 16/14/12 6/15/12 4/16/12
f 6/15/12 16/14/12 17/17/12
f 6/15/12 17/17/12 18/18/12
f 6/15/12 18/18/12 19/19/12
f 6/15/12 19/19/12 2/20/12
f 2/20/12 19/19/12 20/21/12
f 2/20/12 20/21/12 21/22/12
f 2/20/12 21/22/12 22/23/12
f 2/20/12 22/23/12 23/24/12
f 2/20/12 23/24/12 24/25/12
f 2/20/12 24/25/12 25/26/12
f 2/20/12 25/26/12 26/27/12
f 2/20/12 26/27/12 27/28/12
f 2/20/12 27/28/12 28/29/12
f 2/20/12 28/29/12 29/30/12
f 2/20/12 29/30/12 30/31/12
f 2/20/12 30/31/12 31/32/12
f 2/20/12 31/32/12 32/33/12
f 2/20/12 32/33/12 33/34/12
f 2/20/12 33/34/12 34/35/12
f 2/20/12 34/35/12 35/36/12
f 2/20/12 35/36/12 36/37/12
f 2/20/12 36/37/12 37/38/12
f 2/20/12 37/38/12 1/39/12
f 4/16/13 6/15/13 16/14/13
f 17/17/13 16/14/13 6/15/13
f 18/18/13 17/17/13 6/15/13
f 19/19/13 18/18/13 6/15/13
f 2/20/13 19/19/13 6/15/13
f 20/21/13 19/19/13 2/20/13
f 21/22/13 20/21/13 2/20/13
f 22/23/13 21/22/13 2/20/13
f 23/24/13 22/23/13 2/20/13
f 24/25/13 23/24/13 2/20/13
f 25/26/13 24/25/13 2/20/13
f 26/27/13 25/26/13 2/20/13
f 27/28/13 26/27/13 2/20/13
f 28/29/13 27/28/13 2/20/13
f 29/30/13 28/29/13 2/20/13
f 30/31/13 29/30/13 2/20/13
f 31/32/13 30/31/13 2/20/13
f 32/33/13 31/32/13 2/20/13
f 33/34/13 32/33/13 2/20/13
f 34/35/13 33/34/13 2/20/13
f 35/36/13 34/35/13 2/20/13
f 36/37/13 35/36/13 2/20/13
f 37/38/13 36/37/13 2/20/13
f 1/39/13 37/38/13 2/20/13
f 13/15/14 12/40/14 10/20/14
f 12/40/14 13/15/14 38/38/14
f 38/38/14 13/15/14 39/41/14
f 39/41/14 13/15/14 40/42/14
f 40/42/14 13/15/14 41/35/14
f 41/35/14 13/15/14 42/34/14
f 42/34/14 13/15/14 43/43/14
f 43/43/14 13/15/14 44/44/14
f 44/44/14 13/15/14 45/31/14
f 45/31/14 13/15/14 46/45/14
f 46/45/14 13/15/14 47/46/14
f 47/46/14 13/15/14 8/7/14
f 47/46/14 8/7/14 9/6/14
f 8/7/14 13/15/14 48/47/14
f 48/47/14 13/15/14 49/48/14
f 49/48/14 13/15/14 50/49/14
f 50/49/14 13/15/14 51/23/14
f 51/23/14 13/15/14 52/22/14
f 52/22/14 13/15/14 53/21/14
f 53/21/14 13/15/14 54/50/14
f 54/50/14 13/15/14 55/51/14
f 55/51/14 13/15/14 56/52/14
f 56/52/14 13/15/14 57/14/14
f 57/14/14 13/15/14 14/16/14
f 10/20/15 12/40/15 13/15/15
f 38/38/15 13/15/15 12/40/15
f 39/41/15 13/15/15 38/38/15
f 40/42/15 13/15/15 39/41/15
f 41/35/15 13/15/15 40/42/15
f 42/34/15 13/15/15 41/35/15
f 43/43/15 13/15/15 42/34/15
f 44/44/15 13/15/15 43/43/15
f 45/31/15 13/15/15 44/44/15
f 46/45/15 13/15/15 45/31/15
f 47/46/15 13/15/15 46/45/15
f 8/7/15 13/15/15 47/46/15
f 9/6/15 8/7/15 47/46/15
f 7/8/16 8/7/16 9/6/15
f 48/47/15 13/15/15 8/7/15
f 49/48/15 13/15/15 48/47/15
f 50/49/15 13/15/15 49/48/15
f 51/23/15 13/15/15 50/49/15
f 52/22/15 13/15/15 51/23/15
f 53/21/15 13/15/15 52/22/15
f 54/50/15 13/15/15 53/21/15
f 55/51/15 13/15/15 54/50/15
f 56/52/15 13/15/15 55/51/15
f 57/14/15 13/15/15 56/52/15
f 14/16/15 13/15/15 57/14/15
f 10/53/17 2/54/17 13/55/17
f 2/54/17 10/53/17 6/56/17
f 60/34/18 59/32/18 58/33/18
f 59/32/18 60/34/18 61/35/18
f 59/32/18 61/35/18 62/31/18
f 62/31/18 61/35/18 63/42/18
f 62/31/18 63/42/18 64/45/18
f 64/45/18 63/42/18 65/37/18
f 64/45/18 65/37/18 66/46/18
f 66/46/18 65/37/18 67/38/18
f 66/46/18 67/38/18 68/28/18
f 68/28/18 67/38/18 15/39/18
f 68/28/18 15/39/18 69/27/18
f 69/27/18 15/39/18 13/20/18
f 69/27/18 13/20/18 70/57/18
f 70/57/18 13/20/18 71/48/18
f 71/48/18 13/20/18 72/24/18
f 72/24/18 13/20/18 73/23/18
f 73/23/18 13/20/18 74/22/18
f 2/15/18 74/22/18 13/20/18
f 2/15/18 75/21/18 74/22/18
f 2/15/18 76/19/18 75/21/18
f 2/15/18 77/58/18 76/19/18
f 2/15/18 78/52/18 77/58/18
f 2/15/18 79/14/18 78/52/18
f 79/14/18 2/15/18 3/16/18
f 58/33/19 59/32/19 60/34/19
f 61/35/19 60/34/19 59/32/19
f 62/31/19 61/35/19 59/32/19
f 63/42/19 61/35/19 62/31/19
f 64/45/19 63/42/19 62/31/19
f 65/37/19 63/42/19 64/45/19
f 66/46/19 65/37/19 64/45/19
f 67/38/19 65/37/19 66/46/19
f 68/28/19 67/38/19 66/46/19
f 15/39/19 67/38/19 68/28/19
f 69/27/19 15/39/19 68/28/19
f 13/20/19 15/39/19 69/27/19
f 70/57/19 13/20/19 69/27/19
f 71/48/19 13/20/19 70/57/19
f 72/24/19 13/20/19 71/48/19
f 73/23/19 13/20/19 72/24/19
f 74/22/19 13/20/19 73/23/19
f 13/20/19 74/22/19 2/15/19
f 74/22/19 75/21/19 2/15/19
f 75/21/19 76/19/19 2/15/19
f 76/19/19 77/58/19 2/15/19
f 77/58/19 78/52/19 2/15/19
f 78/52/19 79/14/19 2/15/19
f 3/16/19 2/15/19 79/14/19
f 82/34/20 81/32/20 80/33/20
f 81/32/20 82/34/20 83/35/20
f 81/32/20 83/35/20 84/31/20
f 84/31/20 83/35/20 85/36/20
f 84/31/20 85/36/20 86/30/20
f 86/30/20 85/36/20 87/37/20
f 86/30/20 87/37/20 88/29/20
f 88/29/20 87/37/20 89/38/20
f 88/29/20 89/38/20 90/28/20
f 90/28/20 89/38/20 5/39/20
f 90/28/20 5/39/20 91/27/20
f 91/27/20 5/39/20 6/20/20
f 91/27/20 6/20/20 92/26/20
f 92/26/20 6/20/20 93/25/20
f 93/25/20 6/20/20 94/24/20
f 94/24/20 6/20/20 95/23/20
f 95/23/20 6/20/20 96/22/20
f 10/15/20 96/22/20 6/20/20
f 10/15/20 97/21/20 96/22/20
f 10/15/20 98/19/20 97/21/20
f 10/15/20 99/18/20 98/19/20
f 10/15/20 100/17/20 99/18/20
f 10/15/20 101/14/20 100/17/20
f 101/14/20 10/15/20 11/16/20
f 80/33/21 81/32/21 82/34/21
f 83/35/21 82/34/21 81/32/21
f 84/31/21 83/35/21 81/32/21
f 85/36/21 83/35/21 84/31/21
f 86/30/21 85/36/21 84/31/21
f 87/37/21 85/36/21 86/30/21
f 88/29/21 87/37/21 86/30/21
f 89/38/21 87/37/21 88/29/21
f 90/28/21 89/38/21 88/29/21
f 5/39/21 89/38/21 90/28/21
f 91/27/21 5/39/21 90/28/21
f 6/20/21 5/39/21 91/27/21
f 92/26/21 6/20/21 91/27/21
f 93/25/21 6/20/21 92/26/21
f 94/24/21 6/20/21 93/25/21
f 95/23/21 6/20/21 94/24/21
f 96/22/21 6/20/21 95/23/21
f 6/20/21 96/22/21 10/15/21
f 96/22/21 97/21/21 10/15/21
f 97/21/21 98/19/21 10/15/21
f 98/19/21 99/18/21 10/15/21
f 99/18/21 100/17/21 10/15/21
f 100/17/21 101/14/21 10/15/21
f 11/16/21 10/15/21 101/14/21
usemtl dirt.023
f 103/59/22 6/60/22 102/61/22
f 6/60/22 103/59/22 2/62/22
f 10/62/23 105/63/23 104/64/23
f 105/63/23 10/62/23 13/60/23
f 103/55/24 104/56/24 105/54/24
f 104/56/24 103/55/24 102/53/24
f 6/62/25 104/63/25 102/64/25
f 104/63/25 6/62/25 10/60/25
f 13/62/26 103/61/26 105/59/26
f 103/61/26 13/62/26 2/60/26
