# Blender 4.1.1
# www.blender.org
mtllib blockSnowCurveHalf.mtl
o blockSnowCurveHalf.001
v -0.350000 -0.400000 -0.000000
v 0.500000 -0.400000 -0.000000
v -0.321037 -0.400000 -0.219996
v 0.500000 -0.400000 -0.850000
v -0.236122 -0.400000 -0.425000
v -0.101041 -0.400000 -0.601041
v 0.075000 -0.400000 -0.736122
v 0.280004 -0.400000 -0.821037
v 0.500000 0.400000 -0.850000
v 0.500000 0.400000 -0.000000
v -0.350000 0.400000 0.000000
v -0.321037 0.400000 -0.219996
v -0.236122 0.400000 -0.425000
v -0.101041 0.400000 -0.601041
v 0.075000 0.400000 -0.736122
v 0.280004 0.400000 -0.821037
v -0.366025 -0.500000 -0.500000
v -0.207107 -0.500000 -0.707107
v -0.366025 0.500000 -0.500000
v -0.207107 0.500000 -0.707107
v 0.241181 -0.500000 -0.965926
v 0.241181 0.500000 -0.965926
v -0.000000 -0.500000 -0.866025
v -0.000000 0.500000 -0.866025
v 0.500000 -0.500000 -1.000000
v 0.500000 0.500000 -1.000000
v -0.500000 -0.500000 -0.000000
v -0.465926 -0.500000 -0.258819
v -0.500000 0.500000 -0.000000
v -0.465926 0.500000 -0.258819
v -0.350000 0.500000 0.000000
v -0.350000 -0.500000 -0.000000
v -0.321037 0.500000 -0.219996
v -0.236122 0.500000 -0.425000
v -0.101041 0.500000 -0.601041
v 0.075000 0.500000 -0.736122
v 0.280004 0.500000 -0.821037
v 0.500000 0.500000 -0.850000
v 0.075000 -0.500000 -0.736122
v -0.101041 -0.500000 -0.601041
v -0.236122 -0.500000 -0.425000
v 0.280004 -0.500000 -0.821037
v 0.500000 -0.500000 -0.850000
v -0.321037 -0.500000 -0.219996
vn -0.0000 -1.0000 -0.0000
vn 1.0000 -0.0000 -0.0000
vn -0.0000 -0.0000 1.0000
vn -0.0000 1.0000 -0.0000
vn -0.8660 -0.0000 -0.5000
vn -0.7071 -0.0000 -0.7071
vn -0.5000 -0.0000 -0.8660
vn -0.2588 -0.0000 -0.9659
vn -0.1305 -0.0000 -0.9914
vn -0.5000 0.0001 -0.8660
vn -0.9914 -0.0000 -0.1305
vn -0.9659 -0.0000 -0.2588
vn 0.8660 -0.0000 0.5000
vn 0.9659 -0.0000 0.2588
vn 0.7071 -0.0000 0.7071
vn 0.5000 -0.0000 0.8660
vn 0.2588 -0.0000 0.9659
vn 0.1305 -0.0000 0.9914
vn 0.9914 -0.0000 0.1305
vt 12.639250 8.661267
vt -19.685040 0.000000
vt 13.779530 0.000000
vt -19.685040 33.464569
vt 9.296125 16.732281
vt 3.977983 23.663019
vt -2.952756 28.981159
vt -11.023770 32.324291
vt -15.748030 33.464569
vt 15.748030 0.000000
vt 15.748030 33.464569
vt -15.748030 0.000000
vt -13.779530 15.748030
vt 19.685040 -15.748030
vt 19.685040 15.748030
vt -13.779530 -15.748030
vt 19.685040 0.000000
vt -12.639250 8.661267
vt -13.779530 0.000000
vt 19.685040 33.464569
vt -9.296125 16.732281
vt -3.977983 23.663019
vt 2.952756 28.981159
vt 11.023770 32.324291
vt 19.685040 6.844666
vt -19.685040 17.122320
vt -19.685040 6.844666
vt 19.685040 17.122320
vt -19.685040 13.047780
vt 19.685040 23.325430
vt -19.685040 23.325430
vt 19.685040 13.047780
vt -19.685040 14.377800
vt 19.685040 24.655460
vt -19.685040 24.655460
vt 19.685040 14.377800
vt -19.685040 10.478360
vt 19.685040 20.756020
vt -19.685040 20.756020
vt 19.685040 10.478360
vt 19.685040 -2.569413
vt -19.685040 7.708240
vt -19.685040 -2.569413
vt 19.685040 7.708240
vt -19.685040 19.685040
vt -13.779530 19.685040
vt -13.779530 -19.685040
vt -19.685040 -19.685040
vt -19.685040 0.000000
vt -13.779530 0.000000
vt -18.343540 10.189730
vt -14.410450 19.685040
vt -8.153811 27.838850
vt -0.000000 34.095490
vt 19.685040 39.370079
vt 9.495314 38.028580
vt 19.685040 2.394312
vt -19.685040 12.671960
vt -19.685040 2.394312
vt 19.685040 12.671960
vt -19.685040 11.901140
vt -15.748030 3.165136
vt -15.748030 11.901140
vt -19.685040 3.165136
vt 15.748030 11.249190
vt 19.685040 19.985201
vt 15.748030 19.985201
vt 19.685040 11.249190
vt -19.685040 15.148630
vt -15.748030 23.884630
vt -19.685040 23.884630
vt -15.748030 15.148630
vt -19.685040 13.818600
vt -15.748030 22.554609
vt -19.685040 22.554609
vt -15.748030 13.818600
vt -19.685040 11.249190
vt -15.748030 19.985201
vt -19.685040 19.985201
vt -15.748030 11.249190
vt 15.748030 16.351500
vt 19.685040 7.615490
vt 19.685040 16.351500
vt 15.748030 7.615490
vt -19.685040 6.937416
vt -15.748030 -1.798589
vt -15.748030 6.937416
vt -19.685040 -1.798589
vt 15.748030 13.818600
vt 19.685040 22.554609
vt 15.748030 22.554609
vt 19.685040 13.818600
vt 15.748030 15.148630
vt 19.685040 23.884630
vt 15.748030 23.884630
vt 19.685040 15.148630
vt -19.685040 16.351500
vt -15.748030 7.615490
vt -15.748030 16.351500
vt -19.685040 7.615490
vt 15.748030 11.901140
vt 19.685040 3.165136
vt 19.685040 11.901140
vt 15.748030 3.165136
vt 15.748030 6.937416
vt 19.685040 -1.798589
vt 19.685040 6.937416
vt 15.748030 -1.798589
vt 18.343540 10.189730
vt 19.685040 0.000000
vt 14.410450 19.685040
vt 8.153811 27.838850
vt 0.000000 34.095490
vt -19.685040 39.370079
vt -9.495314 38.028580
s 0
usemtl dirt.014
f 3/1/1 2/2/1 1/3/1
f 2/2/1 3/1/1 4/4/1
f 4/4/1 3/1/1 5/5/1
f 4/4/1 5/5/1 6/6/1
f 4/4/1 6/6/1 7/7/1
f 4/4/1 7/7/1 8/8/1
f 9/9/2 2/10/2 4/11/2
f 2/10/2 9/9/2 10/12/2
f 11/13/3 2/14/3 10/15/3
f 2/14/3 11/13/3 1/16/3
f 10/17/4 12/18/4 11/19/4
f 12/18/4 10/17/4 9/20/4
f 12/18/4 9/20/4 13/21/4
f 13/21/4 9/20/4 14/22/4
f 14/22/4 9/20/4 15/23/4
f 15/23/4 9/20/4 16/24/4
usemtl snow.002
f 19/25/5 18/26/6 17/27/5
f 18/26/6 19/25/5 20/28/6
f 23/29/7 22/30/8 21/31/8
f 22/30/8 23/29/7 24/32/7
f 21/33/8 26/34/9 25/35/9
f 26/34/9 21/33/8 22/36/8
f 18/37/6 24/38/7 23/39/10
f 24/38/7 18/37/6 20/40/6
f 29/41/11 28/42/12 27/43/11
f 28/42/12 29/41/11 30/44/12
f 29/45/3 11/13/3 31/46/3
f 11/13/3 29/45/3 1/16/3
f 1/16/3 29/45/3 32/47/3
f 32/47/3 29/45/3 27/48/3
f 33/18/4 29/49/4 31/50/4
f 29/49/4 33/18/4 30/51/4
f 30/51/4 33/18/4 34/21/4
f 30/51/4 34/21/4 19/52/4
f 19/52/4 34/21/4 35/22/4
f 19/52/4 35/22/4 20/53/4
f 20/53/4 35/22/4 36/23/4
f 20/53/4 36/23/4 24/54/4
f 24/54/4 36/23/4 37/24/4
f 24/54/4 37/24/4 38/20/4
f 24/54/4 38/20/4 26/55/4
f 24/54/4 26/55/4 22/56/4
f 30/57/12 17/58/5 28/59/12
f 17/58/5 30/57/12 19/60/5
f 34/61/13 12/62/14 13/63/13
f 12/62/14 34/61/13 33/64/14
f 6/65/15 39/66/16 7/67/16
f 39/66/16 6/65/15 40/68/15
f 37/69/17 9/70/18 38/71/18
f 9/70/18 37/69/17 16/72/17
f 36/73/16 16/74/17 37/75/17
f 16/74/17 36/73/16 15/76/16
f 35/77/15 15/78/16 36/79/16
f 15/78/16 35/77/15 14/80/15
f 6/81/15 41/82/13 40/83/15
f 41/82/13 6/81/15 5/84/13
f 33/85/14 11/86/19 12/87/14
f 11/86/19 33/85/14 31/88/19
f 7/89/16 42/90/17 8/91/17
f 42/90/17 7/89/16 39/92/16
f 8/93/17 43/94/18 4/95/18
f 43/94/18 8/93/17 42/96/17
f 35/97/15 13/98/13 14/99/15
f 13/98/13 35/97/15 34/100/13
f 5/101/13 44/102/14 41/103/13
f 44/102/14 5/101/13 3/104/14
f 3/105/14 32/106/19 44/107/14
f 32/106/19 3/105/14 1/108/19
f 28/109/1 32/3/1 27/110/1
f 32/3/1 28/109/1 44/1/1
f 44/1/1 28/109/1 41/5/1
f 41/5/1 28/109/1 17/111/1
f 41/5/1 17/111/1 40/6/1
f 40/6/1 17/111/1 18/112/1
f 40/6/1 18/112/1 39/7/1
f 39/7/1 18/112/1 23/113/1
f 39/7/1 23/113/1 42/8/1
f 42/8/1 23/113/1 43/4/1
f 43/4/1 23/113/1 25/114/1
f 25/114/1 23/113/1 21/115/1
f 26/114/2 43/20/2 25/55/2
f 43/20/2 26/114/2 4/11/2
f 4/11/2 26/114/2 9/9/2
f 9/9/2 26/114/2 38/4/2
