# Blender 4.1.1
# www.blender.org
mtllib blockSnowLong.mtl
o blockSnowLong
v 0.500000 -1.091514 -0.841493
v 0.591514 -1.000000 -0.841493
v 0.500000 -1.000000 -1.000000
v 0.591514 1.000000 -0.841493
v 0.500000 1.091514 -0.841493
v 0.500000 1.000000 -1.000000
v -0.591514 -1.000000 -0.841493
v -0.500000 -1.091514 -0.841493
v -0.500000 -1.000000 -1.000000
v -0.500000 1.091514 -0.841493
v -0.591514 1.000000 -0.841493
v -0.500000 1.000000 -1.000000
v 0.599084 -0.960008 -0.828382
v 0.569324 -0.335291 -0.879927
v 0.605322 -0.919108 -0.817577
v 0.610203 -0.877476 -0.809123
v 0.567217 -0.292738 -0.883576
v 0.572825 -0.377476 -0.873863
v 0.613704 -0.835291 -0.803059
v 0.615811 -0.792738 -0.799410
v 0.566514 -0.250000 -0.884794
v 0.567217 -0.207262 -0.883576
v 0.569324 -0.164709 -0.879927
v 0.572825 -0.122524 -0.873863
v 0.577706 -0.080892 -0.865410
v 0.577706 -0.419108 -0.865410
v 0.583944 -0.039992 -0.854604
v 0.616514 -0.750000 -0.798192
v 0.615811 -0.707262 -0.799410
v 0.613704 -0.664709 -0.803059
v 0.599084 0.039992 -0.828382
v 0.583944 -0.460008 -0.854604
v 0.605322 0.080892 -0.817577
v 0.610203 -0.622524 -0.809123
v 0.605322 -0.580892 -0.817577
v 0.599084 -0.539992 -0.828382
v 0.591514 -0.500000 -0.841493
v 0.610203 0.122524 -0.809123
v 0.613704 0.164709 -0.803059
v 0.615811 0.207262 -0.799410
v 0.616514 0.250000 -0.798192
v 0.615811 0.292738 -0.799410
v 0.613704 0.335291 -0.803059
v 0.610203 0.377476 -0.809123
v 0.605322 0.419108 -0.817577
v 0.583944 0.539992 -0.854604
v 0.599084 0.460008 -0.828382
v 0.591514 0.500000 -0.841493
v 0.577706 0.580892 -0.865410
v 0.572825 0.622524 -0.873863
v 0.569324 0.664709 -0.879927
v 0.567217 0.707262 -0.883576
v 0.566514 0.750000 -0.884794
v 0.567217 0.792738 -0.883576
v 0.569324 0.835291 -0.879927
v 0.572825 0.877476 -0.873863
v 0.577706 0.919108 -0.865410
v 0.583944 0.960008 -0.854604
v -0.583944 -0.960008 -0.854604
v -0.577706 -0.919108 -0.865410
v -0.572825 -0.877476 -0.873863
v -0.569324 -0.835291 -0.879927
v -0.567217 -0.792738 -0.883576
v -0.566514 -0.750000 -0.884794
v -0.567217 -0.707262 -0.883576
v -0.569324 -0.664709 -0.879927
v -0.572825 -0.622524 -0.873863
v -0.577706 -0.580892 -0.865410
v -0.583944 -0.539992 -0.854604
v -0.599084 -0.460008 -0.828382
v -0.605322 -0.419108 -0.817577
v -0.610203 -0.377476 -0.809123
v -0.569324 0.164709 -0.879927
v -0.567217 0.207262 -0.883576
v -0.566514 0.250000 -0.884794
v -0.567217 0.292738 -0.883576
v -0.569324 0.335291 -0.879927
v -0.572825 0.122524 -0.873863
v -0.613704 -0.335291 -0.803059
v -0.615811 -0.292738 -0.799410
v -0.572825 0.377476 -0.873863
v -0.577706 0.080892 -0.865410
v -0.577706 0.419108 -0.865410
v -0.616514 -0.250000 -0.798192
v -0.615811 -0.207262 -0.799410
v -0.613704 -0.164709 -0.803059
v -0.583944 0.460008 -0.854604
v -0.583944 0.039992 -0.854604
v -0.610203 -0.122524 -0.809123
v -0.605322 -0.080892 -0.817577
v -0.599084 -0.039992 -0.828382
v -0.599084 0.539992 -0.828382
v -0.605322 0.580892 -0.817577
v -0.610203 0.622524 -0.809123
v -0.613704 0.664709 -0.803059
v -0.615811 0.707262 -0.799410
v -0.616514 0.750000 -0.798192
v -0.615811 0.792738 -0.799410
v -0.613704 0.835291 -0.803059
v -0.610203 0.877476 -0.809123
v -0.605322 0.919108 -0.817577
v -0.599084 0.960008 -0.828382
v 0.250000 1.116514 -0.798192
v 0.207262 1.115811 -0.799410
v 0.292738 1.115811 -0.799410
v 0.335291 1.113704 -0.803059
v 0.164709 1.113704 -0.803059
v 0.377476 1.110203 -0.809123
v 0.122524 1.110203 -0.809123
v 0.419108 1.105322 -0.817577
v 0.080892 1.105322 -0.817577
v 0.460008 1.099084 -0.828382
v 0.039992 1.099084 -0.828382
v -0.039992 1.083944 -0.854604
v -0.080892 1.077706 -0.865410
v -0.122524 1.072825 -0.873863
v -0.164709 1.069324 -0.879927
v -0.207262 1.067217 -0.883576
v -0.250000 1.066514 -0.884794
v -0.292738 1.067217 -0.883576
v -0.335291 1.069324 -0.879927
v -0.377476 1.072825 -0.873863
v -0.419108 1.077706 -0.865410
v -0.460008 1.083944 -0.854604
v -0.250000 -1.116514 -0.798192
v -0.207262 -1.115811 -0.799410
v -0.292738 -1.115811 -0.799410
v -0.335291 -1.113704 -0.803059
v -0.164709 -1.113704 -0.803059
v -0.377476 -1.110203 -0.809123
v -0.122524 -1.110203 -0.809123
v -0.419108 -1.105322 -0.817577
v -0.080892 -1.105322 -0.817577
v -0.460008 -1.099084 -0.828382
v -0.039992 -1.099084 -0.828382
v 0.039992 -1.083944 -0.854604
v 0.080892 -1.077706 -0.865410
v 0.122524 -1.072825 -0.873863
v 0.164709 -1.069324 -0.879927
v 0.207262 -1.067217 -0.883576
v 0.250000 -1.066514 -0.884794
v 0.292738 -1.067217 -0.883576
v 0.335291 -1.069324 -0.879927
v 0.377476 -1.072825 -0.873863
v 0.419108 -1.077706 -0.865410
v 0.460008 -1.083944 -0.854604
v -0.500000 -1.000000 0.000000
v 0.500000 -1.000000 0.000000
v 0.500000 1.000000 0.000000
v -0.500000 1.000000 0.000000
vn 0.6547 -0.6547 -0.3780
vn -0.6547 0.6547 0.3780
vn 0.6547 0.6547 -0.3780
vn -0.6547 -0.6547 0.3780
vn -0.6547 -0.6547 -0.3780
vn 0.6547 0.6547 0.3780
vn -0.6547 0.6547 -0.3780
vn 0.6547 -0.6547 0.3780
vn 0.8660 -0.0000 -0.5000
vn 0.8661 -0.0000 -0.4999
vn 0.8660 -0.0000 -0.5001
vn 0.8660 0.0001 -0.5000
vn 0.8661 -0.0000 -0.5000
vn -0.8660 -0.0000 0.5000
vn -0.8661 -0.0000 0.4999
vn -0.8660 -0.0001 0.5000
vn -0.8660 -0.0000 -0.5000
vn -0.8660 -0.0000 -0.5001
vn -0.8661 -0.0000 -0.5000
vn -0.8661 -0.0000 -0.4999
vn -0.8663 -0.0000 -0.4996
vn -0.8659 -0.0001 -0.5002
vn -0.8661 -0.0000 -0.4998
vn -0.8659 -0.0001 -0.5003
vn 0.8660 -0.0000 0.5000
vn 0.8660 -0.0000 0.5001
vn 0.8661 -0.0000 0.4999
vn 0.8659 0.0001 0.5002
vn 0.8661 -0.0000 0.5000
vn 0.8659 0.0001 0.5003
vn -0.0000 0.8661 -0.4999
vn -0.0000 0.8660 -0.5000
vn -0.0000 0.8660 -0.5001
vn -0.0000 -0.8661 0.4999
vn -0.0000 -0.8660 0.5000
vn -0.0000 -0.8661 -0.4999
vn -0.0000 -0.8660 -0.5000
vn -0.0000 -0.8660 -0.5001
vn -0.0000 0.8661 0.4999
vn -0.0000 0.8660 0.5000
vn -0.0000 0.8660 0.5001
vn -0.0000 -0.0000 -1.0000
vn -0.0000 -1.0000 -0.0000
vn -0.0000 -0.0000 1.0000
vn -0.0000 1.0000 -0.0000
vn -1.0000 -0.0000 -0.0000
vn 1.0000 -0.0000 -0.0000
vt 13.919430 20.666460
vt 11.371780 13.926030
vt 16.467070 13.926030
vt -13.919420 20.666470
vt -16.467070 13.926030
vt -11.371780 13.926030
vt -13.919430 20.666470
vt 13.919430 20.666470
vt 39.370079 24.252970
vt 37.795601 16.451111
vt 39.370079 17.047140
vt -39.370079 24.252970
vt 13.200450 18.794380
vt 36.185349 15.959880
vt 34.546280 15.575590
vt 11.525130 18.960270
vt 14.861240 18.518700
vt 32.885490 15.299910
vt 31.210171 15.134020
vt 9.842520 19.015650
vt 8.159913 18.960270
vt 6.484594 18.794380
vt 4.823799 18.518700
vt 3.184728 18.134411
vt 16.500311 18.134411
vt 1.574476 17.643181
vt 29.527559 15.078640
vt 27.844950 15.134020
vt 26.169630 15.299910
vt -1.574473 16.451111
vt 18.110571 17.643181
vt -3.184729 15.959880
vt 24.508841 15.575590
vt 22.869770 15.959880
vt 21.259510 16.451111
vt 19.685040 17.047140
vt -4.823799 15.575590
vt -6.484591 15.299910
vt -8.159913 15.134020
vt -9.842520 15.078640
vt -11.525130 15.134020
vt -13.200450 15.299910
vt -14.861240 15.575590
vt -16.500311 15.959880
vt -21.259510 17.643181
vt -18.110571 16.451111
vt -19.685040 17.047140
vt -22.869770 18.134411
vt -24.508841 18.518700
vt -26.169630 18.794380
vt -27.844950 18.960270
vt -29.527559 19.015650
vt -31.210171 18.960270
vt -32.885479 18.794380
vt -34.546280 18.518700
vt -36.185349 18.134411
vt -37.795601 17.643181
vt -39.370079 17.047140
vt -37.795601 17.643150
vt -39.370079 24.252930
vt -39.370079 17.047110
vt -36.185349 18.134371
vt -34.546280 18.518660
vt -32.885490 18.794350
vt -31.210171 18.960239
vt 39.370079 24.252939
vt -29.527559 19.015610
vt -27.844950 18.960239
vt -26.169630 18.794350
vt -24.508841 18.518660
vt -22.869770 18.134371
vt -21.259510 17.643150
vt -18.110571 16.451059
vt -16.500311 15.959850
vt -14.861240 15.575550
vt 6.484591 18.794350
vt 8.159914 18.960239
vt 9.842521 19.015610
vt 11.525130 18.960239
vt 13.200450 18.794350
vt 4.823800 18.518669
vt -13.200450 15.299870
vt -11.525120 15.133980
vt 14.861240 18.518669
vt 3.184730 18.134371
vt 16.500311 18.134371
vt -9.842519 15.078600
vt -8.159912 15.133980
vt -6.484593 15.299870
vt 18.110571 17.643150
vt 1.574474 17.643150
vt -4.823798 15.575550
vt -3.184727 15.959850
vt -1.574475 16.451059
vt 21.259510 16.451059
vt 22.869770 15.959850
vt 24.508841 15.575550
vt 26.169630 15.299870
vt 27.844950 15.133980
vt 29.527559 15.078600
vt 31.210171 15.133980
vt 32.885490 15.299870
vt 34.546280 15.575550
vt 36.185349 15.959850
vt 37.795601 16.451059
vt 39.370079 17.047110
vt 11.525130 5.291462
vt 8.159922 5.291462
vt 9.842527 5.236088
vt 13.200460 5.457353
vt 6.484599 5.457353
vt 14.861250 5.733036
vt 4.823807 5.733035
vt 16.500320 6.117335
vt 3.184736 6.117333
vt 18.110571 6.608549
vt 1.574481 6.608547
vt 19.685049 7.204594
vt -1.574465 7.800637
vt 19.685049 14.410420
vt -3.184721 8.291855
vt -4.823792 8.676149
vt -6.484583 8.951832
vt -8.159905 9.117726
vt -9.842512 9.173097
vt -19.685030 14.410420
vt -11.525120 9.117726
vt -13.200440 8.951832
vt -14.861230 8.676148
vt -16.500299 8.291853
vt -18.110559 7.800636
vt -19.685030 7.204590
vt 11.525130 5.291498
vt 8.159913 5.291498
vt 9.842519 5.236118
vt 13.200440 5.457385
vt 6.484590 5.457385
vt 14.861240 5.733071
vt 4.823799 5.733072
vt 16.500311 6.117358
vt 3.184728 6.117359
vt 18.110559 6.608584
vt 1.574472 6.608584
vt 19.685040 7.204623
vt -1.574473 7.800663
vt 19.685040 14.410450
vt -3.184729 8.291891
vt -4.823800 8.676176
vt -6.484591 8.951862
vt -8.159914 9.117753
vt -9.842521 9.173128
vt -19.685040 14.410450
vt -11.525130 9.117753
vt -13.200450 8.951862
vt -14.861240 8.676176
vt -16.500311 8.291892
vt -18.110571 7.800663
vt -19.685040 7.204624
vt -19.685040 -39.370079
vt 19.685040 39.370079
vt -19.685040 39.370079
vt 19.685040 -39.370079
vt -19.685040 0.000000
vt 19.685040 0.000000
vt -19.685040 0.000000
vt 19.685040 0.000000
vt 39.370079 0.000000
vt -39.370079 39.370079
vt -39.370079 0.000000
vt 39.370079 39.370079
vt 39.370079 -0.000000
vt -39.370079 -0.000000
s 0
usemtl snow.010
f 3/1/1 2/2/1 1/3/1
f 1/3/2 2/2/2 3/1/2
f 6/4/3 5/5/3 4/6/3
f 4/6/4 5/5/4 6/4/4
f 9/7/5 8/5/5 7/6/5
f 7/6/6 8/5/6 9/7/6
f 12/8/7 11/2/7 10/3/7
f 10/3/8 11/2/8 12/8/8
f 3/9/9 13/10/9 2/11/9
f 13/10/9 3/9/9 6/12/9
f 13/10/9 6/12/9 14/13/9
f 13/10/9 14/13/9 15/14/9
f 15/14/9 14/13/9 16/15/9
f 14/13/10 6/12/10 17/16/10
f 16/15/10 14/13/10 18/17/10
f 16/15/9 18/17/9 19/18/9
f 19/18/9 18/17/9 20/19/9
f 17/16/9 6/12/9 21/20/9
f 21/20/9 6/12/9 22/21/9
f 22/21/9 6/12/9 23/22/9
f 23/22/9 6/12/9 24/23/9
f 24/23/9 6/12/9 25/24/9
f 20/19/10 18/17/10 26/25/10
f 25/24/9 6/12/9 27/26/9
f 20/19/9 26/25/9 28/27/9
f 28/27/9 26/25/9 29/28/9
f 29/28/9 26/25/9 30/29/9
f 27/26/9 6/12/9 31/30/9
f 30/29/11 26/25/11 32/31/11
f 31/30/9 6/12/9 33/32/9
f 30/29/9 32/31/9 34/33/9
f 34/33/9 32/31/9 35/34/9
f 35/34/10 32/31/10 36/35/10
f 36/35/9 32/31/12 37/36/9
f 33/32/9 6/12/9 38/37/9
f 38/37/9 6/12/9 39/38/9
f 39/38/9 6/12/9 40/39/9
f 40/39/9 6/12/9 41/40/9
f 41/40/9 6/12/9 42/41/9
f 42/41/9 6/12/9 43/42/9
f 43/42/9 6/12/9 44/43/9
f 44/43/9 6/12/9 45/44/9
f 45/44/10 6/12/10 46/45/10
f 45/44/13 46/45/13 47/46/13
f 47/46/9 46/45/12 48/47/9
f 46/45/9 6/12/9 49/48/9
f 49/48/9 6/12/9 50/49/9
f 50/49/9 6/12/9 51/50/9
f 51/50/9 6/12/9 52/51/9
f 52/51/9 6/12/9 53/52/9
f 53/52/9 6/12/9 54/53/9
f 54/53/9 6/12/9 55/54/9
f 55/54/9 6/12/9 56/55/9
f 56/55/9 6/12/9 57/56/9
f 57/56/9 6/12/9 58/57/9
f 58/57/9 6/12/9 4/58/9
f 2/11/14 13/10/14 3/9/14
f 6/12/14 3/9/14 13/10/14
f 14/13/14 6/12/14 13/10/14
f 15/14/14 14/13/14 13/10/14
f 16/15/14 14/13/14 15/14/14
f 17/16/15 6/12/15 14/13/15
f 18/17/14 14/13/14 16/15/14
f 19/18/14 18/17/14 16/15/14
f 20/19/14 18/17/14 19/18/14
f 21/20/14 6/12/14 17/16/14
f 22/21/14 6/12/14 21/20/14
f 23/22/14 6/12/14 22/21/14
f 24/23/14 6/12/14 23/22/14
f 25/24/14 6/12/14 24/23/14
f 26/25/15 18/17/15 20/19/15
f 27/26/14 6/12/14 25/24/14
f 28/27/14 26/25/14 20/19/14
f 29/28/14 26/25/14 28/27/14
f 30/29/14 26/25/14 29/28/14
f 31/30/14 6/12/14 27/26/14
f 32/31/14 26/25/14 30/29/14
f 33/32/14 6/12/14 31/30/14
f 34/33/14 32/31/14 30/29/14
f 35/34/14 32/31/14 34/33/14
f 36/35/15 32/31/15 35/34/15
f 37/36/14 32/31/14 36/35/16
f 38/37/14 6/12/14 33/32/14
f 39/38/14 6/12/14 38/37/14
f 40/39/14 6/12/14 39/38/14
f 41/40/14 6/12/14 40/39/14
f 42/41/14 6/12/14 41/40/14
f 43/42/14 6/12/14 42/41/14
f 44/43/14 6/12/14 43/42/14
f 45/44/14 6/12/14 44/43/14
f 46/45/15 6/12/15 45/44/15
f 47/46/15 46/45/15 45/44/15
f 48/47/14 46/45/14 47/46/16
f 49/48/14 6/12/14 46/45/14
f 50/49/14 6/12/14 49/48/14
f 51/50/14 6/12/14 50/49/14
f 52/51/14 6/12/14 51/50/14
f 53/52/14 6/12/14 52/51/14
f 54/53/14 6/12/14 53/52/14
f 55/54/14 6/12/14 54/53/14
f 56/55/14 6/12/14 55/54/14
f 57/56/14 6/12/14 56/55/14
f 58/57/14 6/12/14 57/56/14
f 4/58/14 6/12/14 58/57/14
f 59/59/17 9/60/17 7/61/17
f 9/60/17 59/59/17 60/62/17
f 9/60/17 60/62/17 61/63/17
f 9/60/17 61/63/17 62/64/17
f 9/60/17 62/64/17 63/65/17
f 9/60/17 63/65/17 12/66/17
f 12/66/18 63/65/18 64/67/18
f 12/66/19 64/67/19 65/68/19
f 12/66/17 65/68/17 66/69/17
f 12/66/17 66/69/17 67/70/17
f 12/66/17 67/70/17 68/71/17
f 12/66/17 68/71/17 69/72/17
f 12/66/17 69/72/17 70/73/17
f 12/66/17 70/73/17 71/74/17
f 12/66/17 71/74/17 72/75/17
f 12/66/17 72/75/17 73/76/17
f 12/66/20 73/76/20 74/77/20
f 12/66/17 74/77/17 75/78/17
f 12/66/17 75/78/17 76/79/17
f 12/66/17 76/79/17 77/80/17
f 73/76/21 72/75/21 78/81/21
f 78/81/17 72/75/17 79/82/17
f 78/81/17 79/82/17 80/83/17
f 12/66/17 77/80/17 81/84/17
f 78/81/22 80/83/22 82/85/22
f 12/66/17 81/84/17 83/86/17
f 82/85/17 80/83/17 84/87/17
f 82/85/17 84/87/17 85/88/17
f 82/85/17 85/88/17 86/89/17
f 12/66/17 83/86/17 87/90/17
f 82/85/23 86/89/23 88/91/23
f 88/91/17 86/89/17 89/92/17
f 88/91/20 89/92/20 90/93/20
f 88/91/24 90/93/24 91/94/24
f 12/66/17 87/90/17 92/95/17
f 12/66/17 92/95/17 93/96/17
f 12/66/17 93/96/17 94/97/17
f 12/66/17 94/97/17 95/98/17
f 12/66/17 95/98/17 96/99/17
f 12/66/17 96/99/17 97/100/17
f 12/66/17 97/100/17 98/101/17
f 12/66/17 98/101/17 99/102/17
f 12/66/17 99/102/17 100/103/17
f 12/66/17 100/103/17 101/104/17
f 12/66/17 101/104/17 102/105/17
f 12/66/17 102/105/17 11/106/17
f 7/61/25 9/60/25 59/59/25
f 60/62/25 59/59/25 9/60/25
f 61/63/25 60/62/25 9/60/25
f 62/64/25 61/63/25 9/60/25
f 63/65/25 62/64/25 9/60/25
f 12/66/25 63/65/25 9/60/25
f 64/67/26 63/65/26 12/66/26
f 65/68/27 64/67/27 12/66/27
f 66/69/25 65/68/25 12/66/25
f 67/70/25 66/69/25 12/66/25
f 68/71/25 67/70/25 12/66/25
f 69/72/25 68/71/25 12/66/25
f 70/73/25 69/72/25 12/66/25
f 71/74/25 70/73/25 12/66/25
f 72/75/25 71/74/25 12/66/25
f 73/76/25 72/75/25 12/66/25
f 74/77/27 73/76/27 12/66/27
f 75/78/25 74/77/25 12/66/25
f 76/79/25 75/78/25 12/66/25
f 77/80/25 76/79/25 12/66/25
f 78/81/27 72/75/27 73/76/27
f 79/82/25 72/75/25 78/81/25
f 80/83/25 79/82/25 78/81/25
f 81/84/25 77/80/25 12/66/25
f 82/85/28 80/83/28 78/81/28
f 83/86/25 81/84/25 12/66/25
f 84/87/25 80/83/25 82/85/25
f 85/88/25 84/87/25 82/85/25
f 86/89/25 85/88/25 82/85/25
f 87/90/25 83/86/25 12/66/25
f 88/91/29 86/89/29 82/85/29
f 89/92/25 86/89/25 88/91/25
f 90/93/27 89/92/27 88/91/27
f 91/94/30 90/93/30 88/91/30
f 92/95/25 87/90/25 12/66/25
f 93/96/25 92/95/25 12/66/25
f 94/97/25 93/96/25 12/66/25
f 95/98/25 94/97/25 12/66/25
f 96/99/25 95/98/25 12/66/25
f 97/100/25 96/99/25 12/66/25
f 98/101/25 97/100/25 12/66/25
f 99/102/25 98/101/25 12/66/25
f 100/103/25 99/102/25 12/66/25
f 101/104/25 100/103/25 12/66/25
f 102/105/25 101/104/25 12/66/25
f 11/106/25 102/105/25 12/66/25
f 105/107/31 104/108/31 103/109/31
f 104/108/32 105/107/32 106/110/32
f 104/108/33 106/110/33 107/111/33
f 107/111/32 106/110/32 108/112/32
f 107/111/32 108/112/32 109/113/32
f 109/113/32 108/112/32 110/114/32
f 109/113/32 110/114/32 111/115/32
f 111/115/32 110/114/32 112/116/32
f 111/115/32 112/116/32 113/117/32
f 113/117/32 112/116/32 5/118/32
f 113/117/32 5/118/32 114/119/32
f 114/119/32 5/118/32 6/120/32
f 114/119/32 6/120/32 115/121/32
f 115/121/32 6/120/32 116/122/32
f 116/122/32 6/120/32 117/123/32
f 117/123/32 6/120/32 118/124/32
f 118/124/32 6/120/32 119/125/32
f 12/126/32 119/125/32 6/120/32
f 12/126/32 120/127/32 119/125/32
f 12/126/32 121/128/32 120/127/32
f 12/126/32 122/129/32 121/128/32
f 12/126/32 123/130/32 122/129/32
f 12/126/32 124/131/32 123/130/32
f 124/131/32 12/126/32 10/132/32
f 103/109/34 104/108/34 105/107/34
f 106/110/35 105/107/35 104/108/35
f 107/111/35 106/110/35 104/108/35
f 108/112/35 106/110/35 107/111/35
f 109/113/35 108/112/35 107/111/35
f 110/114/35 108/112/35 109/113/35
f 111/115/35 110/114/35 109/113/35
f 112/116/35 110/114/35 111/115/35
f 113/117/35 112/116/35 111/115/35
f 5/118/35 112/116/35 113/117/35
f 114/119/35 5/118/35 113/117/35
f 6/120/35 5/118/35 114/119/35
f 115/121/35 6/120/35 114/119/35
f 116/122/35 6/120/35 115/121/35
f 117/123/35 6/120/35 116/122/35
f 118/124/35 6/120/35 117/123/35
f 119/125/35 6/120/35 118/124/35
f 6/120/35 119/125/35 12/126/35
f 119/125/35 120/127/35 12/126/35
f 120/127/35 121/128/35 12/126/35
f 121/128/35 122/129/35 12/126/35
f 122/129/35 123/130/35 12/126/35
f 123/130/35 124/131/35 12/126/35
f 10/132/35 12/126/35 124/131/35
f 127/133/36 126/134/36 125/135/36
f 126/134/37 127/133/37 128/136/37
f 126/134/38 128/136/38 129/137/38
f 129/137/37 128/136/37 130/138/37
f 129/137/37 130/138/37 131/139/37
f 131/139/37 130/138/37 132/140/37
f 131/139/37 132/140/37 133/141/37
f 133/141/37 132/140/37 134/142/37
f 133/141/37 134/142/37 135/143/37
f 135/143/37 134/142/37 8/144/37
f 135/143/37 8/144/37 136/145/37
f 136/145/37 8/144/37 9/146/37
f 136/145/37 9/146/37 137/147/37
f 137/147/37 9/146/37 138/148/37
f 138/148/37 9/146/37 139/149/37
f 139/149/37 9/146/37 140/150/37
f 140/150/37 9/146/37 141/151/37
f 3/152/37 141/151/37 9/146/37
f 3/152/37 142/153/37 141/151/37
f 3/152/37 143/154/37 142/153/37
f 3/152/37 144/155/37 143/154/37
f 3/152/37 145/156/37 144/155/37
f 3/152/37 146/157/37 145/156/37
f 146/157/37 3/152/37 1/158/37
f 125/135/39 126/134/39 127/133/39
f 128/136/40 127/133/40 126/134/40
f 129/137/41 128/136/41 126/134/41
f 130/138/40 128/136/40 129/137/40
f 131/139/40 130/138/40 129/137/40
f 132/140/40 130/138/40 131/139/40
f 133/141/40 132/140/40 131/139/40
f 134/142/40 132/140/40 133/141/40
f 135/143/40 134/142/40 133/141/40
f 8/144/40 134/142/40 135/143/40
f 136/145/40 8/144/40 135/143/40
f 9/146/40 8/144/40 136/145/40
f 137/147/40 9/146/40 136/145/40
f 138/148/40 9/146/40 137/147/40
f 139/149/40 9/146/40 138/148/40
f 140/150/40 9/146/40 139/149/40
f 141/151/40 9/146/40 140/150/40
f 9/146/40 141/151/40 3/152/40
f 141/151/40 142/153/40 3/152/40
f 142/153/40 143/154/40 3/152/40
f 143/154/40 144/155/40 3/152/40
f 144/155/40 145/156/40 3/152/40
f 145/156/40 146/157/40 3/152/40
f 1/158/40 3/152/40 146/157/40
f 3/159/42 12/160/42 6/161/42
f 12/160/42 3/159/42 9/162/42
usemtl dirt.022
f 9/160/43 148/163/43 147/164/43
f 148/163/43 9/160/43 3/161/43
f 150/161/44 148/162/44 149/160/44
f 148/162/44 150/161/44 147/159/44
f 6/160/45 150/165/45 149/166/45
f 150/165/45 6/160/45 12/161/45
f 150/167/46 9/168/46 147/169/46
f 9/168/46 150/167/46 12/170/46
f 6/168/47 148/171/47 3/170/47
f 148/171/47 6/168/47 149/172/47
