# Blender 4.1.1
# www.blender.org
mtllib blockSnowLevel.mtl
o blockSnowLevel
v -0.591514 0.500000 -0.341493
v -0.500000 0.500000 -0.500000
v -0.500000 0.591514 -0.341493
v -0.091514 0.500000 -0.841493
v 0.000000 0.500000 -1.000000
v 0.000000 0.591514 -0.841493
v -0.591514 -0.500000 -0.841493
v -0.500000 -0.591514 -0.841493
v -0.500000 -0.500000 -1.000000
v -0.500000 0.091514 -0.841493
v -0.591514 0.000000 -0.841493
v -0.500000 0.000000 -1.000000
v 0.591514 0.500000 -0.841493
v 0.500000 0.591514 -0.841493
v 0.500000 0.500000 -1.000000
v 0.500000 -0.591514 -0.841493
v 0.591514 -0.500000 -0.841493
v 0.500000 -0.500000 -1.000000
v 0.000000 0.000000 -0.500000
v 0.000000 0.500000 -0.500000
v -0.500000 0.000000 -0.500000
v 0.000000 0.000000 -1.000000
v -0.250000 -0.616514 -0.798192
v -0.207262 -0.615811 -0.799410
v -0.292738 -0.615811 -0.799410
v -0.335291 -0.613704 -0.803059
v -0.164709 -0.613704 -0.803059
v -0.377476 -0.610203 -0.809123
v -0.122524 -0.610203 -0.809123
v -0.419108 -0.605322 -0.817577
v -0.080892 -0.605322 -0.817577
v -0.460008 -0.599084 -0.828382
v -0.039992 -0.599084 -0.828382
v 0.039992 -0.583944 -0.854604
v 0.080892 -0.577706 -0.865410
v 0.122524 -0.572825 -0.873863
v 0.164709 -0.569324 -0.879927
v 0.207262 -0.567217 -0.883576
v 0.250000 -0.566514 -0.884794
v 0.292738 -0.567217 -0.883576
v 0.335291 -0.569324 -0.879927
v 0.377476 -0.572825 -0.873863
v 0.419108 -0.577706 -0.865410
v 0.460008 -0.583944 -0.854604
v -0.125000 0.616514 -0.298192
v -0.146369 0.615811 -0.299410
v -0.103631 0.615811 -0.299410
v -0.082354 0.613704 -0.303059
v -0.167646 0.613704 -0.303059
v -0.061262 0.610203 -0.309123
v -0.188738 0.610203 -0.309123
v -0.040446 0.605322 -0.317576
v -0.209554 0.605322 -0.317576
v -0.019996 0.599084 -0.328382
v -0.230004 0.599084 -0.328382
v 0.000000 0.591514 -0.341493
v -0.269996 0.583944 -0.354604
v -0.290446 0.577706 -0.365410
v -0.311262 0.572825 -0.373863
v -0.332354 0.569324 -0.379927
v -0.353631 0.567217 -0.383576
v -0.375000 0.566514 -0.384794
v -0.396369 0.567217 -0.383576
v -0.417646 0.569324 -0.379927
v -0.438738 0.572825 -0.373863
v -0.459554 0.577706 -0.365410
v -0.480004 0.583944 -0.354604
v 0.375000 0.616514 -0.798192
v 0.353631 0.615811 -0.799410
v 0.396369 0.615811 -0.799410
v 0.417646 0.613704 -0.803059
v 0.332354 0.613704 -0.803059
v 0.438738 0.610203 -0.809123
v 0.311262 0.610203 -0.809123
v 0.459554 0.605322 -0.817577
v 0.290446 0.605322 -0.817577
v 0.480004 0.599084 -0.828382
v 0.269996 0.599084 -0.828382
v 0.230004 0.583944 -0.854604
v 0.209554 0.577706 -0.865410
v 0.188738 0.572825 -0.873863
v 0.167646 0.569324 -0.879927
v 0.146369 0.567217 -0.883576
v 0.125000 0.566514 -0.884794
v 0.103631 0.567217 -0.883576
v 0.082354 0.569324 -0.879927
v 0.061262 0.572825 -0.873863
v 0.040446 0.577706 -0.865410
v 0.019996 0.583944 -0.854604
v -0.583944 -0.480004 -0.854604
v -0.577706 -0.459554 -0.865410
v -0.572825 -0.438738 -0.873863
v -0.569324 -0.417646 -0.879927
v -0.567217 -0.396369 -0.883576
v -0.566514 -0.375000 -0.884794
v -0.567217 -0.353631 -0.883576
v -0.569324 -0.332354 -0.879927
v -0.572825 -0.311262 -0.873863
v -0.577706 -0.290446 -0.865410
v -0.583944 -0.269996 -0.854604
v -0.599084 -0.230004 -0.828382
v -0.605322 -0.209554 -0.817577
v -0.610203 -0.188738 -0.809123
v -0.613704 -0.167646 -0.803059
v -0.615811 -0.146369 -0.799410
v -0.616514 -0.125000 -0.798192
v -0.615811 -0.103631 -0.799410
v -0.613704 -0.082354 -0.803059
v -0.610203 -0.061262 -0.809123
v -0.605322 -0.040446 -0.817577
v -0.599084 -0.019996 -0.828382
v -0.071179 0.071179 -0.876714
v -0.082354 0.069324 -0.879927
v -0.103631 0.067217 -0.883576
v -0.125000 0.066514 -0.884794
v -0.146369 0.067217 -0.883576
v -0.167646 0.069324 -0.879927
v -0.188738 0.072825 -0.873863
v -0.209554 0.077706 -0.865410
v -0.230004 0.083944 -0.854604
v -0.480004 0.099084 -0.828382
v -0.269996 0.099084 -0.828382
v -0.459554 0.105322 -0.817577
v -0.290446 0.105322 -0.817577
v -0.438738 0.110203 -0.809123
v -0.311262 0.110203 -0.809123
v -0.417646 0.113704 -0.803059
v -0.332354 0.113704 -0.803059
v -0.396369 0.115811 -0.799410
v -0.353631 0.115811 -0.799410
v -0.375000 0.116514 -0.798192
v -0.591514 0.000000 -0.341493
v -0.583944 0.019996 -0.354604
v -0.577706 0.040446 -0.365410
v -0.572825 0.061262 -0.373863
v -0.569324 0.082354 -0.379927
v -0.567217 0.103631 -0.383576
v -0.566514 0.125000 -0.384794
v -0.567217 0.146369 -0.383576
v -0.569324 0.167646 -0.379927
v -0.572825 0.188738 -0.373863
v -0.577706 0.209554 -0.365410
v -0.583944 0.230004 -0.354604
v -0.599084 0.269996 -0.328382
v -0.605322 0.290446 -0.317576
v -0.610203 0.311262 -0.309123
v -0.613704 0.332354 -0.303059
v -0.615811 0.353631 -0.299410
v -0.616514 0.375000 -0.298192
v -0.615811 0.396369 -0.299410
v -0.613704 0.417646 -0.303059
v -0.610203 0.438738 -0.309123
v -0.605322 0.459554 -0.317576
v -0.599084 0.480004 -0.328382
v -0.069324 0.082354 -0.879927
v -0.067217 0.103631 -0.883576
v -0.066514 0.125000 -0.884794
v -0.067217 0.146369 -0.883576
v -0.069324 0.167646 -0.879927
v -0.072825 0.188738 -0.873863
v -0.077706 0.209554 -0.865410
v -0.083944 0.230004 -0.854604
v -0.099084 0.269996 -0.828382
v -0.105322 0.290446 -0.817577
v -0.110203 0.311262 -0.809123
v -0.113704 0.332354 -0.803059
v -0.115811 0.353631 -0.799410
v -0.116514 0.375000 -0.798192
v -0.115811 0.396369 -0.799410
v -0.113704 0.417646 -0.803059
v -0.110203 0.438738 -0.809123
v -0.105322 0.459554 -0.817577
v -0.099084 0.480004 -0.828382
v 0.599084 -0.460008 -0.828382
v 0.605322 -0.419108 -0.817577
v 0.610203 -0.377476 -0.809123
v 0.613704 -0.335291 -0.803059
v 0.615811 -0.292738 -0.799410
v 0.616514 -0.250000 -0.798192
v 0.615811 -0.207262 -0.799410
v 0.613704 -0.164709 -0.803059
v 0.610203 -0.122524 -0.809123
v 0.605322 -0.080892 -0.817577
v 0.583944 0.039992 -0.854604
v 0.599084 -0.039992 -0.828382
v 0.591514 0.000000 -0.841493
v 0.577706 0.080892 -0.865410
v 0.572825 0.122524 -0.873863
v 0.569324 0.164709 -0.879927
v 0.567217 0.207262 -0.883576
v 0.566514 0.250000 -0.884794
v 0.567217 0.292738 -0.883576
v 0.569324 0.335291 -0.879927
v 0.572825 0.377476 -0.873863
v 0.577706 0.419108 -0.865410
v 0.583944 0.460008 -0.854604
v 0.500000 -0.500000 0.000000
v 0.500000 0.500000 0.000000
v -0.500000 -0.500000 0.000000
v -0.500000 0.500000 0.000000
vn -0.6547 0.6547 -0.3780
vn 0.6547 -0.6547 0.3780
vn -0.6547 -0.6547 -0.3780
vn 0.6547 0.6547 0.3780
vn 0.6547 0.6547 -0.3780
vn -0.6547 -0.6547 0.3780
vn 0.6547 -0.6547 -0.3780
vn -0.6547 0.6547 0.3780
vn -0.0000 -0.0000 -1.0000
vn -0.0000 -0.8660 -0.5001
vn -0.0000 -0.8660 -0.5000
vn -0.0000 0.8660 0.5000
vn -0.0000 0.8661 -0.4998
vn -0.0000 0.8660 -0.5000
vn -0.0000 -0.8661 0.4998
vn -0.0000 -0.8660 0.5000
vn -0.0000 0.8661 -0.4999
vn -0.0000 -0.8661 0.4999
vn -0.8660 -0.0000 -0.5000
vn -0.8661 -0.0000 -0.4999
vn 0.8660 -0.0000 0.5000
vn 0.8661 -0.0000 0.4999
vn 0.8660 -0.0000 -0.5000
vn 0.8661 -0.0000 -0.5000
vn 0.8661 -0.0000 -0.4999
vn 0.8660 0.0001 -0.5000
vn -0.8660 -0.0000 0.5000
vn -0.8661 -0.0000 0.4999
vn -0.8660 -0.0001 0.5000
vn -1.0000 -0.0000 -0.0000
vn 1.0000 -0.0000 -0.0000
vn -0.0000 -0.0000 1.0000
vn -0.0000 1.0000 -0.0000
vn -0.0000 -1.0000 -0.0000
vt 2.547644 0.962275
vt -0.000000 7.702709
vt -2.547644 0.962275
vt 16.467070 24.448130
vt 13.919430 31.188560
vt 11.371780 24.448130
vt -0.000002 25.927509
vt -2.547647 19.187080
vt 2.547643 19.187080
vt -13.919430 31.188560
vt -16.467070 24.448130
vt -11.371780 24.448130
vt 0.000002 25.927509
vt -2.547643 19.187080
vt 2.547647 19.187080
vt -0.000000 25.927509
vt -2.547645 19.187080
vt 2.547645 19.187080
vt 19.685040 0.000000
vt 0.000000 19.685040
vt 0.000000 0.000000
vt 19.685040 19.685040
vt 19.685040 -19.685040
vt -19.685040 -19.685040
vt -19.685040 19.685040
vt 11.525130 15.134020
vt 8.159913 15.134020
vt 9.842520 15.078640
vt 13.200440 15.299900
vt 6.484590 15.299900
vt 14.861240 15.575590
vt 4.823799 15.575590
vt 16.500311 15.959880
vt 3.184728 15.959880
vt 18.110559 16.451099
vt 1.574472 16.451099
vt 19.685040 17.047140
vt -1.574473 17.643181
vt 19.685040 24.252970
vt -3.184729 18.134411
vt -4.823800 18.518700
vt -6.484591 18.794380
vt -8.159914 18.960270
vt -9.842520 19.015650
vt -19.685040 24.252970
vt -11.525130 18.960270
vt -13.200450 18.794380
vt -14.861240 18.518700
vt -16.500311 18.134411
vt -18.110571 17.643181
vt -19.685040 17.047140
vt -4.079947 -1.913750
vt -5.762549 -1.913750
vt -4.921250 -1.969124
vt -3.242281 -1.747859
vt -6.600214 -1.747859
vt -2.411888 -1.472176
vt -7.430612 -1.472177
vt -1.592356 -1.087877
vt -8.250144 -1.087879
vt -0.787226 -0.596663
vt -9.055274 -0.596665
vt 0.000010 -0.000618
vt -10.629750 0.595425
vt 0.000008 7.205209
vt -11.434880 1.086639
vt -12.254410 1.470938
vt -13.084810 1.746620
vt -13.922470 1.912511
vt -14.763770 1.967884
vt -19.685030 7.205205
vt -15.605070 1.912510
vt -16.442739 1.746619
vt -17.273130 1.470937
vt -18.092661 1.086638
vt -18.897791 0.595424
vt -19.685030 -0.000622
vt 15.605090 15.133990
vt 13.922490 15.133990
vt 14.763790 15.078620
vt 16.442751 15.299880
vt 13.084820 15.299880
vt 17.273149 15.575570
vt 12.254430 15.575570
vt 18.092680 15.959870
vt 11.434890 15.959860
vt 18.897810 16.451080
vt 10.629760 16.451080
vt 19.685049 17.047119
vt 9.055292 17.643169
vt 19.685049 24.252951
vt 8.250166 18.134390
vt 7.430630 18.518681
vt 6.600233 18.794359
vt 5.762571 18.960260
vt 4.921268 19.015631
vt 0.000007 24.252951
vt 4.079965 18.960260
vt 3.242304 18.794359
vt 2.411906 18.518681
vt 1.592375 18.134380
vt 0.787245 17.643169
vt 0.000009 17.047119
vt -18.897791 17.643160
vt -19.685030 24.252939
vt -19.685030 17.047119
vt -18.092670 18.134380
vt -17.273130 18.518681
vt -16.442739 18.794359
vt -15.605070 18.960251
vt -14.763770 19.015619
vt -13.922470 18.960251
vt -13.084810 18.794359
vt -12.254410 18.518681
vt -11.434880 18.134380
vt -10.629750 17.643160
vt -9.055275 16.451071
vt -8.250149 15.959860
vt -7.430613 15.575560
vt -6.600215 15.299880
vt -5.762554 15.133990
vt -4.921251 15.078620
vt -4.079947 15.133990
vt -3.242286 15.299880
vt -2.411889 15.575560
vt -1.592357 15.959860
vt -0.787228 16.451080
vt 0.000000 34.095490
vt -3.242291 28.636900
vt -2.802330 28.490829
vt -4.079957 28.802790
vt -4.921260 28.858170
vt -19.685040 34.095490
vt -5.762559 28.802790
vt -6.600224 28.636900
vt -7.430622 28.361210
vt -8.250154 27.976931
vt -9.055284 27.485701
vt -19.685040 26.889660
vt -18.897800 26.293619
vt -10.629760 26.293619
vt -18.092670 25.802401
vt -11.434890 25.802401
vt -17.273140 25.418110
vt -12.254420 25.418110
vt -16.442739 25.142420
vt -13.084820 25.142420
vt -15.605080 24.976540
vt -13.922480 24.976540
vt -14.763780 24.921160
vt 0.787246 0.595428
vt 1.592376 1.086642
vt 2.411907 1.470941
vt 3.242301 1.746623
vt 19.685049 7.205213
vt 4.079966 1.912514
vt 4.921269 1.967888
vt 5.762568 1.912515
vt 6.600234 1.746624
vt 7.430631 1.470942
vt 8.250163 1.086643
vt 9.055293 0.595429
vt 10.629770 -0.596661
vt 11.434900 -1.087875
vt 12.254430 -1.472173
vt 13.084820 -1.747855
vt 13.922490 -1.913746
vt 14.763790 -1.969120
vt 15.605090 -1.913746
vt 16.442751 -1.747855
vt 17.273149 -1.472172
vt 18.092680 -1.087873
vt 18.897810 -0.596659
vt 19.685049 -0.000614
vt 3.242291 28.636900
vt 0.000000 34.095490
vt 2.802330 28.490829
vt 19.685040 34.095490
vt 4.079957 28.802790
vt 4.921260 28.858170
vt 5.762559 28.802790
vt 6.600224 28.636900
vt 7.430622 28.361210
vt 8.250154 27.976931
vt 9.055284 27.485701
vt 10.629760 26.293619
vt 11.434890 25.802401
vt 12.254420 25.418110
vt 13.084820 25.142420
vt 13.922480 24.976540
vt 14.763780 24.921160
vt 15.605080 24.976540
vt 16.442739 25.142420
vt 17.273140 25.418110
vt 18.092670 25.802401
vt 18.897800 26.293619
vt 19.685040 26.889660
vt 18.110571 16.451099
vt 13.200450 15.299900
vt -0.000000 17.047140
vt -18.110559 17.643181
vt 0.000000 39.370079
vt 0.000000 19.685040
vt 19.685040 39.370079
vt -19.685040 39.370079
vt 19.685040 -0.000000
vt -19.685040 -0.000000
vt 19.685040 0.000000
vt -19.685040 0.000000
vt 0.000000 39.370079
vt -19.685040 0.000000
vt 19.685040 0.000000
s 0
usemtl snow.009
f 3/1/1 2/2/1 1/3/1
f 1/3/2 2/2/2 3/1/2
f 6/4/1 5/5/1 4/6/1
f 4/6/2 5/5/2 6/4/2
f 9/7/3 8/8/3 7/9/3
f 7/9/4 8/8/4 9/7/4
f 12/10/1 11/11/1 10/12/1
f 10/12/2 11/11/2 12/10/2
f 15/13/5 14/14/5 13/15/5
f 13/15/6 14/14/6 15/13/6
f 18/16/7 17/17/7 16/18/7
f 16/18/8 17/17/8 18/16/8
f 21/19/9 20/20/9 19/21/9
f 20/20/9 21/19/9 2/22/9
f 22/21/9 9/23/9 12/19/9
f 9/23/9 22/21/9 18/24/9
f 5/20/9 18/24/9 22/21/9
f 18/24/9 5/20/9 15/25/9
f 25/26/10 24/27/10 23/28/10
f 24/27/11 25/26/11 26/29/11
f 24/27/11 26/29/11 27/30/11
f 27/30/11 26/29/11 28/31/11
f 27/30/11 28/31/11 29/32/11
f 29/32/11 28/31/11 30/33/11
f 29/32/11 30/33/11 31/34/11
f 31/34/11 30/33/11 32/35/11
f 31/34/11 32/35/11 33/36/11
f 33/36/11 32/35/11 8/37/11
f 33/36/11 8/37/11 34/38/11
f 34/38/11 8/37/11 9/39/11
f 34/38/11 9/39/11 35/40/11
f 35/40/11 9/39/11 36/41/11
f 36/41/11 9/39/11 37/42/11
f 37/42/11 9/39/11 38/43/11
f 38/43/11 9/39/11 39/44/11
f 18/45/11 39/44/11 9/39/11
f 18/45/11 40/46/11 39/44/11
f 18/45/11 41/47/11 40/46/11
f 18/45/11 42/48/11 41/47/11
f 18/45/11 43/49/11 42/48/11
f 18/45/11 44/50/11 43/49/11
f 44/50/11 18/45/11 16/51/11
f 23/28/12 24/27/12 25/26/12
f 26/29/12 25/26/12 24/27/12
f 27/30/12 26/29/12 24/27/12
f 28/31/12 26/29/12 27/30/12
f 29/32/12 28/31/12 27/30/12
f 30/33/12 28/31/12 29/32/12
f 31/34/12 30/33/12 29/32/12
f 32/35/12 30/33/12 31/34/12
f 33/36/12 32/35/12 31/34/12
f 8/37/12 32/35/12 33/36/12
f 34/38/12 8/37/12 33/36/12
f 9/39/12 8/37/12 34/38/12
f 35/40/12 9/39/12 34/38/12
f 36/41/12 9/39/12 35/40/12
f 37/42/12 9/39/12 36/41/12
f 38/43/12 9/39/12 37/42/12
f 39/44/12 9/39/12 38/43/12
f 9/39/12 39/44/12 18/45/12
f 39/44/12 40/46/12 18/45/12
f 40/46/12 41/47/12 18/45/12
f 41/47/12 42/48/12 18/45/12
f 42/48/12 43/49/12 18/45/12
f 43/49/12 44/50/12 18/45/12
f 16/51/12 18/45/12 44/50/12
f 47/52/13 46/53/13 45/54/13
f 46/53/14 47/52/14 48/55/14
f 46/53/14 48/55/14 49/56/14
f 49/56/14 48/55/14 50/57/14
f 49/56/14 50/57/14 51/58/14
f 51/58/14 50/57/14 52/59/14
f 51/58/14 52/59/14 53/60/14
f 53/60/14 52/59/14 54/61/14
f 53/60/14 54/61/14 55/62/14
f 55/62/14 54/61/14 56/63/14
f 55/62/14 56/63/14 57/64/14
f 57/64/14 56/63/14 20/65/14
f 57/64/14 20/65/14 58/66/14
f 58/66/14 20/65/14 59/67/14
f 59/67/14 20/65/14 60/68/14
f 60/68/14 20/65/14 61/69/14
f 61/69/14 20/65/14 62/70/14
f 2/71/14 62/70/14 20/65/14
f 2/71/14 63/72/14 62/70/14
f 2/71/14 64/73/14 63/72/14
f 2/71/14 65/74/14 64/73/14
f 2/71/14 66/75/14 65/74/14
f 2/71/14 67/76/14 66/75/14
f 67/76/14 2/71/14 3/77/14
f 45/54/15 46/53/15 47/52/15
f 48/55/16 47/52/16 46/53/16
f 49/56/16 48/55/16 46/53/16
f 50/57/16 48/55/16 49/56/16
f 51/58/16 50/57/16 49/56/16
f 52/59/16 50/57/16 51/58/16
f 53/60/16 52/59/16 51/58/16
f 54/61/16 52/59/16 53/60/16
f 55/62/16 54/61/16 53/60/16
f 56/63/16 54/61/16 55/62/16
f 57/64/16 56/63/16 55/62/16
f 20/65/16 56/63/16 57/64/16
f 58/66/16 20/65/16 57/64/16
f 59/67/16 20/65/16 58/66/16
f 60/68/16 20/65/16 59/67/16
f 61/69/16 20/65/16 60/68/16
f 62/70/16 20/65/16 61/69/16
f 20/65/16 62/70/16 2/71/16
f 62/70/16 63/72/16 2/71/16
f 63/72/16 64/73/16 2/71/16
f 64/73/16 65/74/16 2/71/16
f 65/74/16 66/75/16 2/71/16
f 66/75/16 67/76/16 2/71/16
f 3/77/16 2/71/16 67/76/16
f 70/78/17 69/79/17 68/80/17
f 69/79/14 70/78/14 71/81/14
f 69/79/14 71/81/14 72/82/14
f 72/82/14 71/81/14 73/83/14
f 72/82/14 73/83/14 74/84/14
f 74/84/14 73/83/14 75/85/14
f 74/84/14 75/85/14 76/86/14
f 76/86/14 75/85/14 77/87/14
f 76/86/14 77/87/14 78/88/14
f 78/88/14 77/87/14 14/89/14
f 78/88/14 14/89/14 79/90/14
f 79/90/14 14/89/14 15/91/14
f 79/90/14 15/91/14 80/92/14
f 80/92/14 15/91/14 81/93/14
f 81/93/14 15/91/14 82/94/14
f 82/94/14 15/91/14 83/95/14
f 83/95/14 15/91/14 84/96/14
f 5/97/14 84/96/14 15/91/14
f 5/97/14 85/98/14 84/96/14
f 5/97/14 86/99/14 85/98/14
f 5/97/14 87/100/14 86/99/14
f 5/97/14 88/101/14 87/100/14
f 5/97/14 89/102/14 88/101/14
f 89/102/14 5/97/14 6/103/14
f 68/80/18 69/79/18 70/78/18
f 71/81/16 70/78/16 69/79/16
f 72/82/16 71/81/16 69/79/16
f 73/83/16 71/81/16 72/82/16
f 74/84/16 73/83/16 72/82/16
f 75/85/16 73/83/16 74/84/16
f 76/86/16 75/85/16 74/84/16
f 77/87/16 75/85/16 76/86/16
f 78/88/16 77/87/16 76/86/16
f 14/89/16 77/87/16 78/88/16
f 79/90/16 14/89/16 78/88/16
f 15/91/16 14/89/16 79/90/16
f 80/92/16 15/91/16 79/90/16
f 81/93/16 15/91/16 80/92/16
f 82/94/16 15/91/16 81/93/16
f 83/95/16 15/91/16 82/94/16
f 84/96/16 15/91/16 83/95/16
f 15/91/16 84/96/16 5/97/16
f 84/96/16 85/98/16 5/97/16
f 85/98/16 86/99/16 5/97/16
f 86/99/16 87/100/16 5/97/16
f 87/100/16 88/101/16 5/97/16
f 88/101/16 89/102/16 5/97/16
f 6/103/16 5/97/16 89/102/16
f 90/104/19 9/105/19 7/106/19
f 9/105/19 90/104/19 91/107/19
f 9/105/19 91/107/19 92/108/19
f 9/105/19 92/108/19 93/109/19
f 9/105/19 93/109/19 12/97/19
f 12/97/20 93/109/20 94/110/20
f 12/97/19 94/110/19 95/111/19
f 12/97/19 95/111/19 96/112/19
f 12/97/19 96/112/19 97/113/19
f 12/97/19 97/113/19 98/114/19
f 12/97/19 98/114/19 99/115/19
f 12/97/19 99/115/19 100/116/19
f 12/97/19 100/116/19 101/117/19
f 12/97/19 101/117/19 102/118/19
f 12/97/19 102/118/19 103/119/19
f 12/97/19 103/119/19 104/120/19
f 12/97/19 104/120/19 105/121/19
f 12/97/19 105/121/19 106/122/19
f 12/97/19 106/122/19 107/123/19
f 12/97/19 107/123/19 108/124/19
f 12/97/19 108/124/19 109/125/19
f 12/97/19 109/125/19 110/126/19
f 12/97/19 110/126/19 111/127/19
f 12/97/19 111/127/19 11/103/19
f 7/106/21 9/105/21 90/104/21
f 91/107/21 90/104/21 9/105/21
f 92/108/21 91/107/21 9/105/21
f 93/109/21 92/108/21 9/105/21
f 12/97/21 93/109/21 9/105/21
f 94/110/22 93/109/22 12/97/22
f 95/111/21 94/110/21 12/97/21
f 96/112/21 95/111/21 12/97/21
f 97/113/21 96/112/21 12/97/21
f 98/114/21 97/113/21 12/97/21
f 99/115/21 98/114/21 12/97/21
f 100/116/21 99/115/21 12/97/21
f 101/117/21 100/116/21 12/97/21
f 102/118/21 101/117/21 12/97/21
f 103/119/21 102/118/21 12/97/21
f 104/120/21 103/119/21 12/97/21
f 105/121/21 104/120/21 12/97/21
f 106/122/21 105/121/21 12/97/21
f 107/123/21 106/122/21 12/97/21
f 108/124/21 107/123/21 12/97/21
f 109/125/21 108/124/21 12/97/21
f 110/126/21 109/125/21 12/97/21
f 111/127/21 110/126/21 12/97/21
f 11/103/21 111/127/21 12/97/21
f 22/128/14 113/129/14 112/130/14
f 113/129/14 22/128/14 114/131/14
f 114/131/14 22/128/14 115/132/14
f 12/133/14 115/132/14 22/128/14
f 12/133/14 116/134/14 115/132/14
f 12/133/14 117/135/14 116/134/14
f 12/133/14 118/136/14 117/135/14
f 12/133/14 119/137/14 118/136/14
f 12/133/14 120/138/14 119/137/14
f 10/139/14 120/138/14 12/133/14
f 121/140/14 120/138/14 10/139/14
f 121/140/14 122/141/14 120/138/14
f 123/142/14 122/141/14 121/140/14
f 123/142/14 124/143/14 122/141/14
f 125/144/14 124/143/14 123/142/14
f 125/144/14 126/145/14 124/143/14
f 127/146/14 126/145/14 125/144/14
f 127/146/14 128/147/14 126/145/14
f 129/148/14 128/147/14 127/146/14
f 129/148/14 130/149/14 128/147/14
f 130/149/14 129/148/14 131/150/14
f 112/130/16 113/129/16 22/128/16
f 114/131/16 22/128/16 113/129/16
f 115/132/16 22/128/16 114/131/16
f 22/128/16 115/132/16 12/133/16
f 115/132/16 116/134/16 12/133/16
f 116/134/16 117/135/16 12/133/16
f 117/135/16 118/136/16 12/133/16
f 118/136/16 119/137/16 12/133/16
f 119/137/16 120/138/16 12/133/16
f 12/133/16 120/138/16 10/139/16
f 10/139/16 120/138/16 121/140/16
f 120/138/16 122/141/16 121/140/16
f 121/140/16 122/141/16 123/142/16
f 122/141/16 124/143/16 123/142/16
f 123/142/16 124/143/16 125/144/16
f 124/143/16 126/145/16 125/144/16
f 125/144/16 126/145/16 127/146/16
f 126/145/16 128/147/16 127/146/16
f 127/146/16 128/147/16 129/148/16
f 128/147/16 130/149/16 129/148/16
f 131/150/16 129/148/16 130/149/16
f 133/151/19 21/65/19 132/63/19
f 21/65/19 133/151/19 134/152/19
f 21/65/19 134/152/19 135/153/19
f 21/65/19 135/153/19 136/154/19
f 21/65/19 136/154/19 2/155/19
f 2/155/20 136/154/20 137/156/20
f 2/155/19 137/156/19 138/157/19
f 2/155/19 138/157/19 139/158/19
f 2/155/19 139/158/19 140/159/19
f 2/155/19 140/159/19 141/160/19
f 2/155/19 141/160/19 142/161/19
f 2/155/19 142/161/19 143/162/19
f 2/155/19 143/162/19 144/163/19
f 2/155/19 144/163/19 145/164/19
f 2/155/19 145/164/19 146/165/19
f 2/155/19 146/165/19 147/166/19
f 2/155/19 147/166/19 148/167/19
f 2/155/19 148/167/19 149/168/19
f 2/155/19 149/168/19 150/169/19
f 2/155/19 150/169/19 151/170/19
f 2/155/19 151/170/19 152/171/19
f 2/155/19 152/171/19 153/172/19
f 2/155/19 153/172/19 154/173/19
f 2/155/19 154/173/19 1/174/19
f 132/63/21 21/65/21 133/151/21
f 134/152/21 133/151/21 21/65/21
f 135/153/21 134/152/21 21/65/21
f 136/154/21 135/153/21 21/65/21
f 2/155/21 136/154/21 21/65/21
f 137/156/22 136/154/22 2/155/22
f 138/157/21 137/156/21 2/155/21
f 139/158/21 138/157/21 2/155/21
f 140/159/21 139/158/21 2/155/21
f 141/160/21 140/159/21 2/155/21
f 142/161/21 141/160/21 2/155/21
f 143/162/21 142/161/21 2/155/21
f 144/163/21 143/162/21 2/155/21
f 145/164/21 144/163/21 2/155/21
f 146/165/21 145/164/21 2/155/21
f 147/166/21 146/165/21 2/155/21
f 148/167/21 147/166/21 2/155/21
f 149/168/21 148/167/21 2/155/21
f 150/169/21 149/168/21 2/155/21
f 151/170/21 150/169/21 2/155/21
f 152/171/21 151/170/21 2/155/21
f 153/172/21 152/171/21 2/155/21
f 154/173/21 153/172/21 2/155/21
f 1/174/21 154/173/21 2/155/21
f 155/175/19 22/176/19 112/177/19
f 22/176/19 155/175/19 5/178/19
f 5/178/19 155/175/19 156/179/19
f 5/178/19 156/179/19 157/180/19
f 5/178/19 157/180/19 158/181/19
f 5/178/19 158/181/19 159/182/19
f 5/178/19 159/182/19 160/183/19
f 5/178/19 160/183/19 161/184/19
f 5/178/19 161/184/19 162/185/19
f 5/178/19 162/185/19 163/186/19
f 5/178/19 163/186/19 164/187/19
f 5/178/19 164/187/19 165/188/19
f 5/178/19 165/188/19 166/189/19
f 5/178/19 166/189/19 167/190/19
f 5/178/19 167/190/19 168/191/19
f 5/178/19 168/191/19 169/192/19
f 5/178/19 169/192/19 170/193/19
f 5/178/19 170/193/19 171/194/19
f 5/178/19 171/194/19 172/195/19
f 5/178/19 172/195/19 173/196/19
f 5/178/19 173/196/19 4/197/19
f 112/177/21 22/176/21 155/175/21
f 5/178/21 155/175/21 22/176/21
f 156/179/21 155/175/21 5/178/21
f 157/180/21 156/179/21 5/178/21
f 158/181/21 157/180/21 5/178/21
f 159/182/21 158/181/21 5/178/21
f 160/183/21 159/182/21 5/178/21
f 161/184/21 160/183/21 5/178/21
f 162/185/21 161/184/21 5/178/21
f 163/186/21 162/185/21 5/178/21
f 164/187/21 163/186/21 5/178/21
f 165/188/21 164/187/21 5/178/21
f 166/189/21 165/188/21 5/178/21
f 167/190/21 166/189/21 5/178/21
f 168/191/21 167/190/21 5/178/21
f 169/192/21 168/191/21 5/178/21
f 170/193/21 169/192/21 5/178/21
f 171/194/21 170/193/21 5/178/21
f 172/195/21 171/194/21 5/178/21
f 173/196/21 172/195/21 5/178/21
f 4/197/21 173/196/21 5/178/21
f 18/39/23 174/198/23 17/37/23
f 174/198/23 18/39/23 15/45/23
f 174/198/23 15/45/23 175/33/23
f 175/33/23 15/45/23 176/31/23
f 176/31/23 15/45/23 177/199/23
f 177/199/23 15/45/23 178/26/23
f 178/26/23 15/45/23 179/28/23
f 179/28/23 15/45/23 180/27/23
f 180/27/23 15/45/23 181/30/23
f 181/30/23 15/45/23 182/32/23
f 182/32/23 15/45/23 183/34/23
f 183/34/24 15/45/24 184/38/24
f 183/34/25 184/38/25 185/36/25
f 185/36/25 184/38/26 186/200/23
f 184/38/23 15/45/23 187/40/23
f 187/40/23 15/45/23 188/41/23
f 188/41/23 15/45/23 189/42/23
f 189/42/23 15/45/23 190/43/23
f 190/43/23 15/45/23 191/44/23
f 191/44/23 15/45/23 192/46/23
f 192/46/23 15/45/23 193/47/23
f 193/47/23 15/45/23 194/48/23
f 194/48/23 15/45/23 195/49/23
f 195/49/23 15/45/23 196/201/23
f 196/201/23 15/45/23 13/51/23
f 17/37/27 174/198/27 18/39/27
f 15/45/27 18/39/27 174/198/27
f 175/33/27 15/45/27 174/198/27
f 176/31/27 15/45/27 175/33/27
f 177/199/27 15/45/27 176/31/27
f 178/26/27 15/45/27 177/199/27
f 179/28/27 15/45/27 178/26/27
f 180/27/27 15/45/27 179/28/27
f 181/30/27 15/45/27 180/27/27
f 182/32/27 15/45/27 181/30/27
f 183/34/27 15/45/27 182/32/27
f 184/38/27 15/45/27 183/34/27
f 185/36/28 184/38/28 183/34/28
f 186/200/27 184/38/28 185/36/29
f 187/40/27 15/45/27 184/38/27
f 188/41/27 15/45/27 187/40/27
f 189/42/27 15/45/27 188/41/27
f 190/43/27 15/45/27 189/42/27
f 191/44/27 15/45/27 190/43/27
f 192/46/27 15/45/27 191/44/27
f 193/47/27 15/45/27 192/46/27
f 194/48/27 15/45/27 193/47/27
f 195/49/27 15/45/27 194/48/27
f 196/201/27 15/45/27 195/49/27
f 13/51/27 15/45/27 196/201/27
usemtl dirt.021
f 20/22/30 22/202/30 19/203/30
f 22/202/30 20/22/30 5/204/30
f 15/205/31 197/206/31 18/204/31
f 197/206/31 15/205/31 198/207/31
f 200/208/30 9/205/30 199/209/30
f 9/205/30 200/208/30 21/203/30
f 21/203/30 200/208/30 2/22/30
f 12/202/30 9/205/30 21/203/30
f 200/25/32 197/23/32 198/22/32
f 197/23/32 200/25/32 199/24/32
f 20/20/33 15/204/33 5/210/33
f 20/20/33 198/208/33 15/204/33
f 198/208/33 20/20/33 200/209/33
f 2/25/33 200/209/33 20/20/33
f 9/204/34 197/211/34 199/212/34
f 197/211/34 9/204/34 18/205/34
f 22/210/33 21/25/33 19/20/33
f 21/25/33 22/210/33 12/205/33
